<svg width="27" height="27" viewBox="0 0 27 27" fill="none" xmlns="http://www.w3.org/2000/svg">
<path d="M12.8145 17.1517C11.5218 17.1535 10.2664 16.7181 9.25249 15.9162C8.23853 15.1143 7.52556 13.9931 7.22944 12.7347C6.93331 11.4764 7.07145 10.1548 7.62139 8.98493C8.17133 7.81502 9.10076 6.86547 10.2586 6.29059C11.4165 5.71572 12.7347 5.54931 13.9991 5.81842C15.2636 6.08752 16.3998 6.77631 17.2232 7.77286C18.0466 8.76941 18.5088 10.0151 18.5347 11.3076C18.5606 12.6001 18.1486 13.8633 17.3658 14.892L18.3409 15.8671L18.4632 15.9895C19.6324 14.5414 20.2015 12.7 20.0535 10.8448C19.9054 8.98955 19.0514 7.26177 17.6674 6.01743C16.2834 4.7731 14.4749 4.107 12.6144 4.1564C10.7539 4.2058 8.98322 4.96692 7.66719 6.28295C6.35117 7.59897 5.59005 9.36964 5.54065 11.2301C5.49125 13.0906 6.15734 14.8992 7.40168 16.2832C8.64601 17.6672 10.3738 18.5212 12.229 18.6692C14.0843 18.8173 15.9256 18.2481 17.3737 17.079L16.2745 15.9806C15.2811 16.7405 14.0652 17.152 12.8145 17.1517Z" fill="#4A1A50"/>
<path d="M24.2307 21.763L18.4088 16.0456L18.2841 15.9231L18.4106 16.0474L17.3076 17.1305L23.1277 22.8462L24.2307 21.763Z" fill="#4A1A50"/>
</svg>
