<?xml version="1.0" standalone="no"?> <!DOCTYPE svg PUBLIC "-//W3C//DTD SVG 1.0//EN" "http://www.w3.org/TR/2001/REC-SVG-20010904/DTD/svg10.dtd" > <svg xmlns="http://www.w3.org/2000/svg" width="100%" height="100%">
<defs >
<font horiz-adv-x="526" ><font-face
    font-family="Basel Grotesk TTF"
    units-per-em="1000"
    panose-1="2 11 7 3 2 2 2 2 2 4"
    ascent="944"
    descent="-256"
    alphabetic="0" />
<missing-glyph horiz-adv-x="902" d="M355 -12T274 35T144 164T96 342Q96 438 144 519T273 648T451 696Q547 696 628 649T758 520T806 342Q806 246 758 165T629 36T451 -12Q355 -12 274 35ZM532 42T601 82T711 191T752 342Q752 424 712 492T602 601T451 641Q370
641 301 601T192 493T151 342Q151 260 191 192T301 83T451 42Q532 42 601 82ZM384 96T328 129T239 218T206 342Q206 408 239 465T328 555T451 588Q518 588 574 555T663 466T696 342Q696 275 664 219T575 129T451 96Q384 96 328 129ZM503 151T546 177T615 246T641
342Q641 393 616 437T547 507T451 533Q399 533 356 507T287 437T261 342Q261 290 286 247T355 177T451 151Q503 151 546 177ZM414 206T383 224T334 274T316 342Q316 379 334 410T383 459T451 477Q488 477 519 459T569 410T587 342Q587 305 569 274T520 225T451
206Q414 206 383 224ZM485 261T508 285T532 342Q532 375 509 398T451 422Q417 422 394 399T371 342Q371 309 394 285T451 261Q485 261 508 285ZM437 310T428 319T418 342Q418 355 427 364T451 374Q464 374 474 365T484 342Q484 329 474 320T451 310Q437 310 428
319Z" />
<glyph unicode=" " glyph-name="space" horiz-adv-x="190" />
<glyph unicode="!" glyph-name="exclam" horiz-adv-x="253" d="M168 190H85L60 445V688H194V445L168 190ZM187 0H67V125H187V0Z" />
<glyph unicode="&quot;" glyph-name="quotedbl" horiz-adv-x="350" d="M128 412H62L35 626V688H155V626L128 412ZM288 412H222L195 626V688H315V626L288 412Z" />
<glyph unicode="#" glyph-name="numbersign" horiz-adv-x="714" d="M682 508L655 418H525L483 276H614L587 187H457L402 0H308L363 187H256L201 0H107L162 187H32L59 276H188L230 418H100L127 508H257L310 688H404L351 508H457L510 688H604L551 508H682ZM282 276H389L431
418H324L282 276Z" />
<glyph unicode="$" glyph-name="dollar" horiz-adv-x="634" d="M585 113T523 57T366 -10V-100H266V-8Q172 5 114 64T44 233L170 251Q183 124 266 93V313Q169 337 118 379T67 503Q67 579 121 632T266 697V778H366V696Q453 684 505 631T566 491L438 473Q435 519
417 550T366 595V402L387 397Q490 372 537 329T585 205Q585 113 523 57ZM192 474T209 457T266 427V599Q232 589 212 566T192 510Q192 474 209 457ZM366 87Q409 96 434 125T459 196Q459 233 437 254T366 289V87Z" />
<glyph unicode="%" glyph-name="percent" horiz-adv-x="853" d="M112 296T71 351T29 495Q29 587 70 641T189 695Q266 695 307 641T349 495Q349 402 308 349T189 296Q112 296 71 351ZM217 375T229 404T242 495Q242 556 230 586T189 616Q160 616 148 586T136 495Q136
435 148 405T189 375Q217 375 229 404ZM272 0H181L582 688H673L272 0ZM587 -7T546 48T504 192Q504 284 545 338T664 392Q741 392 782 338T824 192Q824 99 783 46T664 -7Q587 -7 546 48ZM692 72T704 101T717 192Q717 253 705 283T664 313Q635 313 623 283T611 192Q611
132 623 102T664 72Q692 72 704 101Z" />
<glyph unicode="&amp;" glyph-name="ampersand" horiz-adv-x="668" d="M624 93T639 96V3Q612 -2 582 -2Q544 -2 514 7T460 38Q386 -12 288 -12Q211 -12 154 16T65 95T34 211Q34 283 76 332T193 411Q172 443 161 472T149 539Q149 583 170 620T231 678T325 700Q408
700 450 659T493 553Q493 492 455 450T347 378L476 194Q510 270 510 399H621Q621 312 600 239T538 112Q551 101 566 97T607 93Q624 93 639 96ZM294 609T276 590T258 541Q258 517 268 495T298 448Q342 466 364 488T387 545Q387 573 371 591T325 609Q294 609 276
590ZM156 157T194 120T298 83Q361 83 404 109L243 339Q200 319 178 288T156 212Q156 157 194 120Z" />
<glyph unicode="&apos;" glyph-name="quotesingle" horiz-adv-x="190" d="M128 412H62L35 626V688H155V626L128 412Z" />
<glyph unicode="(" glyph-name="parenleft" horiz-adv-x="283" d="M170 -146Q105 -49 69 47T33 271Q33 399 69 495T171 688H268Q211 587 184 493T157 271Q157 144 184 50T267 -146H170Z" />
<glyph unicode=")" glyph-name="parenright" horiz-adv-x="283" d="M16 -146Q72 -45 99 49T126 271Q126 399 99 493T15 688H112Q178 591 214 495T250 271Q250 144 214 48T113 -146H16Z" />
<glyph unicode="*" glyph-name="asterisk" horiz-adv-x="392" d="M230 365H162L175 478L84 410L50 469L155 514L50 559L84 618L175 551L162 663H230L217 551L308 618L342 559L237 514L342 469L308 410L217 478L230 365Z" />
<glyph unicode="+" glyph-name="plus" horiz-adv-x="620" d="M365 113H255V296H57V391H255V574H365V391H563V296H365V113Z" />
<glyph unicode="," glyph-name="comma" horiz-adv-x="224" d="M123 -142H56L98 0H44V134H180V20L123 -142Z" />
<glyph unicode="-" glyph-name="hyphen" horiz-adv-x="390" d="M344 209H46V302H344V209Z" />
<glyph unicode="." glyph-name="period" horiz-adv-x="220" d="M178 0H42V134H178V0Z" />
<glyph unicode="/" glyph-name="slash" horiz-adv-x="478" d="M131 0H20L349 688H460L131 0Z" />
<glyph unicode="0" glyph-name="zero" horiz-adv-x="619" d="M177 -12T112 87T46 344Q46 501 111 600T308 699Q439 699 504 600T570 344Q570 242 542 162T455 35T308 -12Q177 -12 112 87ZM378 86T411 155T444 344Q444 465 411 533T308 601Q238 601 205 533T172
344Q172 223 205 155T308 86Q378 86 411 155Z" />
<glyph unicode="1" glyph-name="one" horiz-adv-x="388" d="M186 0V457H21V544H32Q117 544 158 575T209 680L210 688H309V0H186Z" />
<glyph unicode="2" glyph-name="two" horiz-adv-x="570" d="M45 0V100L144 164Q224 216 277 262T360 362T391 483Q391 540 364 570T282 600Q229 600 198 567T166 472Q166 451 169 430L49 447Q47 469 47 484Q47 550 77 598T161 673T283 699Q391 699 454 645T518
491Q518 379 452 296T268 139L206 100V99H520V0H45Z" />
<glyph unicode="3" glyph-name="three" horiz-adv-x="597" d="M180 -12T112 45T37 207L161 226Q165 158 200 122T298 86Q359 86 392 118T426 203Q426 251 393 280T295 309Q265 309 243 307T218 304V409Q246 405 291 405Q340 405 372 434T405 508Q405 551 377 576T298
601Q241 601 207 566T169 468L49 490Q51 555 84 602T173 674T299 699Q404 699 468 650T532 514Q532 411 431 366V365Q480 349 515 305T551 199Q551 136 519 88T429 14T295 -12Q180 -12 112 45Z" />
<glyph unicode="4" glyph-name="four" horiz-adv-x="613" d="M476 252H583V146H476V0H353V146H26V269L292 688H476V252ZM353 583L145 252H353V583Z" />
<glyph unicode="5" glyph-name="five" horiz-adv-x="579" d="M381 468T432 440T513 360T543 239Q543 164 509 107T417 19T289 -12Q182 -12 116 44T34 193L156 216Q166 154 201 120T291 86Q349 86 383 127T417 236Q417 296 384 333T296 370Q252 370 218 344T173
289L67 311L95 688H494V583H193L181 420H182Q202 439 236 453T317 468Q381 468 432 440Z" />
<glyph unicode="6" glyph-name="six" horiz-adv-x="599" d="M177 -12T112 82T47 332Q47 449 81 531T175 656T315 699Q408 699 467 651T540 518L423 499Q418 550 390 577T313 604Q239 604 202 539T163 370L164 369Q187 402 226 423T322 445Q390 445 442 417T522
338T551 225Q551 155 519 101T431 18T305 -12Q177 -12 112 82ZM363 86T396 123T430 222Q430 280 396 315T307 350Q255 350 219 313T182 222Q182 162 216 124T307 86Q363 86 396 123Z" />
<glyph unicode="7" glyph-name="seven" horiz-adv-x="559" d="M30 688H539V598Q446 443 385 297T291 0H160Q189 137 262 297T421 581H144V479H30V688Z" />
<glyph unicode="8" glyph-name="eight" horiz-adv-x="606" d="M228 -12T170 12T78 82T45 190Q45 316 170 367V368Q131 385 99 421T67 512Q67 569 98 611T183 677T303 700Q368 700 422 677T507 611T538 512Q538 458 506 422T436 368V367Q561 316 561 190Q561 128
528 83T437 13T303 -12Q228 -12 170 12ZM354 408T386 436T418 507Q418 548 386 576T303 604Q252 604 220 576T188 507Q188 464 220 436T303 408Q354 408 386 436ZM363 86T401 117T440 201Q440 251 404 282T303 314Q239 314 203 283T166 201Q166 149 204 118T303
86Q363 86 401 117Z" />
<glyph unicode="9" glyph-name="nine" horiz-adv-x="598" d="M190 -12T132 36T59 169L176 188Q181 137 209 110T286 83Q360 83 397 148T436 317L435 318Q412 285 373 263T277 241Q209 241 157 269T77 348T48 462Q48 532 80 586T168 669T294 699Q422 699 487 605T552
355Q552 238 518 156T424 31T284 -12Q190 -12 132 36ZM344 337T380 374T416 465Q416 526 382 563T292 601Q236 601 203 564T169 465Q169 406 203 372T292 337Q344 337 380 374Z" />
<glyph unicode=":" glyph-name="colon" horiz-adv-x="234" d="M185 0H49V134H185V0ZM185 360H49V494H185V360Z" />
<glyph unicode=";" glyph-name="semicolon" horiz-adv-x="235" d="M129 -142H62L104 0H50V134H186V20L129 -142ZM186 360H50V494H186V360Z" />
<glyph unicode="&lt;" glyph-name="less" horiz-adv-x="620" d="M84 399L523 602V489L180 344L523 194V86L84 289V399Z" />
<glyph unicode="=" glyph-name="equal" horiz-adv-x="620" d="M563 383H57V488H563V383ZM563 199H57V304H563V199Z" />
<glyph unicode="&gt;" glyph-name="greater" horiz-adv-x="620" d="M572 289L133 86V199L476 344L133 494V602L572 399V289Z" />
<glyph unicode="?" glyph-name="question" horiz-adv-x="525" d="M200 213Q203 271 227 310T299 394Q336 428 353 454T370 516Q370 555 342 578T263 601Q206 601 173 568T140 473V457L26 475Q26 582 90 641T265 700Q372 700 430 651T488 520Q488 478 474 446T439
389T384 334Q343 296 329 269T311 212L309 190H199L200 213ZM314 0H194V125H314V0Z" />
<glyph unicode="@" glyph-name="at" horiz-adv-x="881" d="M326 -150T233 -102T84 36T29 250Q29 365 84 459T234 608T445 663Q562 663 654 615T797 483T849 293Q849 216 823 158T751 69T644 37Q596 37 567 56T526 109Q467 37 378 37Q329 37 289 60T225 127T201
227Q201 297 231 354T310 445T418 478Q468 478 504 456T558 403L568 453H669L627 221Q621 185 621 178Q621 149 636 136T675 122Q697 122 717 140T751 198T764 293Q764 380 726 446T615 549T445 586Q348 586 273 543T156 424T114 250Q114 149 158 76T277 -35T445
-73Q505 -73 552 -61T648 -22L687 -88Q575 -150 438 -150Q326 -150 233 -102ZM439 129T467 151T510 209T525 283Q525 331 501 358T435 386Q400 386 372 364T329 306T314 233Q314 184 338 157T404 129Q439 129 467 151Z" />
<glyph unicode="A" glyph-name="A" horiz-adv-x="697" d="M687 0H565L503 168H195L133 0H10L273 688H424L687 0ZM465 270L348 583L232 270H465Z" />
<glyph unicode="B" glyph-name="B" horiz-adv-x="641" d="M77 0V688H352Q459 688 519 641T579 505Q579 448 548 413T480 364V363Q504 358 531 339T579 284T599 202Q599 102 533 51T359 0H77ZM347 405Q396 405 426 428T456 499Q456 584 349 584H201V405H347ZM357
104Q414 104 445 128T476 209Q476 259 445 283T357 307H201V104H357Z" />
<glyph unicode="C" glyph-name="C" horiz-adv-x="719" d="M281 -12T204 33T84 159T41 344Q41 447 83 528T203 654T381 700Q469 700 534 668T638 583T691 469L562 441Q551 506 504 553T378 600Q313 600 266 567T193 476T167 344Q167 270 192 212T266 121T380 88Q460
88 506 134T567 252L696 224Q667 119 585 54T380 -12Q281 -12 204 33Z" />
<glyph unicode="D" glyph-name="D" horiz-adv-x="718" d="M77 0V688H342Q504 688 590 597T676 346Q676 246 638 168T526 45T353 0H77ZM349 104Q450 104 500 171T550 346Q550 473 491 528T305 584H201V104H349Z" />
<glyph unicode="E" glyph-name="E" horiz-adv-x="588" d="M201 310V104H546V0H77V688H530V584H201V412H512V310H201Z" />
<glyph unicode="F" glyph-name="F" horiz-adv-x="564" d="M531 688V584H200V409H517V305H200V0H77V688H531Z" />
<glyph unicode="G" glyph-name="G" horiz-adv-x="765" d="M274 -12T200 32T83 157T41 343Q41 449 84 530T205 655T387 700Q471 700 535 671T640 595T699 496L571 459Q556 518 509 559T386 600Q320 600 271 568T194 477T167 344Q167 228 224 158T385 87Q473 87
525 137T584 277H368V381H703V0H591V97H590Q562 49 507 19T368 -12Q274 -12 200 32Z" />
<glyph unicode="H" glyph-name="H" horiz-adv-x="732" d="M530 414V688H655V0H530V310H201V0H77V688H201V414H530Z" />
<glyph unicode="I" glyph-name="I" horiz-adv-x="278" d="M201 0H77V688H201V0Z" />
<glyph unicode="J" glyph-name="J" horiz-adv-x="555" d="M143 -12T80 42T16 205L142 221Q142 156 169 122T251 88Q302 88 330 118T359 206V688H483V198Q483 98 418 43T248 -12Q143 -12 80 42Z" />
<glyph unicode="K" glyph-name="K" horiz-adv-x="681" d="M347 380L701 0H541L201 365V0H77V688H201V373L497 688H650L347 380Z" />
<glyph unicode="L" glyph-name="L" horiz-adv-x="553" d="M539 0H77V688H201V104H539V0Z" />
<glyph unicode="M" glyph-name="M" horiz-adv-x="894" d="M617 688H817V0H697V409Q697 458 701 540L703 587H700L518 0H375L194 587H191L193 540Q197 458 197 409V0H77V688H277L446 122L617 688Z" />
<glyph unicode="N" glyph-name="N" horiz-adv-x="766" d="M569 110V688H689V0H505L197 578V0H77V688H261L569 110Z" />
<glyph unicode="O" glyph-name="O" horiz-adv-x="754" d="M276 -12T200 35T82 164T40 344Q40 442 81 523T199 652T377 700Q478 700 554 653T672 524T714 344Q714 246 673 165T554 36T377 -12Q276 -12 200 35ZM443 88T490 121T563 212T588 344Q588 417 563 475T490
567T377 600Q311 600 264 567T191 476T166 344Q166 270 191 212T263 121T377 88Q443 88 490 121Z" />
<glyph unicode="P" glyph-name="P" horiz-adv-x="612" d="M357 688Q461 688 524 635T587 482Q587 373 525 319T350 265H200V0H77V688H357ZM333 369Q398 369 432 394T467 479Q467 539 430 561T328 584H200V369H333Z" />
<glyph unicode="Q" glyph-name="Q" horiz-adv-x="754" d="M722 -2L642 -82L542 29Q468 -12 377 -12Q276 -12 200 35T82 164T40 344Q40 442 81 523T199 652T377 700Q478 700 554 653T672 524T714 344Q714 271 690 206T622 92L722 -2ZM166 270T191 212T263 121T377
88Q443 88 490 121T563 212T588 344Q588 417 563 475T490 567T377 600Q311 600 264 567T191 476T166 344Q166 270 191 212Z" />
<glyph unicode="R" glyph-name="R" horiz-adv-x="641" d="M478 0L292 282H200V0H77V688H348Q455 688 517 636T580 488Q580 403 537 356T426 290L621 0H478ZM200 584V386H351Q403 386 431 413T460 485Q460 530 432 557T351 584H200Z" />
<glyph unicode="S" glyph-name="S" horiz-adv-x="650" d="M208 -12T125 46T29 233L155 251Q165 165 210 124T336 83Q407 83 450 113T494 196Q494 235 465 256T369 292L270 313Q164 336 110 379T55 503Q55 559 87 604T180 674T321 700Q438 700 511 645T595 491L468
473Q463 537 425 571T318 605Q255 605 216 578T177 510Q177 481 190 465T228 438T300 418L399 397Q513 373 565 329T617 205Q617 137 578 88T475 13T335 -12Q208 -12 125 46Z" />
<glyph unicode="T" glyph-name="T" horiz-adv-x="572" d="M349 0H225V584H14V688H558V584H349V0Z" />
<glyph unicode="U" glyph-name="U" horiz-adv-x="692" d="M213 -12T142 60T70 267V688H195V278Q195 189 231 142T346 94Q425 94 461 141T497 278V688H622V267Q622 133 551 61T346 -12Q213 -12 142 60Z" />
<glyph unicode="V" glyph-name="V" horiz-adv-x="659" d="M330 144L514 688H646L397 0H262L13 688H145L330 144Z" />
<glyph unicode="W" glyph-name="W" horiz-adv-x="954" d="M678 182L811 688H937L742 0H625L477 531L331 0H214L16 688H142L277 182L417 688H536L678 182Z" />
<glyph unicode="X" glyph-name="X" horiz-adv-x="650" d="M401 357L647 0H504L325 265L146 0H3L249 357L16 688H161L325 446L489 688H634L401 357Z" />
<glyph unicode="Y" glyph-name="Y" horiz-adv-x="648" d="M324 375L494 688H634L386 264V0H262V264L14 688H154L324 375Z" />
<glyph unicode="Z" glyph-name="Z" horiz-adv-x="598" d="M567 0H32V90L405 588H44V688H552V595L181 101H567V0Z" />
<glyph unicode="[" glyph-name="bracketleft" horiz-adv-x="338" d="M321 -146H64V688H321V597H177V-54H321V-146Z" />
<glyph unicode="\" glyph-name="backslash" horiz-adv-x="478" d="M458 0H347L18 688H129L458 0Z" />
<glyph unicode="]" glyph-name="bracketright" horiz-adv-x="338" d="M274 688V-146H17V-54H161V597H17V688H274Z" />
<glyph unicode="^" glyph-name="asciicircum" horiz-adv-x="620" d="M157 300H57L264 663H355L562 300H462L310 569H309L157 300Z" />
<glyph unicode="_" glyph-name="underscore" horiz-adv-x="618" d="M592 -154H26V-65H592V-154Z" />
<glyph unicode="`" glyph-name="grave" horiz-adv-x="600" d="M416 562H304L174 688H326L416 562Z" />
<glyph unicode="a" glyph-name="a" horiz-adv-x="523" d="M161 -12T122 5T58 57T34 136Q34 202 78 238T211 292L279 306Q315 313 331 325T348 364Q348 389 327 405T266 421Q220 421 192 395T161 324L44 334Q49 411 107 458T262 506Q360 506 413 464T466 334V0H353V49H352Q334
23 296 6T208 -12Q161 -12 122 5ZM289 71T320 99T351 174V238Q257 224 215 206Q186 194 171 178T155 138Q155 107 179 89T241 71Q289 71 320 99Z" />
<glyph unicode="b" glyph-name="b" horiz-adv-x="584" d="M278 -12T240 10T179 65V0H61V688H181V432Q204 463 242 484T332 506Q398 506 448 473T524 381T551 247Q551 172 525 113T448 21T332 -12Q278 -12 240 10ZM365 83T397 127T429 247Q429 322 397 366T306
411Q247 411 212 367T176 247Q176 171 211 127T306 83Q365 83 397 127Z" />
<glyph unicode="c" glyph-name="c" horiz-adv-x="532" d="M206 -12T150 20T63 110T32 246Q32 324 63 383T150 474T277 506Q370 506 428 458T508 331L386 302Q379 351 350 381T276 411Q220 411 187 367T154 247Q154 169 187 126T278 83Q323 83 351 111T388 192L510
163Q486 85 428 37T278 -12Q206 -12 150 20Z" />
<glyph unicode="d" glyph-name="d" horiz-adv-x="584" d="M186 -12T136 21T60 113T33 247Q33 322 59 381T136 473T252 506Q304 506 342 485T403 432V688H523V0H405V65Q383 33 345 11T252 -12Q186 -12 136 21ZM337 83T372 127T408 247Q408 323 373 367T278 411Q219
411 187 367T155 247Q155 172 187 128T278 83Q337 83 372 127Z" />
<glyph unicode="e" glyph-name="e" horiz-adv-x="537" d="M504 220H144Q147 156 181 118T272 80Q317 80 347 104T386 167L501 153Q482 83 425 36T271 -12Q199 -12 145 19T62 109T32 246Q32 322 63 381T149 473T272 506Q338 506 391 474T474 384T504 255V220ZM385
302Q382 350 352 383T271 416Q219 416 185 383T146 302H385Z" />
<glyph unicode="f" glyph-name="f" horiz-adv-x="331" d="M101 0V401H16V494H101V568Q101 630 136 665T245 700Q284 700 315 691V601Q289 603 279 603Q249 603 235 590T221 547V494H320V401H221V0H101Z" />
<glyph unicode="g" glyph-name="g" horiz-adv-x="576" d="M184 -197T123 -151T53 -24L175 -13Q190 -107 287 -107Q338 -107 367 -79T396 9V99Q372 66 334 46T246 26Q186 26 138 56T62 141T34 266Q34 336 62 390T138 475T246 506Q296 506 334 486T396 433V494H516V18Q516
-87 452 -142T282 -197Q184 -197 123 -151ZM332 118T365 159T399 266Q399 332 366 373T278 414Q222 414 189 372T156 266Q156 202 188 160T278 118Q332 118 365 159Z" />
<glyph unicode="h" glyph-name="h" horiz-adv-x="555" d="M61 0V688H181V434H182Q204 463 242 484T330 506Q377 506 415 485T475 424T498 326V0H378V281Q378 347 360 377T291 408Q245 408 213 370T181 276V0H61Z" />
<glyph unicode="i" glyph-name="i" horiz-adv-x="242" d="M181 558H61V688H181V558ZM181 0H61V494H181V0Z" />
<glyph unicode="j" glyph-name="j" horiz-adv-x="242" d="M181 558H61V688H181V558ZM-10 -197T-40 -188V-98Q-15 -103 -1 -103Q27 -103 44 -91T61 -45V494H181V-29Q181 -80 174 -109Q164 -148 126 -172T32 -197Q-10 -197 -40 -188Z" />
<glyph unicode="k" glyph-name="k" horiz-adv-x="538" d="M314 267L551 0H400L181 254V0H61V688H181V264L378 494H523L314 267Z" />
<glyph unicode="l" glyph-name="l" horiz-adv-x="242" d="M181 0H61V688H181V0Z" />
<glyph unicode="m" glyph-name="m" horiz-adv-x="847" d="M61 0V494H179V429L181 430Q200 461 235 483T319 506Q367 506 403 483T457 419Q488 456 526 481T622 506Q699 506 744 456T790 316V0H671V284Q671 344 653 376T587 408Q545 408 516 375T487 279V0H367V279Q367
344 350 376T284 408Q241 408 211 374T181 279V0H61Z" />
<glyph unicode="n" glyph-name="n" horiz-adv-x="555" d="M61 0V494H179V432H180Q203 463 242 484T330 506Q377 506 415 485T475 424T498 326V0H378V281Q378 347 360 377T291 408Q245 408 213 370T181 276V0H61Z" />
<glyph unicode="o" glyph-name="o" horiz-adv-x="552" d="M205 -12T150 20T63 112T32 247Q32 323 63 382T149 473T276 506Q347 506 402 474T489 382T520 247Q520 171 489 112T403 21T276 -12Q205 -12 150 20ZM336 83T367 128T398 247Q398 320 367 365T276 411Q216
411 185 366T154 247Q154 174 185 129T276 83Q336 83 367 128Z" />
<glyph unicode="p" glyph-name="p" horiz-adv-x="584" d="M61 -185V494H179V429Q201 461 239 483T332 506Q398 506 448 473T524 381T551 247Q551 172 525 113T448 21T332 -12Q280 -12 242 9T181 62V-185H61ZM365 83T397 127T429 247Q429 322 397 366T306 411Q247
411 212 367T176 247Q176 171 211 127T306 83Q365 83 397 127Z" />
<glyph unicode="q" glyph-name="q" horiz-adv-x="583" d="M403 62Q380 31 342 10T252 -12Q186 -12 136 21T60 113T33 247Q33 322 59 381T136 473T252 506Q306 506 344 484T405 429V494H523V-185H403V62ZM337 83T372 127T408 247Q408 323 373 367T278 411Q219 411
187 367T155 247Q155 172 187 128T278 83Q337 83 372 127Z" />
<glyph unicode="r" glyph-name="r" horiz-adv-x="354" d="M333 506T342 505V392Q332 393 321 393Q254 393 218 360T181 262V0H61V494H179V399Q192 446 228 476T318 506Q333 506 342 505Z" />
<glyph unicode="s" glyph-name="s" horiz-adv-x="499" d="M157 -12T95 34T23 164L137 181Q144 128 175 101T259 74Q302 74 327 92T352 142Q352 167 334 180T265 205L190 222Q117 238 79 269T41 357Q41 399 68 433T142 486T248 506Q332 506 387 466T452 357L338
337Q336 373 312 396T246 420Q207 420 184 404T161 362Q161 339 180 329T246 308L321 291Q399 274 435 243T472 152Q472 104 443 67T363 9T252 -12Q157 -12 95 34Z" />
<glyph unicode="t" glyph-name="t" horiz-adv-x="351" d="M137 -6T110 62Q100 87 100 136V401H12V494H100V650H220V494H320V401H220V146Q220 117 236 104T283 91Q303 91 325 94V2Q288 -6 246 -6Q137 -6 110 62Z" />
<glyph unicode="u" glyph-name="u" horiz-adv-x="551" d="M151 -12T104 37T56 178V494H176V213Q176 147 193 117T262 86Q308 86 339 124T370 218V494H490V0H372V62H371Q347 32 309 10T223 -12Q151 -12 104 37Z" />
<glyph unicode="v" glyph-name="v" horiz-adv-x="515" d="M314 0H201L11 494H137L257 145H258L378 494H504L314 0Z" />
<glyph unicode="w" glyph-name="w" horiz-adv-x="788" d="M286 0H159L12 494H134L225 133H227L331 494H457L561 133H562L654 494H776L629 0H502L395 378H394L286 0Z" />
<glyph unicode="x" glyph-name="x" horiz-adv-x="496" d="M133 0H0L181 252L10 494H143L248 330L353 494H486L315 252L496 0H363L248 170L133 0Z" />
<glyph unicode="y" glyph-name="y" horiz-adv-x="514" d="M378 494H504L294 -48Q263 -127 218 -159T96 -191Q74 -191 46 -187V-91Q74 -94 94 -94Q129 -94 148 -78T182 -28L198 8L11 494H137L258 142L378 494Z" />
<glyph unicode="z" glyph-name="z" horiz-adv-x="481" d="M450 0H32V98L302 402H39V494H442V396L173 93H450V0Z" />
<glyph unicode="{" glyph-name="braceleft" horiz-adv-x="322" d="M295 -136Q245 -131 208 -122T145 -90Q121 -68 111 -41T100 33V88Q100 134 94 160T68 203T5 232V313Q48 325 68 342T94 385T100 457V512Q100 558 110 585T145 635Q170 658 207 667T295 681L308
604Q272 598 252 590T220 562T209 506V417Q209 356 188 325T118 274V271Q167 252 188 221T209 128V39Q209 3 220 -16T251 -44T308 -59L295 -136Z" />
<glyph unicode="|" glyph-name="bar" horiz-adv-x="219" d="M155 -128H64V749H155V-128Z" />
<glyph unicode="}" glyph-name="braceright" horiz-adv-x="322" d="M27 681Q77 676 114 667T177 635Q201 613 211 586T222 512V457Q222 411 228 385T254 342T317 313V232Q274 220 254 203T228 160T222 88V33Q222 -13 212 -40T177 -90Q152 -113 115 -122T27 -136L14
-59Q50 -53 70 -45T102 -17T113 39V128Q113 189 134 220T204 271V274Q155 293 134 324T113 417V506Q113 542 102 561T71 589T14 604L27 681Z" />
<glyph unicode="~" glyph-name="asciitilde" horiz-adv-x="620" d="M376 270T355 278T308 301Q303 304 283 316T246 334T212 340Q187 340 171 329T138 290L84 343Q104 384 138 410T219 437Q244 437 265 429T312 406Q317 403 337 391T374 373T408 367Q433 367 449
378T482 417L536 364Q516 323 482 297T400 270Q376 270 355 278Z" />
</font>
</defs>
</svg>
