<?xml version="1.0" standalone="no"?> <!DOCTYPE svg PUBLIC "-//W3C//DTD SVG 1.0//EN" "http://www.w3.org/TR/2001/REC-SVG-20010904/DTD/svg10.dtd" > <svg xmlns="http://www.w3.org/2000/svg" width="100%" height="100%">
<defs >
<font horiz-adv-x="519" ><font-face
    font-family="Basel Grotesk TTF"
    units-per-em="1000"
    panose-1="2 11 6 3 2 2 2 2 2 4"
    ascent="944"
    descent="-256"
    alphabetic="0" />
<missing-glyph horiz-adv-x="902" d="M355 -12T274 35T144 164T96 342Q96 438 144 519T273 648T451 696Q547 696 628 649T758 520T806 342Q806 246 758 165T629 36T451 -12Q355 -12 274 35ZM532 42T601 82T711 191T752 342Q752 424 712 492T602 601T451 641Q370
641 301 601T192 493T151 342Q151 260 191 192T301 83T451 42Q532 42 601 82ZM384 96T328 129T239 218T206 342Q206 408 239 465T328 555T451 588Q518 588 574 555T663 466T696 342Q696 275 664 219T575 129T451 96Q384 96 328 129ZM503 151T546 177T615 246T641
342Q641 393 616 437T547 507T451 533Q399 533 356 507T287 437T261 342Q261 290 286 247T355 177T451 151Q503 151 546 177ZM414 206T383 224T334 274T316 342Q316 379 334 410T383 459T451 477Q488 477 519 459T569 410T587 342Q587 305 569 274T520 225T451
206Q414 206 383 224ZM485 261T508 285T532 342Q532 375 509 398T451 422Q417 422 394 399T371 342Q371 309 394 285T451 261Q485 261 508 285ZM437 310T428 319T418 342Q418 355 427 364T451 374Q464 374 474 365T484 342Q484 329 474 320T451 310Q437 310 428
319Z" />
<glyph unicode=" " glyph-name="space" horiz-adv-x="213" />
<glyph unicode="!" glyph-name="exclam" horiz-adv-x="255" d="M164 190H90L72 440V688H183V440L164 190ZM176 0H79V117H176V0Z" />
<glyph unicode="&quot;" glyph-name="quotedbl" horiz-adv-x="330" d="M123 432H67L46 622V688H144V622L123 432ZM263 432H207L186 622V688H284V622L263 432Z" />
<glyph unicode="#" glyph-name="numbersign" horiz-adv-x="716" d="M684 510L662 436H526L474 261H611L589 188H452L397 0H319L374 188H247L191 0H113L168 188H33L55 261H190L242 436H106L129 510H263L316 688H395L342 510H469L522 688H600L547 510H684ZM268 261H396L448
436H320L268 261Z" />
<glyph unicode="$" glyph-name="dollar" horiz-adv-x="620" d="M570 113T510 57T357 -10V-100H269V-9Q176 3 117 61T47 227L151 243Q158 171 188 129T269 74V320L262 322Q171 344 121 384T70 506Q70 582 124 635T269 698V783H357V696Q440 684 490 632T550 497L445
481Q441 531 418 564T357 612V395L376 390Q474 366 522 326T570 203Q570 113 510 57ZM173 471T196 451T269 416V617Q225 608 199 579T173 511Q173 471 196 451ZM357 71Q407 81 436 113T466 192Q466 237 441 260T357 298V71Z" />
<glyph unicode="%" glyph-name="percent" horiz-adv-x="831" d="M365 296T326 351T287 496Q287 586 326 640T440 695Q515 695 554 641T593 496Q593 405 554 351T440 296Q365 296 326 351ZM505 363T505 496Q505 628 440 628Q406 628 391 594T376 496Q376 431 391
397T440 363Q505 363 505 496ZM269 0H188L563 688H643L269 0ZM571 -7T532 48T493 193Q493 283 532 337T646 392Q721 392 760 338T799 193Q799 102 760 48T646 -7Q571 -7 532 48ZM711 60T711 193Q711 325 646 325Q612 325 597 291T582 193Q582 128 597 94T646 60Q711
60 711 193Z" />
<glyph unicode="&amp;" glyph-name="ampersand" horiz-adv-x="658" d="M612 78T627 81V2Q605 -2 571 -2Q503 -2 457 43Q381 -12 276 -12Q206 -12 152 15T68 91T37 203Q37 275 80 326T201 408Q176 445 163 477T150 546Q150 589 171 624T231 679T320 700Q398 700
440 659T482 556Q482 494 443 453T331 379L471 175Q515 258 515 395H607Q607 217 522 105Q538 89 555 84T596 78Q612 78 627 81ZM285 624T265 602T244 545Q244 518 255 494T289 439Q340 460 366 485T392 549Q392 582 374 603T320 624Q285 624 265 602ZM137 145T178
107T290 68Q360 68 411 104L243 346Q189 323 163 288T137 204Q137 145 178 107Z" />
<glyph unicode="&apos;" glyph-name="quotesingle" horiz-adv-x="190" d="M123 432H67L46 622V688H144V622L123 432Z" />
<glyph unicode="(" glyph-name="parenleft" horiz-adv-x="278" d="M177 -144Q112 -51 76 50T40 272Q40 393 76 494T177 688H260Q200 590 170 494T139 272Q139 147 169 51T260 -144H177Z" />
<glyph unicode=")" glyph-name="parenright" horiz-adv-x="278" d="M18 -144Q78 -45 108 51T139 272Q139 397 109 493T18 688H100Q166 595 202 494T238 272Q238 151 202 50T101 -144H18Z" />
<glyph unicode="*" glyph-name="asterisk" horiz-adv-x="393" d="M226 372H166L179 489L86 420L56 471L163 518L56 565L86 615L179 547L166 663H226L213 547L306 615L337 565L230 518L337 471L306 420L213 489L226 372Z" />
<glyph unicode="+" glyph-name="plus" horiz-adv-x="620" d="M356 113H264V303H68V384H264V574H356V384H552V303H356V113Z" />
<glyph unicode="," glyph-name="comma" horiz-adv-x="225" d="M121 -132H65L103 0H56V124H170V20L121 -132Z" />
<glyph unicode="-" glyph-name="hyphen" horiz-adv-x="397" d="M342 213H55V292H342V213Z" />
<glyph unicode="." glyph-name="period" horiz-adv-x="221" d="M167 0H53V124H167V0Z" />
<glyph unicode="/" glyph-name="slash" horiz-adv-x="466" d="M117 0H22L352 688H446L117 0Z" />
<glyph unicode="0" glyph-name="zero" horiz-adv-x="612" d="M220 -12T163 35T78 162T50 343Q50 502 114 600T304 699Q429 699 494 601T559 343Q559 185 494 87T304 -12Q220 -12 163 35ZM381 71T418 144T455 343Q455 469 418 542T304 616Q227 616 191 543T154
343Q154 218 190 145T304 71Q381 71 418 144Z" />
<glyph unicode="1" glyph-name="one" horiz-adv-x="375" d="M189 0V469H22V542H31Q118 542 159 573T205 681L206 688H289V0H189Z" />
<glyph unicode="2" glyph-name="two" horiz-adv-x="559" d="M49 0V85L125 135Q214 192 273 244T366 356T400 488Q400 549 369 582T279 616Q221 616 186 581T151 480Q151 454 154 434L53 447Q51 467 51 488Q51 552 80 600T162 673T280 699Q385 699 445 645T505
493Q505 376 434 288T240 121L183 85V84H505V0H49Z" />
<glyph unicode="3" glyph-name="three" horiz-adv-x="587" d="M181 -12T115 45T42 204L144 220Q148 148 187 110T292 71Q358 71 395 105T432 197Q432 251 396 283T288 316Q266 316 246 314T219 312V400Q251 398 286 398Q344 398 379 429T415 511Q415 558 383 587T295
616Q232 616 195 579T154 474L53 492Q57 587 124 643T296 699Q396 699 457 650T519 516Q519 455 487 419T407 364V362Q464 348 500 304T536 196Q536 134 505 87T419 14T290 -12Q181 -12 115 45Z" />
<glyph unicode="4" glyph-name="four" horiz-adv-x="595" d="M454 238H566V151H454V0H354V151H26V250L302 688H454V238ZM354 606L123 238H354V606Z" />
<glyph unicode="5" glyph-name="five" horiz-adv-x="571" d="M376 466T426 436T504 354T532 234Q532 164 500 108T411 20T284 -12Q183 -12 120 41T40 183L143 203Q154 142 190 107T286 71Q350 71 388 115T427 232Q427 300 392 341T294 383Q246 383 210 356T161
294L67 312L94 688H482V598H178L164 410H165Q188 434 225 450T309 466Q376 466 426 436Z" />
<glyph unicode="6" glyph-name="six" horiz-adv-x="591" d="M177 -12T114 81T51 329Q51 447 83 530T174 656T315 699Q406 699 461 651T530 524L432 505Q424 558 394 588T311 618Q228 618 189 544T149 349L150 348Q170 388 213 415T317 442Q384 442 435 413T513
334T540 219Q540 153 510 101T425 18T303 -12Q177 -12 114 81ZM364 71T401 110T439 217Q439 285 402 322T306 359Q247 359 208 319T168 218Q168 153 207 112T306 71Q364 71 401 110Z" />
<glyph unicode="7" glyph-name="seven" horiz-adv-x="541" d="M29 688H522V611Q333 288 271 0H162Q195 145 266 305T423 601H126V506H29V688Z" />
<glyph unicode="8" glyph-name="eight" horiz-adv-x="592" d="M224 -12T168 12T81 83T49 191Q49 262 86 305T176 367V368Q137 383 104 422T71 516Q71 571 100 612T181 677T296 700Q359 700 410 677T491 613T521 516Q521 460 488 422T415 368V367Q467 348 504 305T542
191Q542 129 511 83T424 13T296 -12Q224 -12 168 12ZM350 401T384 432T419 510Q419 556 385 587T296 618Q241 618 207 588T172 510Q172 463 207 432T296 401Q350 401 384 432ZM361 71T400 106T440 197Q440 252 401 286T296 321Q231 321 191 287T151 197Q151 141
191 106T296 71Q361 71 400 106Z" />
<glyph unicode="9" glyph-name="nine" horiz-adv-x="591" d="M186 -12T131 36T62 163L160 182Q168 129 198 99T281 69Q364 69 402 143T443 337L442 338Q421 299 378 272T275 245Q208 245 157 274T79 353T52 468Q52 534 82 586T166 669T289 699Q415 699 478 606T541
358Q541 240 509 157T418 31T277 -12Q186 -12 131 36ZM324 328T356 346T406 397T424 469Q424 533 385 574T286 616Q228 616 190 577T152 470Q152 402 189 365T286 328Q324 328 356 346Z" />
<glyph unicode=":" glyph-name="colon" horiz-adv-x="227" d="M170 0H56V124H170V0ZM170 370H56V494H170V370Z" />
<glyph unicode=";" glyph-name="semicolon" horiz-adv-x="228" d="M123 -132H67L105 0H58V124H172V20L123 -132ZM171 370H57V494H171V370Z" />
<glyph unicode="&lt;" glyph-name="less" horiz-adv-x="620" d="M86 393L525 596V500L168 344L525 186V92L86 295V393Z" />
<glyph unicode="=" glyph-name="equal" horiz-adv-x="620" d="M552 389H68V479H552V389ZM552 208H68V298H552V208Z" />
<glyph unicode="&gt;" glyph-name="greater" horiz-adv-x="620" d="M562 295L123 92V188L480 344L123 502V596L562 393V295Z" />
<glyph unicode="?" glyph-name="question" horiz-adv-x="503" d="M195 216Q198 269 219 306T290 389Q330 426 349 454T369 521Q369 565 339 591T254 617Q195 617 160 582T124 480V468L28 483Q28 585 90 642T255 700Q356 700 411 651T467 521Q467 480 452 448T416
392T356 333Q316 295 303 270T286 211L284 190H193L195 216ZM287 0H189V117H287V0Z" />
<glyph unicode="@" glyph-name="at" horiz-adv-x="894" d="M337 -152T243 -105T92 33T36 245Q36 363 90 458T240 608T455 663Q571 663 662 614T804 480T855 290Q855 215 830 158T760 70T656 38Q607 38 576 59T539 119Q475 38 385 38Q336 38 297 61T234 127T211
229Q211 297 240 353T318 441T426 474Q480 474 519 448T574 383L587 448H675L631 206Q630 197 628 183T625 160Q625 111 676 111Q720 111 750 158T780 288Q780 379 740 449T626 557T454 596Q351 596 273 550T153 424T111 244Q111 143 156 69T279 -45T455 -85Q569
-85 657 -40L691 -98Q581 -152 450 -152Q337 -152 243 -105ZM448 115T479 139T527 202T544 282Q544 335 516 366T441 397Q403 397 372 374T322 313T304 232Q304 176 333 146T408 115Q448 115 479 139Z" />
<glyph unicode="A" glyph-name="A" horiz-adv-x="689" d="M676 0H572L504 181H185L117 0H13L281 688H408L676 0ZM471 267L344 602L217 267H471Z" />
<glyph unicode="B" glyph-name="B" horiz-adv-x="641" d="M83 0V688H355Q457 688 515 643T573 511Q573 457 544 418T476 363V362Q521 351 557 310T594 199Q594 109 534 55T365 0H83ZM351 399Q409 399 440 425T471 505Q471 555 440 578T355 601H185V399H351ZM363
87Q427 87 459 117T492 203Q492 257 459 286T360 315H185V87H363Z" />
<glyph unicode="C" glyph-name="C" horiz-adv-x="717" d="M280 -12T204 33T87 159T45 344Q45 446 86 527T204 654T381 700Q464 700 527 669T630 587T685 476L580 451Q564 520 513 567T380 615Q310 615 258 581T178 485T150 344Q150 264 178 203T258 107T381 73Q465
73 516 119T585 242L690 217Q661 115 581 52T380 -12Q280 -12 204 33Z" />
<glyph unicode="D" glyph-name="D" horiz-adv-x="713" d="M83 0V688H333Q493 688 580 597T667 345Q667 241 628 164T515 43T339 0H83ZM338 88Q450 88 506 158T562 345Q562 472 502 536T318 600H185V88H338Z" />
<glyph unicode="E" glyph-name="E" horiz-adv-x="584" d="M185 317V88H539V0H83V688H525V600H185V404H505V317H185Z" />
<glyph unicode="F" glyph-name="F" horiz-adv-x="558" d="M524 688V600H185V401H510V314H185V0H83V688H524Z" />
<glyph unicode="G" glyph-name="G" horiz-adv-x="763" d="M277 -12T203 33T87 159T45 344Q45 448 87 529T207 655T385 700Q468 700 531 671T633 596T691 499L586 468Q568 530 517 572T384 615Q315 615 262 581T179 486T149 344Q149 263 178 202T260 107T383 73Q482
73 538 129T599 286H368V374H698V0H602V102H601Q573 53 515 21T371 -12Q277 -12 203 33Z" />
<glyph unicode="H" glyph-name="H" horiz-adv-x="722" d="M536 407V688H639V0H536V319H185V0H83V688H185V407H536Z" />
<glyph unicode="I" glyph-name="I" horiz-adv-x="268" d="M185 0H83V688H185V0Z" />
<glyph unicode="J" glyph-name="J" horiz-adv-x="540" d="M141 -12T81 41T17 196L120 210Q122 143 152 108T241 73Q298 73 329 106T360 200V688H462V197Q462 99 401 44T240 -12Q141 -12 81 41Z" />
<glyph unicode="K" glyph-name="K" horiz-adv-x="655" d="M309 378L671 0H536L185 367V0H83V688H185V373L493 688H623L309 378Z" />
<glyph unicode="L" glyph-name="L" horiz-adv-x="548" d="M533 0H83V688H185V88H533V0Z" />
<glyph unicode="M" glyph-name="M" horiz-adv-x="875" d="M623 688H791V0H692V444Q692 479 695 581Q696 589 696 602L694 603L495 0H379L181 603L179 602Q179 589 180 581Q183 479 183 444V0H83V688H251L437 106L623 688Z" />
<glyph unicode="N" glyph-name="N" horiz-adv-x="755" d="M572 92V688H672V0H518L183 598V0H83V688H238L572 92Z" />
<glyph unicode="O" glyph-name="O" horiz-adv-x="760" d="M280 -12T204 34T86 162T44 344Q44 444 85 525T203 653T380 700Q480 700 556 654T674 526T716 344Q716 244 675 163T557 35T380 -12Q280 -12 204 34ZM451 73T503 108T583 206T611 344Q611 420 583 482T503
579T380 615Q310 615 258 580T177 482T149 344Q149 268 177 206T257 109T380 73Q451 73 503 108Z" />
<glyph unicode="P" glyph-name="P" horiz-adv-x="600" d="M339 688Q447 688 509 637T572 485Q572 376 509 324T334 272H185V0H83V688H339ZM328 360Q399 360 435 390T471 482Q471 545 433 572T322 600H185V360H328Z" />
<glyph unicode="Q" glyph-name="Q" horiz-adv-x="760" d="M716 266T691 199T617 83L716 -9L647 -78L548 30Q473 -12 380 -12Q280 -12 204 34T86 162T44 344Q44 444 85 525T203 653T380 700Q480 700 556 654T674 526T716 344Q716 266 691 199ZM149 268T177 206T257
109T380 73Q451 73 503 108T583 206T611 344Q611 420 583 482T503 579T380 615Q310 615 258 580T177 482T149 344Q149 268 177 206Z" />
<glyph unicode="R" glyph-name="R" horiz-adv-x="635" d="M495 0L303 294H185V0H83V688H350Q452 688 512 638T572 492Q572 412 529 365T413 301L614 0H495ZM185 600V381H345Q405 381 438 410T471 490Q471 542 441 571T350 600H185Z" />
<glyph unicode="S" glyph-name="S" horiz-adv-x="642" d="M207 -12T127 47T33 227L138 243Q148 155 198 112T331 68Q406 68 453 102T501 192Q501 238 471 261T367 300L268 322Q167 344 113 386T59 506Q59 561 91 605T183 675T317 700Q430 700 500 646T582 497L477
481Q469 547 427 583T314 620Q245 620 204 589T162 511Q162 467 192 447T293 411L392 390Q498 367 551 326T605 203Q605 136 567 88T465 14T329 -12Q207 -12 127 47Z" />
<glyph unicode="T" glyph-name="T" horiz-adv-x="555" d="M329 0H227V600H15V688H540V600H329V0Z" />
<glyph unicode="U" glyph-name="U" horiz-adv-x="685" d="M215 -12T146 59T76 261V688H179V269Q179 177 219 127T342 76Q428 76 467 126T506 269V688H608V261Q608 129 539 59T342 -12Q215 -12 146 59Z" />
<glyph unicode="V" glyph-name="V" horiz-adv-x="648" d="M324 125L523 688H632L379 0H269L16 688H125L324 125Z" />
<glyph unicode="W" glyph-name="W" horiz-adv-x="945" d="M674 148L818 688H924L730 0H627L473 556L319 0H216L21 688H126L271 146L421 688H524L674 148Z" />
<glyph unicode="X" glyph-name="X" horiz-adv-x="630" d="M378 357L625 0H506L315 280L124 0H5L252 356L21 688H141L315 432L488 688H608L378 357Z" />
<glyph unicode="Y" glyph-name="Y" horiz-adv-x="635" d="M317 361L499 688H617L368 267V0H267V267L18 688H135L317 361Z" />
<glyph unicode="Z" glyph-name="Z" horiz-adv-x="583" d="M549 0H33V76L412 602H46V688H538V610L160 86H549V0Z" />
<glyph unicode="[" glyph-name="bracketleft" horiz-adv-x="328" d="M307 -145H75V688H307V610H170V-66H307V-145Z" />
<glyph unicode="\" glyph-name="backslash" horiz-adv-x="466" d="M444 0H349L20 688H114L444 0Z" />
<glyph unicode="]" glyph-name="bracketright" horiz-adv-x="328" d="M253 688V-145H21V-66H158V610H21V688H253Z" />
<glyph unicode="^" glyph-name="asciicircum" horiz-adv-x="620" d="M146 300H62L269 663H350L557 300H473L310 587H309L146 300Z" />
<glyph unicode="_" glyph-name="underscore" horiz-adv-x="623" d="M595 -154H29V-79H595V-154Z" />
<glyph unicode="`" glyph-name="grave" horiz-adv-x="451" d="M332 562H236L113 688H242L332 562Z" />
<glyph unicode="a" glyph-name="a" horiz-adv-x="518" d="M166 -12T127 5T65 56T41 134Q41 199 83 235T210 288L280 302Q321 311 338 323T355 365Q355 395 331 413T263 432Q214 432 184 404T150 327L50 336Q55 414 112 460T261 506Q353 506 403 463T454 339V0H360V55H359Q340
26 302 7T211 -12Q166 -12 127 5ZM290 60T324 93T359 182V247Q291 236 251 226T189 202Q142 178 142 136Q142 102 168 81T236 60Q290 60 324 93Z" />
<glyph unicode="b" glyph-name="b" horiz-adv-x="586" d="M268 -12T228 13T165 75V0H68V688H166V421Q189 456 229 481T327 506Q393 506 443 474T521 382T549 247Q549 171 522 112T444 21T327 -12Q268 -12 228 13ZM375 68T411 117T448 247Q448 327 412 376T307
426Q240 426 201 376T162 247Q162 168 201 118T307 68Q375 68 411 117Z" />
<glyph unicode="c" glyph-name="c" horiz-adv-x="531" d="M207 -12T152 20T67 112T37 247Q37 323 67 382T152 473T278 506Q367 506 424 460T502 337L401 312Q391 363 360 394T277 426Q215 426 177 379T138 248Q138 162 176 115T279 68Q329 68 361 97T405 182L505
157Q481 81 425 35T279 -12Q207 -12 152 20Z" />
<glyph unicode="d" glyph-name="d" horiz-adv-x="586" d="M193 -12T143 21T65 112T37 247Q37 323 65 381T143 473T259 506Q317 506 358 481T421 421V688H518V0H421V75Q399 39 359 14T259 -12Q193 -12 143 21ZM346 68T385 118T424 247Q424 326 385 376T279 426Q211
426 175 377T138 247Q138 167 174 118T279 68Q346 68 385 118Z" />
<glyph unicode="e" glyph-name="e" horiz-adv-x="535" d="M498 225H133Q136 149 174 108T271 67Q321 67 352 92T396 164L495 151Q475 82 420 35T270 -12Q202 -12 150 18T67 107T37 246Q37 324 68 383T153 474T273 506Q337 506 388 475T469 386T498 257V225ZM396
299Q393 353 359 390T273 428Q217 428 179 392T135 299H396Z" />
<glyph unicode="f" glyph-name="f" horiz-adv-x="315" d="M105 0V414H16V494H105V579Q105 639 139 669T235 700Q263 700 297 694V616Q276 619 261 619Q232 619 218 607T203 565V494H302V414H203V0H105Z" />
<glyph unicode="g" glyph-name="g" horiz-adv-x="566" d="M183 -197T124 -152T56 -28L157 -16Q170 -121 280 -121Q336 -121 369 -89T402 7V104Q379 69 341 47T250 24Q190 24 142 54T67 138T39 265Q39 337 66 391T142 476T250 506Q303 506 341 484T402 426V494H500V9Q500
-93 438 -145T276 -197Q183 -197 124 -152ZM332 103T368 149T404 265Q404 334 369 380T272 427Q210 427 175 382T140 265Q140 193 175 148T272 103Q332 103 368 149Z" />
<glyph unicode="h" glyph-name="h" horiz-adv-x="557" d="M68 0V688H166V427H167Q190 462 229 484T321 506Q400 506 446 458T493 325V0H396V280Q396 354 375 388T294 423Q237 423 202 381T166 278V0H68Z" />
<glyph unicode="i" glyph-name="i" horiz-adv-x="233" d="M166 569H68V688H166V569ZM166 0H68V494H166V0Z" />
<glyph unicode="j" glyph-name="j" horiz-adv-x="233" d="M166 569H68V688H166V569ZM-4 -197T-29 -190V-113Q-12 -117 9 -117Q37 -117 52 -105T68 -58V494H166V-56Q166 -96 158 -121Q148 -156 115 -176T32 -197Q-4 -197 -29 -190Z" />
<glyph unicode="k" glyph-name="k" d="M281 266L530 0H402L166 256V0H68V688H166V264L378 494H502L281 266Z" />
<glyph unicode="l" glyph-name="l" horiz-adv-x="233" d="M166 0H68V688H166V0Z" />
<glyph unicode="m" glyph-name="m" horiz-adv-x="847" d="M68 0V494H165V425H166Q185 458 222 482T310 506Q364 506 400 481T454 413Q517 506 616 506Q697 506 740 456T784 320V0H686V283Q686 354 666 388T591 423Q541 423 508 383T475 277V0H378V281Q378 354
359 388T283 423Q233 423 200 383T166 277V0H68Z" />
<glyph unicode="n" glyph-name="n" horiz-adv-x="557" d="M68 0V494H165V426H166Q189 460 229 483T321 506Q400 506 446 458T493 325V0H396V280Q396 354 375 388T294 423Q237 423 202 381T166 278V0H68Z" />
<glyph unicode="o" glyph-name="o" horiz-adv-x="555" d="M205 -12T150 22T66 115T36 247Q36 320 65 379T150 472T278 506Q351 506 405 472T489 379T519 247Q519 174 490 115T406 22T278 -12Q205 -12 150 22ZM347 68T382 118T418 247Q418 325 383 375T278 426Q209
426 173 376T137 247Q137 169 173 119T278 68Q347 68 382 118Z" />
<glyph unicode="p" glyph-name="p" horiz-adv-x="586" d="M68 -185V494H165V419Q187 455 227 480T327 506Q393 506 443 474T521 382T549 247Q549 171 522 112T444 21T327 -12Q269 -12 229 13T166 73V-185H68ZM375 68T411 117T448 247Q448 327 412 376T307 426Q240
426 201 376T162 247Q162 168 201 118T307 68Q375 68 411 117Z" />
<glyph unicode="q" glyph-name="q" horiz-adv-x="585" d="M421 73Q399 38 358 13T259 -12Q193 -12 143 21T65 112T37 247Q37 323 65 381T143 473T259 506Q318 506 358 481T421 419V494H518V-185H421V73ZM346 68T385 118T424 247Q424 326 385 376T279 426Q211 426
175 377T138 247Q138 167 174 118T279 68Q346 68 385 118Z" />
<glyph unicode="r" glyph-name="r" horiz-adv-x="347" d="M319 506T335 504V411Q326 412 307 412Q241 412 204 375T166 267V0H68V494H164V405Q180 448 217 477T308 506Q319 506 335 504Z" />
<glyph unicode="s" glyph-name="s" horiz-adv-x="493" d="M155 -12T95 33T27 163L124 178Q129 121 164 92T253 63Q303 63 332 83T362 140Q362 170 339 184T259 212L185 229Q119 244 83 275T47 361Q47 402 73 435T144 487T246 506Q328 506 382 467T445 358L348
341Q343 383 316 407T243 431Q199 431 173 413T147 365Q147 339 167 327T234 303L308 286Q387 268 424 238T461 149Q461 101 433 65T357 8T249 -12Q155 -12 95 33Z" />
<glyph unicode="t" glyph-name="t" horiz-adv-x="335" d="M132 -5T109 67Q103 86 103 123V414H14V494H103V650H200V494H301V414H200V133Q200 103 215 90T261 77Q282 77 306 80V2Q270 -5 232 -5Q132 -5 109 67Z" />
<glyph unicode="u" glyph-name="u" horiz-adv-x="549" d="M153 -12T108 36T62 173V494H160V210Q160 139 181 105T259 71Q313 71 348 113T384 215V494H481V0H385V68H384Q359 33 320 11T232 -12Q153 -12 108 36Z" />
<glyph unicode="v" glyph-name="v" horiz-adv-x="505" d="M301 0H205L15 494H121L252 117H253L385 494H490L301 0Z" />
<glyph unicode="w" glyph-name="w" horiz-adv-x="780" d="M273 0H170L16 494H119L223 114H224L338 494H442L557 114H558L663 494H764L610 0H507L391 390H390L273 0Z" />
<glyph unicode="x" glyph-name="x" horiz-adv-x="486" d="M118 0H6L188 253L12 494H123L243 320L363 494H474L298 253L480 0H368L243 184L118 0Z" />
<glyph unicode="y" glyph-name="y" horiz-adv-x="505" d="M383 494H490L278 -59Q250 -130 207 -160T96 -191Q76 -191 48 -187V-104Q78 -108 92 -108Q128 -108 149 -92T186 -39L203 4L15 494H122L253 115L383 494Z" />
<glyph unicode="z" glyph-name="z" horiz-adv-x="472" d="M440 0H33V83L317 415H42V494H432V413L147 79H440V0Z" />
<glyph unicode="{" glyph-name="braceleft" horiz-adv-x="327" d="M299 -136Q253 -133 215 -124T152 -91Q130 -69 121 -41T111 28V89Q111 135 105 161T78 204T14 235V310Q57 323 77 340T104 384T111 456V517Q111 558 120 586T152 636Q178 660 215 669T299 681L309
614Q253 607 228 585T203 509V411Q203 354 181 324T101 274V271Q159 251 181 221T203 134V36Q203 -18 228 -40T309 -69L299 -136Z" />
<glyph unicode="|" glyph-name="bar" horiz-adv-x="229" d="M153 -128H75V749H153V-128Z" />
<glyph unicode="}" glyph-name="braceright" horiz-adv-x="327" d="M29 681Q75 678 112 669T175 636Q197 614 207 586T217 517V456Q217 410 223 384T250 341T313 310V235Q270 222 250 205T224 161T217 89V28Q217 -12 207 -41T175 -91Q149 -115 112 -124T29 -136L19
-69Q75 -62 99 -40T124 36V134Q124 191 146 221T226 271V274Q168 294 146 324T124 411V509Q124 563 100 585T19 614L29 681Z" />
<glyph unicode="~" glyph-name="asciitilde" horiz-adv-x="620" d="M375 279T354 287T308 310Q303 313 284 324T247 341T215 347Q188 347 172 333T140 289L89 337Q106 377 140 402T217 428Q244 428 265 420T312 397Q317 394 336 383T373 366T405 360Q432 360 449
374T480 418L531 370Q514 330 480 305T402 279Q375 279 354 287Z" />
</font>
</defs>
</svg>
