<?xml version="1.0" standalone="no"?>
<!DOCTYPE svg PUBLIC "-//W3C//DTD SVG 1.1//EN" "http://www.w3.org/Graphics/SVG/1.1/DTD/svg11.dtd" >
<svg xmlns="http://www.w3.org/2000/svg" xmlns:xlink="http://www.w3.org/1999/xlink" version="1.1">
<metadata>
Created by FontForge 20201107 at Mon Feb  1 17:07:28 2021
 By Jimmy Wärting
(c)2021, Copyright by Optimo SARL. All rights reserved.
</metadata>
<defs>
<font id="BaselGroteskTTF-Book" horiz-adv-x="620" >
  <font-face 
    font-family="Basel Grotesk TTF Book"
    font-weight="485"
    font-stretch="normal"
    units-per-em="1000"
    panose-1="2 11 6 3 2 2 2 2 2 4"
    ascent="800"
    descent="-200"
    x-height="494"
    cap-height="688"
    bbox="-134 -253 1138 1026"
    underline-thickness="84"
    underline-position="-180"
    unicode-range="U+000D-FB02"
  />
<missing-glyph horiz-adv-x="902" 
d="M273.5 35.5q-81.5 47.5 -129.5 129t-48 177.5t48 177.5t129.5 129t177.5 47.5t177.5 -47.5t129.5 -129t48 -177.5t-48 -177.5t-129.5 -129t-177.5 -47.5t-177.5 47.5zM601.5 82.5q69.5 40.5 110 109t40.5 150.5t-40.5 150.5t-110 108.5t-150.5 40t-150 -40t-109.5 -108.5
t-40.5 -150.5t40.5 -150.5t109.5 -109t150 -40.5t150.5 40.5zM328 129q-56 33 -89 89.5t-33 123.5q0 66 33 123t89 90t123 33t123.5 -33t89 -89.5t32.5 -123.5t-32.5 -123.5t-89 -89.5t-123.5 -33t-123 33zM546.5 177q43.5 26 69 69.5t25.5 95.5q0 51 -25.5 95t-69 70
t-95.5 26t-95.5 -26t-69 -70t-25.5 -95q0 -52 25.5 -95.5t69 -69.5t95.5 -26t95.5 26zM383 224.5q-31 18.5 -49 49.5t-18 68t18 68t49 49t68 18t68.5 -18t49.5 -49t18 -68t-18 -68t-49.5 -49.5t-68.5 -18.5t-68 18.5zM508.5 285q23.5 24 23.5 57t-23.5 56.5t-57.5 23.5
t-57 -23.5t-23 -56.5t23.5 -57t56.5 -24q34 0 57.5 24zM427.5 319.5q-9.5 9.5 -9.5 22.5t9.5 22.5t23.5 9.5q13 0 23 -9.5t10 -22.5t-10 -22.5t-23 -9.5q-14 0 -23.5 9.5z" />
    <glyph glyph-name="fi" unicode="fi" horiz-adv-x="557" 
d="M105 0v414h-89v80h89v85q0 60 34 90.5t96 30.5q28 0 62 -6v-78q-21 3 -36 3q-29 0 -43.5 -12.5t-14.5 -41.5v-71h99v-80h-99v-414h-98zM490 569h-98v119h98v-119zM490 0h-98v494h98v-494z" />
    <glyph glyph-name="fl" unicode="fl" horiz-adv-x="557" 
d="M105 0v414h-89v80h89v85q0 60 34 90.5t96 30.5q28 0 62 -6v-78q-21 3 -36 3q-29 0 -43.5 -12.5t-14.5 -41.5v-71h99v-80h-99v-414h-98zM490 0h-98v688h98v-688z" />
    <glyph glyph-name=".notdef" horiz-adv-x="902" 
d="M273.5 35.5q-81.5 47.5 -129.5 129t-48 177.5t48 177.5t129.5 129t177.5 47.5t177.5 -47.5t129.5 -129t48 -177.5t-48 -177.5t-129.5 -129t-177.5 -47.5t-177.5 47.5zM601.5 82.5q69.5 40.5 110 109t40.5 150.5t-40.5 150.5t-110 108.5t-150.5 40t-150 -40t-109.5 -108.5
t-40.5 -150.5t40.5 -150.5t109.5 -109t150 -40.5t150.5 40.5zM328 129q-56 33 -89 89.5t-33 123.5q0 66 33 123t89 90t123 33t123.5 -33t89 -89.5t32.5 -123.5t-32.5 -123.5t-89 -89.5t-123.5 -33t-123 33zM546.5 177q43.5 26 69 69.5t25.5 95.5q0 51 -25.5 95t-69 70
t-95.5 26t-95.5 -26t-69 -70t-25.5 -95q0 -52 25.5 -95.5t69 -69.5t95.5 -26t95.5 26zM383 224.5q-31 18.5 -49 49.5t-18 68t18 68t49 49t68 18t68.5 -18t49.5 -49t18 -68t-18 -68t-49.5 -49.5t-68.5 -18.5t-68 18.5zM508.5 285q23.5 24 23.5 57t-23.5 56.5t-57.5 23.5
t-57 -23.5t-23 -56.5t23.5 -57t56.5 -24q34 0 57.5 24zM427.5 319.5q-9.5 9.5 -9.5 22.5t9.5 22.5t23.5 9.5q13 0 23 -9.5t10 -22.5t-10 -22.5t-23 -9.5q-14 0 -23.5 9.5z" />
    <glyph glyph-name=".null" horiz-adv-x="0" 
 />
    <glyph glyph-name="nonmarkingreturn" unicode="&#xd;" horiz-adv-x="213" 
 />
    <glyph glyph-name="space" unicode=" " horiz-adv-x="213" 
 />
    <glyph glyph-name="A" unicode="A" horiz-adv-x="689" 
d="M676 0h-104l-68 181h-319l-68 -181h-104l268 688h127zM471 267l-127 335l-127 -335h254z" />
    <glyph glyph-name="Aacute" unicode="&#xc1;" horiz-adv-x="689" 
d="M676 0h-104l-68 181h-319l-68 -181h-104l268 688h127zM471 267l-127 335l-127 -335h254zM384 756h-96l90 126h128z" />
    <glyph glyph-name="Abreve" unicode="&#x102;" horiz-adv-x="689" 
d="M676 0h-104l-68 181h-319l-68 -181h-104l268 688h127zM471 267l-127 335l-127 -335h254zM249.5 783.5q-36.5 32.5 -43.5 90.5h70q12 -61 69 -61q29 0 46 16.5t22 44.5h70q-7 -58 -43.5 -90.5t-94.5 -32.5q-59 0 -95.5 32.5z" />
    <glyph glyph-name="uni1EAE" unicode="&#x1eae;" horiz-adv-x="689" 
d="M370 998h100l-95 -110h-75zM249.5 783.5q-36.5 32.5 -43.5 90.5h70q6 -28 23 -44.5t46 -16.5q58 0 68 61h70q-7 -58 -43.5 -90.5t-94.5 -32.5q-59 0 -95.5 32.5zM676 0h-104l-68 181h-319l-68 -181h-104l268 688h127zM471 267l-127 335l-127 -335h254z" />
    <glyph glyph-name="uni1EB6" unicode="&#x1eb6;" horiz-adv-x="689" 
d="M676 0h-104l-68 181h-319l-68 -181h-104l268 688h127zM471 267l-127 335l-127 -335h254zM394 -194h-98v119h98v-119zM253.5 783.5q-36.5 32.5 -43.5 90.5h70q12 -61 69 -61q29 0 46 16.5t22 44.5h70q-7 -58 -43.5 -90.5t-94.5 -32.5q-59 0 -95.5 32.5z" />
    <glyph glyph-name="uni1EB0" unicode="&#x1eb0;" horiz-adv-x="689" 
d="M319 998l70 -110h-75l-95 110h100zM249.5 783.5q-36.5 32.5 -43.5 90.5h70q6 -28 23 -44.5t46 -16.5q58 0 68 61h70q-7 -58 -43.5 -90.5t-94.5 -32.5q-59 0 -95.5 32.5zM676 0h-104l-68 181h-319l-68 -181h-104l268 688h127zM471 267l-127 335l-127 -335h254z" />
    <glyph glyph-name="uni1EB2" unicode="&#x1eb2;" horiz-adv-x="689" 
d="M318 958q-27 0 -53 -11v46q12 6 29.5 10.5t35.5 4.5q37 0 62 -17.5t25 -52.5q0 -54 -76 -79l-18 33q33 18 33 41q0 25 -38 25zM249.5 783.5q-36.5 32.5 -43.5 90.5h70q6 -28 23 -44.5t46 -16.5q58 0 68 61h70q-7 -58 -43.5 -90.5t-94.5 -32.5q-59 0 -95.5 32.5zM676 0
h-104l-68 181h-319l-68 -181h-104l268 688h127zM471 267l-127 335l-127 -335h254z" />
    <glyph glyph-name="uni1EB4" unicode="&#x1eb4;" horiz-adv-x="689" 
d="M258 906l-50 17q10 38 31.5 60t54.5 22q19 0 33.5 -6.5t32.5 -18.5q14 -9 22.5 -13t17.5 -4q27 0 36 42l50 -17q-24 -82 -87 -82q-18 0 -31.5 6t-33.5 18q-14 9 -22.5 13t-17.5 4q-28 0 -36 -41zM249.5 783.5q-36.5 32.5 -43.5 90.5h70q6 -28 23 -44.5t46 -16.5
q58 0 68 61h70q-7 -58 -43.5 -90.5t-94.5 -32.5q-59 0 -95.5 32.5zM676 0h-104l-68 181h-319l-68 -181h-104l268 688h127zM471 267l-127 335l-127 -335h254z" />
    <glyph glyph-name="Acircumflex" unicode="&#xc2;" horiz-adv-x="689" 
d="M676 0h-104l-68 181h-319l-68 -181h-104l268 688h127zM471 267l-127 335l-127 -335h254zM405 882l96 -125h-85l-72 83l-71 -83h-85l95 125h122z" />
    <glyph glyph-name="uni1EA4" unicode="&#x1ea4;" horiz-adv-x="689" 
d="M542 964h100l-95 -111h-75zM416 757l-71 82l-71 -82h-86l96 125h121l96 -125h-85zM676 0h-104l-68 181h-319l-68 -181h-104l268 688h127zM471 267l-127 335l-127 -335h254z" />
    <glyph glyph-name="uni1EAC" unicode="&#x1eac;" horiz-adv-x="689" 
d="M676 0h-104l-68 181h-319l-68 -181h-104l268 688h127zM471 267l-127 335l-127 -335h254zM394 -194h-98v119h98v-119zM416 882l96 -125h-85l-72 83l-71 -83h-85l95 125h122z" />
    <glyph glyph-name="uni1EA6" unicode="&#x1ea6;" horiz-adv-x="689" 
d="M491 964l70 -111h-74l-95 111h99zM416 757l-71 82l-71 -82h-86l96 125h121l96 -125h-85zM676 0h-104l-68 181h-319l-68 -181h-104l268 688h127zM471 267l-127 335l-127 -335h254z" />
    <glyph glyph-name="uni1EA8" unicode="&#x1ea8;" horiz-adv-x="689" 
d="M468 924q-26 0 -50 -10v44q11 6 27.5 9.5t33.5 3.5q35 0 58 -16t23 -49q0 -51 -70 -74l-18 31q31 16 31 38q0 23 -35 23zM416 757l-71 82l-71 -82h-86l96 125h121l96 -125h-85zM676 0h-104l-68 181h-319l-68 -181h-104l268 688h127zM471 267l-127 335l-127 -335h254z" />
    <glyph glyph-name="uni1EAA" unicode="&#x1eaa;" horiz-adv-x="689" 
d="M257 912l-50 17q10 38 31.5 60t54.5 22q19 0 33.5 -6.5t32.5 -18.5q14 -9 22.5 -13t17.5 -4q27 0 36 42l50 -18q-22 -81 -87 -81q-18 0 -31.5 6t-33.5 18q-14 9 -22.5 13t-17.5 4q-28 0 -36 -41zM416 757l-71 82l-71 -82h-86l96 125h121l96 -125h-85zM676 0h-104l-68 181
h-319l-68 -181h-104l268 688h127zM471 267l-127 335l-127 -335h254z" />
    <glyph glyph-name="Adieresis" unicode="&#xc4;" horiz-adv-x="689" 
d="M676 0h-104l-68 181h-319l-68 -181h-104l268 688h127zM471 267l-127 335l-127 -335h254zM297 763h-98v119h98v-119zM491 763h-98v119h98v-119z" />
    <glyph glyph-name="uni0226" unicode="&#x226;" horiz-adv-x="689" 
d="M676 0h-104l-68 181h-319l-68 -181h-104l268 688h127zM471 267l-127 335l-127 -335h254zM394 763h-98v119h98v-119z" />
    <glyph glyph-name="uni1EA0" unicode="&#x1ea0;" horiz-adv-x="689" 
d="M676 0h-104l-68 181h-319l-68 -181h-104l268 688h127zM471 267l-127 335l-127 -335h254zM394 -194h-98v119h98v-119z" />
    <glyph glyph-name="Agrave" unicode="&#xc0;" horiz-adv-x="689" 
d="M676 0h-104l-68 181h-319l-68 -181h-104l268 688h127zM471 267l-127 335l-127 -335h254zM402 756h-96l-123 126h129z" />
    <glyph glyph-name="uni1EA2" unicode="&#x1ea2;" horiz-adv-x="689" 
d="M316 849q-31 0 -66 -13v58q16 8 37.5 13t43.5 5q47 0 78 -22t31 -65q0 -68 -94 -99l-24 41q42 22 42 51q0 31 -48 31zM676 0h-104l-68 181h-319l-68 -181h-104l268 688h127zM471 267l-127 335l-127 -335h254z" />
    <glyph glyph-name="Amacron" unicode="&#x100;" horiz-adv-x="689" 
d="M676 0h-104l-68 181h-319l-68 -181h-104l268 688h127zM471 267l-127 335l-127 -335h254zM496 773h-302v78h302v-78z" />
    <glyph glyph-name="Aogonek" unicode="&#x104;" horiz-adv-x="689" 
d="M680 -214q-33 -12 -70 -12q-46 0 -79.5 26t-33.5 75q0 38 22 70t59 55h-6l-68 181h-319l-68 -181h-104l268 688h127l268 -688q-85 -53 -85 -107q0 -22 13 -31.5t32 -9.5q12 0 26 3zM471 267l-127 335l-127 -335h254z" />
    <glyph glyph-name="Aring" unicode="&#xc5;" horiz-adv-x="689" 
d="M676 0h-104l-68 181h-319l-68 -181h-104l268 688h127zM471 267l-127 335l-127 -335h254zM281 764.5q-26 25.5 -26 63.5q0 37 26 62t64 25q37 0 63.5 -25t26.5 -62q0 -38 -26.5 -63.5t-63.5 -25.5q-38 0 -64 25.5zM370.5 802q10.5 10 10.5 26q0 15 -10.5 25.5t-25.5 10.5
q-16 0 -26 -10.5t-10 -25.5q0 -16 10 -26t26 -10q15 0 25.5 10z" />
    <glyph glyph-name="Aringacute" unicode="&#x1fa;" horiz-adv-x="689" 
d="M382 1026h116l-110 -113h-87zM281.5 746.5q-26.5 25.5 -26.5 62.5t26.5 62.5t63.5 25.5t63.5 -25.5t26.5 -62.5t-26.5 -62.5t-63.5 -25.5t-63.5 25.5zM319 835.5q-10 -10.5 -10 -26.5q0 -15 10 -25.5t26 -10.5q15 0 25.5 10.5t10.5 25.5q0 16 -10.5 26.5t-25.5 10.5
q-16 0 -26 -10.5zM676 0h-104l-68 181h-319l-68 -181h-104l268 688h127zM471 267l-127 335l-127 -335h254z" />
    <glyph glyph-name="Atilde" unicode="&#xc3;" horiz-adv-x="689" 
d="M676 0h-104l-68 181h-319l-68 -181h-104l268 688h127zM471 267l-127 335l-127 -335h254zM371 763.5q-18 8.5 -41 23.5q-16 11 -26.5 16.5t-22.5 5.5q-35 0 -45 -53l-63 22q13 48 39.5 75.5t68.5 27.5q23 0 40.5 -8t41.5 -23q16 -11 27 -16.5t22 -5.5q35 0 45 52l63 -21
q-28 -104 -108 -104q-23 0 -41 8.5z" />
    <glyph glyph-name="AE" unicode="&#xc6;" horiz-adv-x="901" 
d="M539 317v-229h315v-88h-417v181h-244l-104 -181h-108l398 688h468v-88h-308v-196h281v-87h-281zM437 605l-194 -338h194v338z" />
    <glyph glyph-name="AEacute" unicode="&#x1fc;" horiz-adv-x="901" 
d="M539 317v-229h315v-88h-417v181h-244l-104 -181h-108l398 688h468v-88h-308v-196h281v-87h-281zM437 605l-194 -338h194v338zM513 756h-96l90 126h128z" />
    <glyph glyph-name="uni01E2" unicode="&#x1e2;" horiz-adv-x="901" 
d="M539 317v-229h315v-88h-417v181h-244l-104 -181h-108l398 688h468v-88h-308v-196h281v-87h-281zM437 605l-194 -338h194v338zM625 773h-302v78h302v-78z" />
    <glyph glyph-name="B" unicode="B" horiz-adv-x="641" 
d="M83 0v688h272q102 0 160 -45t58 -132q0 -54 -29 -93.5t-68 -54.5v-1q45 -11 81.5 -52t36.5 -111q0 -90 -60 -144.5t-169 -54.5h-282zM351 399q58 0 89 26t31 80q0 50 -31 73t-85 23h-170v-202h166zM363 87q64 0 96.5 30t32.5 86q0 54 -33.5 83t-98.5 29h-175v-228h178z
" />
    <glyph glyph-name="C" unicode="C" horiz-adv-x="717" 
d="M204 33q-76 45 -117.5 126t-41.5 185q0 102 41.5 183t118 127t176.5 46q83 0 146.5 -31.5t103 -82t54.5 -110.5l-105 -25q-16 69 -67 116.5t-133 47.5q-70 0 -122 -34.5t-80 -96t-28 -140.5q0 -80 28 -141.5t80 -95.5t123 -34q84 0 135 46t69 123l105 -25
q-29 -102 -109 -165.5t-201 -63.5q-100 0 -176 45z" />
    <glyph glyph-name="Cacute" unicode="&#x106;" horiz-adv-x="717" 
d="M204 33q-76 45 -117.5 126t-41.5 185q0 102 41.5 183t118 127t176.5 46q83 0 146.5 -31.5t103 -82t54.5 -110.5l-105 -25q-16 69 -67 116.5t-133 47.5q-70 0 -122 -34.5t-80 -96t-28 -140.5q0 -80 28 -141.5t80 -95.5t123 -34q84 0 135 46t69 123l105 -25
q-29 -102 -109 -165.5t-201 -63.5q-100 0 -176 45zM421 756h-96l90 126h128z" />
    <glyph glyph-name="Ccaron" unicode="&#x10c;" horiz-adv-x="717" 
d="M204 33q-76 45 -117.5 126t-41.5 185q0 102 41.5 183t118 127t176.5 46q83 0 146.5 -31.5t103 -82t54.5 -110.5l-105 -25q-16 69 -67 116.5t-133 47.5q-70 0 -122 -34.5t-80 -96t-28 -140.5q0 -80 28 -141.5t80 -95.5t123 -34q84 0 135 46t69 123l105 -25
q-29 -102 -109 -165.5t-201 -63.5q-100 0 -176 45zM382 799l72 83h85l-96 -125h-122l-95 125h85z" />
    <glyph glyph-name="Ccedilla" unicode="&#xc7;" horiz-adv-x="717" 
d="M690 217q-27 -95 -99.5 -157.5t-182.5 -70.5l-8 -24q32 -5 54.5 -24t22.5 -52q0 -48 -41.5 -71.5t-103.5 -23.5h-12v57h5q31 0 52 9.5t21 28.5q0 29 -48 29h-29l25 71q-90 8 -158.5 55t-105.5 124.5t-37 175.5q0 102 41.5 183t118 127t176.5 46q83 0 146.5 -31.5t103 -82
t54.5 -110.5l-105 -25q-16 69 -67 116.5t-133 47.5q-70 0 -122 -34.5t-80 -96t-28 -140.5q0 -80 28 -141.5t80 -95.5t123 -34q84 0 135 46t69 123z" />
    <glyph glyph-name="Ccircumflex" unicode="&#x108;" horiz-adv-x="717" 
d="M204 33q-76 45 -117.5 126t-41.5 185q0 102 41.5 183t118 127t176.5 46q83 0 146.5 -31.5t103 -82t54.5 -110.5l-105 -25q-16 69 -67 116.5t-133 47.5q-70 0 -122 -34.5t-80 -96t-28 -140.5q0 -80 28 -141.5t80 -95.5t123 -34q84 0 135 46t69 123l105 -25
q-29 -102 -109 -165.5t-201 -63.5q-100 0 -176 45zM443 882l96 -125h-85l-72 83l-71 -83h-85l95 125h122z" />
    <glyph glyph-name="Cdotaccent" unicode="&#x10a;" horiz-adv-x="717" 
d="M204 33q-76 45 -117.5 126t-41.5 185q0 102 41.5 183t118 127t176.5 46q83 0 146.5 -31.5t103 -82t54.5 -110.5l-105 -25q-16 69 -67 116.5t-133 47.5q-70 0 -122 -34.5t-80 -96t-28 -140.5q0 -80 28 -141.5t80 -95.5t123 -34q84 0 135 46t69 123l105 -25
q-29 -102 -109 -165.5t-201 -63.5q-100 0 -176 45zM431 763h-98v119h98v-119z" />
    <glyph glyph-name="D" unicode="D" horiz-adv-x="713" 
d="M83 0v688h250q160 0 247 -91.5t87 -251.5q0 -104 -39 -181.5t-113 -120.5t-176 -43h-256zM338 88q112 0 168 70t56 187q0 127 -60 191t-184 64h-133v-512h153z" />
    <glyph glyph-name="Eth" unicode="&#xd0;" horiz-adv-x="732" 
d="M352 688q160 0 246.5 -91.5t86.5 -251.5q0 -104 -39 -181.5t-113 -120.5t-176 -43h-255v301h-85v85h85v302h250zM357 88q112 0 168 70t56 187q0 127 -60 191t-185 64h-133v-214h179v-85h-179v-213h154z" />
    <glyph glyph-name="Dcaron" unicode="&#x10e;" horiz-adv-x="713" 
d="M83 0v688h250q160 0 247 -91.5t87 -251.5q0 -104 -39 -181.5t-113 -120.5t-176 -43h-256zM338 88q112 0 168 70t56 187q0 127 -60 191t-184 64h-133v-512h153zM339 799l72 83h85l-96 -125h-122l-95 125h85z" />
    <glyph glyph-name="Dcroat" unicode="&#x110;" horiz-adv-x="732" 
d="M352 688q160 0 246.5 -91.5t86.5 -251.5q0 -104 -39 -181.5t-113 -120.5t-176 -43h-255v301h-85v85h85v302h250zM357 88q112 0 168 70t56 187q0 127 -60 191t-185 64h-133v-214h179v-85h-179v-213h154z" />
    <glyph glyph-name="E" unicode="E" horiz-adv-x="584" 
d="M185 317v-229h354v-88h-456v688h442v-88h-340v-196h320v-87h-320z" />
    <glyph glyph-name="Eacute" unicode="&#xc9;" horiz-adv-x="584" 
d="M185 317v-229h354v-88h-456v688h442v-88h-340v-196h320v-87h-320zM349 756h-96l90 126h128z" />
    <glyph glyph-name="Ebreve" unicode="&#x114;" horiz-adv-x="584" 
d="M185 317v-229h354v-88h-456v688h442v-88h-340v-196h320v-87h-320zM214.5 783.5q-36.5 32.5 -43.5 90.5h70q12 -61 69 -61q29 0 46 16.5t22 44.5h70q-7 -58 -43.5 -90.5t-94.5 -32.5q-59 0 -95.5 32.5z" />
    <glyph glyph-name="Ecaron" unicode="&#x11a;" horiz-adv-x="584" 
d="M185 317v-229h354v-88h-456v688h442v-88h-340v-196h320v-87h-320zM310 799l72 83h85l-96 -125h-122l-95 125h85z" />
    <glyph glyph-name="Ecircumflex" unicode="&#xca;" horiz-adv-x="584" 
d="M185 317v-229h354v-88h-456v688h442v-88h-340v-196h320v-87h-320zM371 882l96 -125h-85l-72 83l-71 -83h-85l95 125h122z" />
    <glyph glyph-name="uni1EBE" unicode="&#x1ebe;" horiz-adv-x="584" 
d="M507 964h100l-95 -111h-75zM381 757l-71 82l-71 -82h-85l95 125h121l96 -125h-85zM505 317h-320v-229h354v-88h-456v688h442v-88h-340v-196h320v-87z" />
    <glyph glyph-name="uni1EC6" unicode="&#x1ec6;" horiz-adv-x="584" 
d="M185 317v-229h354v-88h-456v688h442v-88h-340v-196h320v-87h-320zM374 -194h-98v119h98v-119zM371 882l96 -125h-85l-72 83l-71 -83h-85l95 125h122z" />
    <glyph glyph-name="uni1EC0" unicode="&#x1ec0;" horiz-adv-x="584" 
d="M456 964l70 -111h-74l-95 111h99zM381 757l-71 82l-71 -82h-85l95 125h121l96 -125h-85zM185 317v-229h354v-88h-456v688h442v-88h-340v-196h320v-87h-320z" />
    <glyph glyph-name="uni1EC2" unicode="&#x1ec2;" horiz-adv-x="584" 
d="M433 924q-26 0 -50 -10v44q11 6 27.5 9.5t33.5 3.5q35 0 58.5 -16.5t23.5 -48.5q0 -51 -71 -74l-18 31q31 16 31 38q0 23 -35 23zM381 757l-71 82l-71 -82h-85l95 125h121l96 -125h-85zM185 317v-229h354v-88h-456v688h442v-88h-340v-196h320v-87h-320z" />
    <glyph glyph-name="uni1EC4" unicode="&#x1ec4;" horiz-adv-x="584" 
d="M222 912l-50 17q22 82 87 82q18 0 32.5 -6.5t32.5 -18.5q14 -9 22.5 -13t17.5 -4q27 0 36 42l50 -18q-22 -81 -87 -81q-18 0 -31.5 6t-33.5 18q-14 9 -22.5 13t-17.5 4q-28 0 -36 -41zM381 757l-71 82l-71 -82h-85l95 125h121l96 -125h-85zM185 317v-229h354v-88h-456
v688h442v-88h-340v-196h320v-87h-320z" />
    <glyph glyph-name="Edieresis" unicode="&#xcb;" horiz-adv-x="584" 
d="M185 317v-229h354v-88h-456v688h442v-88h-340v-196h320v-87h-320zM262 763h-98v119h98v-119zM456 763h-98v119h98v-119z" />
    <glyph glyph-name="Edotaccent" unicode="&#x116;" horiz-adv-x="584" 
d="M185 317v-229h354v-88h-456v688h442v-88h-340v-196h320v-87h-320zM359 763h-98v119h98v-119z" />
    <glyph glyph-name="uni1EB8" unicode="&#x1eb8;" horiz-adv-x="584" 
d="M185 317v-229h354v-88h-456v688h442v-88h-340v-196h320v-87h-320zM374 -194h-98v119h98v-119z" />
    <glyph glyph-name="Egrave" unicode="&#xc8;" horiz-adv-x="584" 
d="M185 317v-229h354v-88h-456v688h442v-88h-340v-196h320v-87h-320zM367 756h-96l-123 126h129z" />
    <glyph glyph-name="uni1EBA" unicode="&#x1eba;" horiz-adv-x="584" 
d="M282 849q-32 0 -67 -13v58q16 8 37.5 13t43.5 5q47 0 78 -22t31 -65q0 -68 -94 -99l-24 41q42 22 42 51q0 31 -47 31zM185 317v-229h354v-88h-456v688h442v-88h-340v-196h320v-87h-320z" />
    <glyph glyph-name="Emacron" unicode="&#x112;" horiz-adv-x="584" 
d="M185 317v-229h354v-88h-456v688h442v-88h-340v-196h320v-87h-320zM461 773h-302v78h302v-78z" />
    <glyph glyph-name="Eogonek" unicode="&#x118;" horiz-adv-x="584" 
d="M543 -214q-33 -12 -70 -12q-46 0 -79.5 26t-33.5 75q0 38 22 70t59 55h-358v688h442v-88h-340v-196h320v-87h-320v-229h354v-88q-85 -54 -85 -107q0 -22 13 -31.5t32 -9.5q12 0 26 3z" />
    <glyph glyph-name="uni1EBC" unicode="&#x1ebc;" horiz-adv-x="584" 
d="M185 317v-229h354v-88h-456v688h442v-88h-340v-196h320v-87h-320zM337 763.5q-18 8.5 -41 23.5q-16 11 -26.5 16.5t-22.5 5.5q-35 0 -45 -53l-63 22q13 48 39.5 75.5t68.5 27.5q23 0 40.5 -8t41.5 -23q16 -11 27 -16.5t22 -5.5q35 0 45 52l63 -21q-28 -104 -108 -104
q-23 0 -41 8.5z" />
    <glyph glyph-name="F" unicode="F" horiz-adv-x="558" 
d="M524 688v-88h-339v-199h325v-87h-325v-314h-102v688h441z" />
    <glyph glyph-name="G" unicode="G" horiz-adv-x="763" 
d="M202.5 33q-74.5 45 -116 126t-41.5 185t42.5 185t119.5 126t178 45q83 0 146 -29t102.5 -75t57.5 -97l-105 -31q-18 62 -69.5 104.5t-132.5 42.5q-69 0 -122.5 -34t-83 -95.5t-29.5 -141.5q0 -81 29 -142.5t82 -95t123 -33.5q99 0 155.5 56.5t60.5 156.5h-231v88h330
v-374h-96v102h-1q-28 -49 -86.5 -81.5t-143.5 -32.5q-94 0 -168.5 45z" />
    <glyph glyph-name="Gbreve" unicode="&#x11e;" horiz-adv-x="763" 
d="M202.5 33q-74.5 45 -116 126t-41.5 185t42.5 185t119.5 126t178 45q83 0 146 -29t102.5 -75t57.5 -97l-105 -31q-18 62 -69.5 104.5t-132.5 42.5q-69 0 -122.5 -34t-83 -95.5t-29.5 -141.5q0 -81 29 -142.5t82 -95t123 -33.5q99 0 155.5 56.5t60.5 156.5h-231v88h330
v-374h-96v102h-1q-28 -49 -86.5 -81.5t-143.5 -32.5q-94 0 -168.5 45zM293.5 783.5q-36.5 32.5 -43.5 90.5h70q12 -61 69 -61q29 0 46 16.5t22 44.5h70q-7 -58 -43.5 -90.5t-94.5 -32.5q-59 0 -95.5 32.5z" />
    <glyph glyph-name="Gcircumflex" unicode="&#x11c;" horiz-adv-x="763" 
d="M202.5 33q-74.5 45 -116 126t-41.5 185t42.5 185t119.5 126t178 45q83 0 146 -29t102.5 -75t57.5 -97l-105 -31q-18 62 -69.5 104.5t-132.5 42.5q-69 0 -122.5 -34t-83 -95.5t-29.5 -141.5q0 -81 29 -142.5t82 -95t123 -33.5q99 0 155.5 56.5t60.5 156.5h-231v88h330
v-374h-96v102h-1q-28 -49 -86.5 -81.5t-143.5 -32.5q-94 0 -168.5 45zM449 882l96 -125h-85l-72 83l-71 -83h-85l95 125h122z" />
    <glyph glyph-name="uni0122" unicode="&#x122;" horiz-adv-x="763" 
d="M202.5 33q-74.5 45 -116 126t-41.5 185t42.5 185t119.5 126t178 45q83 0 146 -29t102.5 -75t57.5 -97l-105 -31q-18 62 -69.5 104.5t-132.5 42.5q-69 0 -122.5 -34t-83 -95.5t-29.5 -141.5q0 -81 29 -142.5t82 -95t123 -33.5q99 0 155.5 56.5t60.5 156.5h-231v88h330
v-374h-96v102h-1q-28 -49 -86.5 -81.5t-143.5 -32.5q-94 0 -168.5 45zM407 -253h-44l30 106h-38v99h91v-83z" />
    <glyph glyph-name="Gdotaccent" unicode="&#x120;" horiz-adv-x="763" 
d="M202.5 33q-74.5 45 -116 126t-41.5 185t42.5 185t119.5 126t178 45q83 0 146 -29t102.5 -75t57.5 -97l-105 -31q-18 62 -69.5 104.5t-132.5 42.5q-69 0 -122.5 -34t-83 -95.5t-29.5 -141.5q0 -81 29 -142.5t82 -95t123 -33.5q99 0 155.5 56.5t60.5 156.5h-231v88h330
v-374h-96v102h-1q-28 -49 -86.5 -81.5t-143.5 -32.5q-94 0 -168.5 45zM438 763h-98v119h98v-119z" />
    <glyph glyph-name="H" unicode="H" horiz-adv-x="722" 
d="M536 407v281h103v-688h-103v319h-351v-319h-102v688h102v-281h351z" />
    <glyph glyph-name="Hbar" unicode="&#x126;" horiz-adv-x="747" 
d="M652 569h68v-80h-68v-489h-102v319h-351v-319h-102v489h-71v80h71v119h102v-119h351v119h102v-119zM199 407h351v82h-351v-82z" />
    <glyph glyph-name="Hcircumflex" unicode="&#x124;" horiz-adv-x="722" 
d="M536 407v281h103v-688h-103v319h-351v-319h-102v688h102v-281h351zM422 882l96 -125h-85l-72 83l-71 -83h-85l95 125h122z" />
    <glyph glyph-name="I" unicode="I" horiz-adv-x="268" 
d="M185 0h-102v688h102v-688z" />
    <glyph glyph-name="IJ" unicode="&#x132;" horiz-adv-x="806" 
d="M185 0h-102v688h102v-688zM346.5 41.5q-60.5 53.5 -63.5 154.5l103 14q2 -67 32 -102t89 -35q57 0 88 33t31 94v488h102v-491q0 -98 -61.5 -153.5t-160.5 -55.5t-159.5 53.5z" />
    <glyph glyph-name="Iacute" unicode="&#xcd;" horiz-adv-x="268" 
d="M185 0h-102v688h102v-688zM173 756h-96l90 126h128z" />
    <glyph glyph-name="Ibreve" unicode="&#x12c;" horiz-adv-x="268" 
d="M185 0h-102v688h102v-688zM39.5 783.5q-36.5 32.5 -43.5 90.5h70q12 -61 69 -61q29 0 46 16.5t22 44.5h70q-7 -58 -43.5 -90.5t-94.5 -32.5q-59 0 -95.5 32.5z" />
    <glyph glyph-name="Icircumflex" unicode="&#xce;" horiz-adv-x="268" 
d="M185 0h-102v688h102v-688zM195 882l96 -125h-85l-72 83l-71 -83h-85l95 125h122z" />
    <glyph glyph-name="Idieresis" unicode="&#xcf;" horiz-adv-x="268" 
d="M185 0h-102v688h102v-688zM86 763h-98v119h98v-119zM280 763h-98v119h98v-119z" />
    <glyph glyph-name="Idotaccent" unicode="&#x130;" horiz-adv-x="268" 
d="M183 763h-98v119h98v-119zM185 0h-102v688h102v-688z" />
    <glyph glyph-name="uni1ECA" unicode="&#x1eca;" horiz-adv-x="268" 
d="M185 0h-102v688h102v-688zM183 -194h-98v119h98v-119z" />
    <glyph glyph-name="Igrave" unicode="&#xcc;" horiz-adv-x="268" 
d="M185 0h-102v688h102v-688zM191 756h-96l-123 126h129z" />
    <glyph glyph-name="uni1EC8" unicode="&#x1ec8;" horiz-adv-x="268" 
d="M112 767q41 23 41 51q0 31 -47 31q-33 0 -66 -13v58q15 7 36.5 12.5t43.5 5.5q47 0 78 -22t31 -65q0 -68 -94 -99zM185 0h-102v688h102v-688z" />
    <glyph glyph-name="Imacron" unicode="&#x12a;" horiz-adv-x="268" 
d="M185 0h-102v688h102v-688zM285 773h-302v78h302v-78z" />
    <glyph glyph-name="Iogonek" unicode="&#x12e;" horiz-adv-x="268" 
d="M189 -214q-33 -12 -70 -12q-46 0 -79.5 26t-33.5 75q0 38 22 70t59 55h-4v688h102v-688q-85 -54 -85 -107q0 -22 13 -31.5t32 -9.5q13 0 26 3z" />
    <glyph glyph-name="Itilde" unicode="&#x128;" horiz-adv-x="268" 
d="M185 0h-102v688h102v-688zM161 763.5q-18 8.5 -41 23.5q-16 11 -26.5 16.5t-22.5 5.5q-35 0 -45 -53l-63 22q13 48 39.5 75.5t68.5 27.5q23 0 40.5 -8t41.5 -23q16 -11 27 -16.5t22 -5.5q35 0 45 52l63 -21q-28 -104 -108 -104q-23 0 -41 8.5z" />
    <glyph glyph-name="J" unicode="J" horiz-adv-x="540" 
d="M80.5 41.5q-60.5 53.5 -63.5 154.5l103 14q2 -67 32 -102t89 -35q57 0 88 33t31 94v488h102v-491q0 -98 -61.5 -153.5t-160.5 -55.5t-159.5 53.5z" />
    <glyph glyph-name="Jcircumflex" unicode="&#x134;" horiz-adv-x="540" 
d="M80.5 41.5q-60.5 53.5 -63.5 154.5l103 14q2 -67 32 -102t89 -35q57 0 88 33t31 94v488h102v-491q0 -98 -61.5 -153.5t-160.5 -55.5t-159.5 53.5zM472 882l96 -125h-85l-72 83l-71 -83h-85l95 125h122z" />
    <glyph glyph-name="K" unicode="K" horiz-adv-x="655" 
d="M309 378l362 -378h-135l-351 367v-367h-102v688h102v-315l308 315h130z" />
    <glyph glyph-name="uni0136" unicode="&#x136;" horiz-adv-x="655" 
d="M623 688l-314 -310l362 -378h-135l-351 367v-367h-102v688h102v-315l308 315h130zM330 -147h-38v99h91v-83l-39 -122h-45z" />
    <glyph glyph-name="L" unicode="L" horiz-adv-x="548" 
d="M533 0h-450v688h102v-600h348v-88z" />
    <glyph glyph-name="Lacute" unicode="&#x139;" horiz-adv-x="548" 
d="M533 0h-450v688h102v-600h348v-88zM173 756h-96l90 126h128z" />
    <glyph glyph-name="Lcaron" unicode="&#x13d;" horiz-adv-x="550" 
d="M533 0h-450v688h102v-600h348v-88zM404 535h-60l30 153h88z" />
    <glyph glyph-name="uni013B" unicode="&#x13b;" horiz-adv-x="548" 
d="M533 0h-450v688h102v-600h348v-88zM319 -253h-45l31 106h-38v99h91v-83z" />
    <glyph glyph-name="Ldot" unicode="&#x13f;" horiz-adv-x="551" 
d="M533 0h-450v688h102v-600h348v-88zM468 287h-114v124h114v-124z" />
    <glyph glyph-name="Lslash" unicode="&#x141;" horiz-adv-x="588" 
d="M226 300v-212h348v-88h-450v241l-86 -49v99l86 49v348h102v-289l197 113v-99z" />
    <glyph glyph-name="M" unicode="M" horiz-adv-x="875" 
d="M623 688h168v-688h-99v444q0 35 3 137q1 8 1 21l-2 1l-199 -603h-116l-198 603l-2 -1q0 -13 1 -21q3 -102 3 -137v-444h-100v688h168l186 -582z" />
    <glyph glyph-name="N" unicode="N" horiz-adv-x="755" 
d="M572 92v596h100v-688h-154l-335 598v-598h-100v688h155z" />
    <glyph glyph-name="Nacute" unicode="&#x143;" horiz-adv-x="755" 
d="M572 92v596h100v-688h-154l-335 598v-598h-100v688h155zM416 756h-96l90 126h128z" />
    <glyph glyph-name="Ncaron" unicode="&#x147;" horiz-adv-x="755" 
d="M572 92v596h100v-688h-154l-335 598v-598h-100v688h155zM377 799l72 83h85l-96 -125h-122l-95 125h85z" />
    <glyph glyph-name="uni0145" unicode="&#x145;" horiz-adv-x="755" 
d="M572 92v596h100v-688h-154l-335 598v-598h-100v688h155zM370 -147h-38v99h91v-83l-39 -122h-45z" />
    <glyph glyph-name="Eng" unicode="&#x14a;" horiz-adv-x="755" 
d="M378 -186v86q33 -12 74 -12q51 0 80.5 26.5t36.5 77.5l1 8l-387 602v-602h-100v688h155l334 -519v519h100v-675q0 -67 -29 -114.5t-79 -71.5t-114 -24q-36 0 -72 11z" />
    <glyph glyph-name="Ntilde" unicode="&#xd1;" horiz-adv-x="755" 
d="M572 92v596h100v-688h-154l-335 598v-598h-100v688h155zM404 763.5q-18 8.5 -41 23.5q-16 11 -26.5 16.5t-22.5 5.5q-35 0 -45 -53l-63 22q13 48 39.5 75.5t68.5 27.5q23 0 40.5 -8t41.5 -23q16 -11 27 -16.5t22 -5.5q35 0 45 52l63 -21q-28 -104 -108 -104
q-23 0 -41 8.5z" />
    <glyph glyph-name="O" unicode="O" horiz-adv-x="760" 
d="M203.5 34.5q-76.5 46.5 -118 128t-41.5 181.5t41.5 181.5t118 128t176.5 46.5t176.5 -46.5t118 -128t41.5 -181.5t-41.5 -181.5t-118 -128t-176.5 -46.5t-176.5 46.5zM503 108.5q52 35.5 80 97.5t28 138t-28 138t-80.5 97.5t-122.5 35.5t-122.5 -35.5t-80.5 -97.5
t-28 -138t28 -138t80.5 -97.5t122.5 -35.5q71 0 123 35.5z" />
    <glyph glyph-name="Oacute" unicode="&#xd3;" horiz-adv-x="760" 
d="M203.5 34.5q-76.5 46.5 -118 128t-41.5 181.5t41.5 181.5t118 128t176.5 46.5t176.5 -46.5t118 -128t41.5 -181.5t-41.5 -181.5t-118 -128t-176.5 -46.5t-176.5 46.5zM503 108.5q52 35.5 80 97.5t28 138t-28 138t-80.5 97.5t-122.5 35.5t-122.5 -35.5t-80.5 -97.5
t-28 -138t28 -138t80.5 -97.5t122.5 -35.5q71 0 123 35.5zM419 756h-96l90 126h128z" />
    <glyph glyph-name="Obreve" unicode="&#x14e;" horiz-adv-x="760" 
d="M203.5 34.5q-76.5 46.5 -118 128t-41.5 181.5t41.5 181.5t118 128t176.5 46.5t176.5 -46.5t118 -128t41.5 -181.5t-41.5 -181.5t-118 -128t-176.5 -46.5t-176.5 46.5zM503 108.5q52 35.5 80 97.5t28 138t-28 138t-80.5 97.5t-122.5 35.5t-122.5 -35.5t-80.5 -97.5
t-28 -138t28 -138t80.5 -97.5t122.5 -35.5q71 0 123 35.5zM285.5 783.5q-36.5 32.5 -43.5 90.5h70q12 -61 69 -61q29 0 46 16.5t22 44.5h70q-7 -58 -43.5 -90.5t-94.5 -32.5q-59 0 -95.5 32.5z" />
    <glyph glyph-name="Ocircumflex" unicode="&#xd4;" horiz-adv-x="760" 
d="M203.5 34.5q-76.5 46.5 -118 128t-41.5 181.5t41.5 181.5t118 128t176.5 46.5t176.5 -46.5t118 -128t41.5 -181.5t-41.5 -181.5t-118 -128t-176.5 -46.5t-176.5 46.5zM503 108.5q52 35.5 80 97.5t28 138t-28 138t-80.5 97.5t-122.5 35.5t-122.5 -35.5t-80.5 -97.5
t-28 -138t28 -138t80.5 -97.5t122.5 -35.5q71 0 123 35.5zM441 882l96 -125h-85l-72 83l-71 -83h-85l95 125h122z" />
    <glyph glyph-name="uni1ED0" unicode="&#x1ed0;" horiz-adv-x="760" 
d="M578 964h100l-96 -111h-74zM451 757l-71 82l-71 -82h-85l95 125h122l96 -125h-86zM556.5 653.5q76.5 -46.5 118 -128t41.5 -181.5t-41.5 -181.5t-118 -128t-176.5 -46.5t-176.5 46.5t-118 128t-41.5 181.5t41.5 181.5t118 128t176.5 46.5t176.5 -46.5zM503 108.5
q52 35.5 80 97.5t28 138t-28 138t-80.5 97.5t-122.5 35.5t-122.5 -35.5t-80.5 -97.5t-28 -138t28 -138t80.5 -97.5t122.5 -35.5q71 0 123 35.5z" />
    <glyph glyph-name="uni1ED8" unicode="&#x1ed8;" horiz-adv-x="760" 
d="M203.5 34.5q-76.5 46.5 -118 128t-41.5 181.5t41.5 181.5t118 128t176.5 46.5t176.5 -46.5t118 -128t41.5 -181.5t-41.5 -181.5t-118 -128t-176.5 -46.5t-176.5 46.5zM503 108.5q52 35.5 80 97.5t28 138t-28 138t-80.5 97.5t-122.5 35.5t-122.5 -35.5t-80.5 -97.5
t-28 -138t28 -138t80.5 -97.5t122.5 -35.5q71 0 123 35.5zM429 -194h-98v119h98v-119zM441 882l96 -125h-85l-72 83l-71 -83h-85l95 125h122z" />
    <glyph glyph-name="uni1ED2" unicode="&#x1ed2;" horiz-adv-x="760" 
d="M527 964l70 -111h-75l-95 111h100zM451 757l-71 82l-71 -82h-85l95 125h122l96 -125h-86zM556.5 653.5q76.5 -46.5 118 -128t41.5 -181.5t-41.5 -181.5t-118 -128t-176.5 -46.5t-176.5 46.5t-118 128t-41.5 181.5t41.5 181.5t118 128t176.5 46.5t176.5 -46.5zM503 108.5
q52 35.5 80 97.5t28 138t-28 138t-80.5 97.5t-122.5 35.5t-122.5 -35.5t-80.5 -97.5t-28 -138t28 -138t80.5 -97.5t122.5 -35.5q71 0 123 35.5z" />
    <glyph glyph-name="uni1ED4" unicode="&#x1ed4;" horiz-adv-x="760" 
d="M503 924q-12 0 -26 -3t-23 -7v44q10 5 26.5 9t33.5 4q36 0 59 -16t23 -49q0 -52 -71 -74l-18 31q32 15 32 38t-36 23zM451 757l-71 82l-71 -82h-85l95 125h122l96 -125h-86zM556.5 653.5q76.5 -46.5 118 -128t41.5 -181.5t-41.5 -181.5t-118 -128t-176.5 -46.5
t-176.5 46.5t-118 128t-41.5 181.5t41.5 181.5t118 128t176.5 46.5t176.5 -46.5zM503 108.5q52 35.5 80 97.5t28 138t-28 138t-80.5 97.5t-122.5 35.5t-122.5 -35.5t-80.5 -97.5t-28 -138t28 -138t80.5 -97.5t122.5 -35.5q71 0 123 35.5z" />
    <glyph glyph-name="uni1ED6" unicode="&#x1ed6;" horiz-adv-x="760" 
d="M292 912l-49 17q22 82 86 82q18 0 32.5 -6.5t32.5 -18.5q14 -9 22.5 -13t17.5 -4q27 0 36 42l50 -18q-22 -81 -86 -81q-19 0 -33 6t-32 18q-14 9 -22.5 13t-17.5 4q-27 0 -37 -41zM451 757l-71 82l-71 -82h-85l95 125h122l96 -125h-86zM556.5 653.5q76.5 -46.5 118 -128
t41.5 -181.5t-41.5 -181.5t-118 -128t-176.5 -46.5t-176.5 46.5t-118 128t-41.5 181.5t41.5 181.5t118 128t176.5 46.5t176.5 -46.5zM503 108.5q52 35.5 80 97.5t28 138t-28 138t-80.5 97.5t-122.5 35.5t-122.5 -35.5t-80.5 -97.5t-28 -138t28 -138t80.5 -97.5t122.5 -35.5
q71 0 123 35.5z" />
    <glyph glyph-name="Odieresis" unicode="&#xd6;" horiz-adv-x="760" 
d="M203.5 34.5q-76.5 46.5 -118 128t-41.5 181.5t41.5 181.5t118 128t176.5 46.5t176.5 -46.5t118 -128t41.5 -181.5t-41.5 -181.5t-118 -128t-176.5 -46.5t-176.5 46.5zM503 108.5q52 35.5 80 97.5t28 138t-28 138t-80.5 97.5t-122.5 35.5t-122.5 -35.5t-80.5 -97.5
t-28 -138t28 -138t80.5 -97.5t122.5 -35.5q71 0 123 35.5zM332 763h-98v119h98v-119zM526 763h-98v119h98v-119z" />
    <glyph glyph-name="uni1ECC" unicode="&#x1ecc;" horiz-adv-x="760" 
d="M203.5 34.5q-76.5 46.5 -118 128t-41.5 181.5t41.5 181.5t118 128t176.5 46.5t176.5 -46.5t118 -128t41.5 -181.5t-41.5 -181.5t-118 -128t-176.5 -46.5t-176.5 46.5zM503 108.5q52 35.5 80 97.5t28 138t-28 138t-80.5 97.5t-122.5 35.5t-122.5 -35.5t-80.5 -97.5
t-28 -138t28 -138t80.5 -97.5t122.5 -35.5q71 0 123 35.5zM429 -194h-98v119h98v-119z" />
    <glyph glyph-name="Ograve" unicode="&#xd2;" horiz-adv-x="760" 
d="M203.5 34.5q-76.5 46.5 -118 128t-41.5 181.5t41.5 181.5t118 128t176.5 46.5t176.5 -46.5t118 -128t41.5 -181.5t-41.5 -181.5t-118 -128t-176.5 -46.5t-176.5 46.5zM503 108.5q52 35.5 80 97.5t28 138t-28 138t-80.5 97.5t-122.5 35.5t-122.5 -35.5t-80.5 -97.5
t-28 -138t28 -138t80.5 -97.5t122.5 -35.5q71 0 123 35.5zM437 756h-96l-123 126h129z" />
    <glyph glyph-name="uni1ECE" unicode="&#x1ece;" horiz-adv-x="760" 
d="M358 767q41 23 41 51q0 31 -47 31q-34 0 -66 -13v58q15 7 36.5 12.5t43.5 5.5q47 0 78 -22t31 -65q0 -68 -94 -99zM203.5 34.5q-76.5 46.5 -118 128t-41.5 181.5t41.5 181.5t118 128t176.5 46.5t176.5 -46.5t118 -128t41.5 -181.5t-41.5 -181.5t-118 -128t-176.5 -46.5
t-176.5 46.5zM503 108.5q52 35.5 80 97.5t28 138t-28 138t-80.5 97.5t-122.5 35.5t-122.5 -35.5t-80.5 -97.5t-28 -138t28 -138t80.5 -97.5t122.5 -35.5q71 0 123 35.5z" />
    <glyph glyph-name="Ohorn" unicode="&#x1a0;" horiz-adv-x="760" 
d="M683.5 507q32.5 -74 32.5 -163q0 -100 -41.5 -181.5t-118 -128t-176.5 -46.5t-176.5 46.5t-118 128t-41.5 181.5t41.5 181.5t118 128t176.5 46.5q42 0 100 -7q13 -1 38.5 -3t41.5 -2q28 0 43 11.5t15 38.5v37h84v-36q0 -52 -28 -78.5t-83 -31.5q60 -48 92.5 -122z
M503 108.5q52 35.5 80 97.5t28 138t-28 138t-80.5 97.5t-122.5 35.5t-122.5 -35.5t-80.5 -97.5t-28 -138t28 -138t80.5 -97.5t122.5 -35.5q71 0 123 35.5z" />
    <glyph glyph-name="uni1EDA" unicode="&#x1eda;" horiz-adv-x="760" 
d="M683.5 507q32.5 -74 32.5 -163q0 -100 -41.5 -181.5t-118 -128t-176.5 -46.5t-176.5 46.5t-118 128t-41.5 181.5t41.5 181.5t118 128t176.5 46.5q42 0 100 -7q13 -1 38.5 -3t41.5 -2q28 0 43 11.5t15 38.5v37h84v-36q0 -52 -28 -78.5t-83 -31.5q60 -48 92.5 -122z
M503 108.5q52 35.5 80 97.5t28 138t-28 138t-80.5 97.5t-122.5 35.5t-122.5 -35.5t-80.5 -97.5t-28 -138t28 -138t80.5 -97.5t122.5 -35.5q71 0 123 35.5zM419 756h-96l90 126h128z" />
    <glyph glyph-name="uni1EE2" unicode="&#x1ee2;" horiz-adv-x="760" 
d="M683.5 507q32.5 -74 32.5 -163q0 -100 -41.5 -181.5t-118 -128t-176.5 -46.5t-176.5 46.5t-118 128t-41.5 181.5t41.5 181.5t118 128t176.5 46.5q42 0 100 -7q13 -1 38.5 -3t41.5 -2q28 0 43 11.5t15 38.5v37h84v-36q0 -52 -28 -78.5t-83 -31.5q60 -48 92.5 -122z
M503 108.5q52 35.5 80 97.5t28 138t-28 138t-80.5 97.5t-122.5 35.5t-122.5 -35.5t-80.5 -97.5t-28 -138t28 -138t80.5 -97.5t122.5 -35.5q71 0 123 35.5zM429 -194h-98v119h98v-119z" />
    <glyph glyph-name="uni1EDC" unicode="&#x1edc;" horiz-adv-x="760" 
d="M683.5 507q32.5 -74 32.5 -163q0 -100 -41.5 -181.5t-118 -128t-176.5 -46.5t-176.5 46.5t-118 128t-41.5 181.5t41.5 181.5t118 128t176.5 46.5q42 0 100 -7q13 -1 38.5 -3t41.5 -2q28 0 43 11.5t15 38.5v37h84v-36q0 -52 -28 -78.5t-83 -31.5q60 -48 92.5 -122z
M503 108.5q52 35.5 80 97.5t28 138t-28 138t-80.5 97.5t-122.5 35.5t-122.5 -35.5t-80.5 -97.5t-28 -138t28 -138t80.5 -97.5t122.5 -35.5q71 0 123 35.5zM437 756h-96l-123 126h129z" />
    <glyph glyph-name="uni1EDE" unicode="&#x1ede;" horiz-adv-x="760" 
d="M352 849q-34 0 -66 -13v58q15 7 36.5 12.5t43.5 5.5q47 0 78 -22t31 -65q0 -68 -94 -99l-23 41q41 23 41 51q0 31 -47 31zM683.5 507q32.5 -74 32.5 -163q0 -100 -41.5 -181.5t-118 -128t-176.5 -46.5t-176.5 46.5t-118 128t-41.5 181.5t41.5 181.5t118 128t176.5 46.5
q42 0 100 -7q13 -1 38.5 -3t41.5 -2q28 0 43 11.5t15 38.5v37h84v-36q0 -52 -28 -78.5t-83 -31.5q60 -48 92.5 -122zM503 108.5q52 35.5 80 97.5t28 138t-28 138t-80.5 97.5t-122.5 35.5t-122.5 -35.5t-80.5 -97.5t-28 -138t28 -138t80.5 -97.5t122.5 -35.5q71 0 123 35.5z
" />
    <glyph glyph-name="uni1EE0" unicode="&#x1ee0;" horiz-adv-x="760" 
d="M683.5 507q32.5 -74 32.5 -163q0 -100 -41.5 -181.5t-118 -128t-176.5 -46.5t-176.5 46.5t-118 128t-41.5 181.5t41.5 181.5t118 128t176.5 46.5q42 0 100 -7q13 -1 38.5 -3t41.5 -2q28 0 43 11.5t15 38.5v37h84v-36q0 -52 -28 -78.5t-83 -31.5q60 -48 92.5 -122z
M503 108.5q52 35.5 80 97.5t28 138t-28 138t-80.5 97.5t-122.5 35.5t-122.5 -35.5t-80.5 -97.5t-28 -138t28 -138t80.5 -97.5t122.5 -35.5q71 0 123 35.5zM407 763.5q-18 8.5 -41 23.5q-16 11 -26.5 16.5t-22.5 5.5q-35 0 -45 -53l-63 22q13 48 39.5 75.5t68.5 27.5
q23 0 40.5 -8t41.5 -23q16 -11 27 -16.5t22 -5.5q35 0 45 52l63 -21q-28 -104 -108 -104q-23 0 -41 8.5z" />
    <glyph glyph-name="Ohungarumlaut" unicode="&#x150;" horiz-adv-x="760" 
d="M203.5 34.5q-76.5 46.5 -118 128t-41.5 181.5t41.5 181.5t118 128t176.5 46.5t176.5 -46.5t118 -128t41.5 -181.5t-41.5 -181.5t-118 -128t-176.5 -46.5t-176.5 46.5zM503 108.5q52 35.5 80 97.5t28 138t-28 138t-80.5 97.5t-122.5 35.5t-122.5 -35.5t-80.5 -97.5
t-28 -138t28 -138t80.5 -97.5t122.5 -35.5q71 0 123 35.5zM320 756h-96l90 126h128zM518 756h-96l90 126h129z" />
    <glyph glyph-name="Omacron" unicode="&#x14c;" horiz-adv-x="760" 
d="M203.5 34.5q-76.5 46.5 -118 128t-41.5 181.5t41.5 181.5t118 128t176.5 46.5t176.5 -46.5t118 -128t41.5 -181.5t-41.5 -181.5t-118 -128t-176.5 -46.5t-176.5 46.5zM503 108.5q52 35.5 80 97.5t28 138t-28 138t-80.5 97.5t-122.5 35.5t-122.5 -35.5t-80.5 -97.5
t-28 -138t28 -138t80.5 -97.5t122.5 -35.5q71 0 123 35.5zM531 773h-302v78h302v-78z" />
    <glyph glyph-name="Oslash" unicode="&#xd8;" horiz-adv-x="761" 
d="M625 598q44 -48 68 -113.5t24 -140.5q0 -100 -42 -181.5t-118.5 -128t-175.5 -46.5q-97 0 -176 46l-63 -85l-73 50l68 91q-44 48 -68 113.5t-24 140.5q0 100 41.5 181.5t118 128t176.5 46.5q97 0 175 -46l63 85l73 -50zM197 171l304 410q-51 34 -120 34
q-71 0 -123.5 -35.5t-80.5 -97.5t-28 -138q0 -102 48 -173zM503.5 108.5q52.5 35.5 80.5 97.5t28 138q0 49 -12.5 93.5t-35.5 79.5l-304 -410q51 -34 121 -34t122.5 35.5z" />
    <glyph glyph-name="Oslashacute" unicode="&#x1fe;" horiz-adv-x="761" 
d="M625 598q44 -48 68 -113.5t24 -140.5q0 -100 -42 -181.5t-118.5 -128t-175.5 -46.5q-97 0 -176 46l-63 -85l-73 50l68 91q-44 48 -68 113.5t-24 140.5q0 100 41.5 181.5t118 128t176.5 46.5q97 0 175 -46l63 85l73 -50zM197 171l304 410q-51 34 -120 34
q-71 0 -123.5 -35.5t-80.5 -97.5t-28 -138q0 -102 48 -173zM503.5 108.5q52.5 35.5 80.5 97.5t28 138q0 49 -12.5 93.5t-35.5 79.5l-304 -410q51 -34 121 -34t122.5 35.5zM420 756h-96l90 126h128z" />
    <glyph glyph-name="Otilde" unicode="&#xd5;" horiz-adv-x="760" 
d="M203.5 34.5q-76.5 46.5 -118 128t-41.5 181.5t41.5 181.5t118 128t176.5 46.5t176.5 -46.5t118 -128t41.5 -181.5t-41.5 -181.5t-118 -128t-176.5 -46.5t-176.5 46.5zM503 108.5q52 35.5 80 97.5t28 138t-28 138t-80.5 97.5t-122.5 35.5t-122.5 -35.5t-80.5 -97.5
t-28 -138t28 -138t80.5 -97.5t122.5 -35.5q71 0 123 35.5zM407 763.5q-18 8.5 -41 23.5q-16 11 -26.5 16.5t-22.5 5.5q-35 0 -45 -53l-63 22q13 48 39.5 75.5t68.5 27.5q23 0 40.5 -8t41.5 -23q16 -11 27 -16.5t22 -5.5q35 0 45 52l63 -21q-28 -104 -108 -104q-23 0 -41 8.5
z" />
    <glyph glyph-name="OE" unicode="&#x152;" horiz-adv-x="934" 
d="M203.5 34.5q-76.5 46.5 -118 128t-41.5 181.5t41.5 181.5t118 128t176.5 46.5q37 0 93 -12h401v-89h-299v-195h282v-89h-282v-226h312v-89h-414q-42 -12 -93 -12q-100 0 -176.5 46.5zM473 92v504q-43 19 -93 19q-70 0 -122.5 -35.5t-80.5 -97.5t-28 -138t28 -138
t80.5 -97.5t122.5 -35.5q50 0 93 19z" />
    <glyph glyph-name="P" unicode="P" horiz-adv-x="600" 
d="M339 688q108 0 170.5 -51.5t62.5 -151.5q0 -109 -63 -161t-175 -52h-149v-272h-102v688h256zM328 360q71 0 107 30t36 92q0 63 -38 90.5t-111 27.5h-137v-240h143z" />
    <glyph glyph-name="Thorn" unicode="&#xde;" horiz-adv-x="602" 
d="M83 0v688h102v-127h143q109 0 172 -49t63 -151q0 -103 -62 -152.5t-172 -49.5h-144v-159h-102zM318 247q73 0 108 26.5t35 87.5q0 62 -35 87t-109 25h-132v-226h133z" />
    <glyph glyph-name="Q" unicode="Q" horiz-adv-x="760" 
d="M690.5 198.5q-25.5 -67.5 -73.5 -115.5l99 -92l-69 -69l-99 108q-75 -42 -168 -42q-100 0 -176.5 46.5t-118 128t-41.5 181.5t41.5 181.5t118 128t176.5 46.5t176.5 -46.5t118 -128t41.5 -181.5q0 -78 -25.5 -145.5zM177 206q28 -62 80.5 -97.5t122.5 -35.5
q71 0 123 35.5t80 97.5t28 138t-28 138t-80.5 97.5t-122.5 35.5t-122.5 -35.5t-80.5 -97.5t-28 -138t28 -138z" />
    <glyph glyph-name="R" unicode="R" horiz-adv-x="635" 
d="M495 0l-192 294h-118v-294h-102v688h267q102 0 162 -50t60 -146q0 -80 -43.5 -127.5t-115.5 -63.5l201 -301h-119zM185 600v-219h160q60 0 93 29t33 80q0 52 -30.5 81t-90.5 29h-165z" />
    <glyph glyph-name="Racute" unicode="&#x154;" horiz-adv-x="635" 
d="M495 0l-192 294h-118v-294h-102v688h267q102 0 162 -50t60 -146q0 -80 -43.5 -127.5t-115.5 -63.5l201 -301h-119zM185 600v-219h160q60 0 93 29t33 80q0 52 -30.5 81t-90.5 29h-165zM340 756h-96l90 126h128z" />
    <glyph glyph-name="Rcaron" unicode="&#x158;" horiz-adv-x="635" 
d="M495 0l-192 294h-118v-294h-102v688h267q102 0 162 -50t60 -146q0 -80 -43.5 -127.5t-115.5 -63.5l201 -301h-119zM185 600v-219h160q60 0 93 29t33 80q0 52 -30.5 81t-90.5 29h-165zM300 799l72 83h85l-96 -125h-122l-95 125h85z" />
    <glyph glyph-name="uni0156" unicode="&#x156;" horiz-adv-x="635" 
d="M614 0h-119l-192 294h-118v-294h-102v688h267q102 0 162 -50t60 -146q0 -80 -43.5 -127.5t-115.5 -63.5zM185 600v-219h160q60 0 93 29t33 80q0 52 -30.5 81t-90.5 29h-165zM327 -147h-38v99h92v-83l-40 -122h-44z" />
    <glyph glyph-name="S" unicode="S" horiz-adv-x="642" 
d="M126.5 47q-80.5 59 -93.5 180l105 16q10 -88 60 -131.5t133 -43.5q75 0 122.5 34t47.5 90q0 46 -30.5 69t-103.5 39l-99 22q-101 22 -155 64t-54 120q0 55 32.5 99.5t91.5 69.5t134 25q113 0 183.5 -54t81.5 -149l-105 -16q-8 66 -50 102.5t-113 36.5q-69 0 -110.5 -31.5
t-41.5 -77.5q0 -44 30 -64t101 -36l99 -21q106 -23 159.5 -64.5t53.5 -122.5q0 -67 -38.5 -115.5t-101.5 -74t-136 -25.5q-122 0 -202.5 59z" />
    <glyph glyph-name="Sacute" unicode="&#x15a;" horiz-adv-x="642" 
d="M126.5 47q-80.5 59 -93.5 180l105 16q10 -88 60 -131.5t133 -43.5q75 0 122.5 34t47.5 90q0 46 -30.5 69t-103.5 39l-99 22q-101 22 -155 64t-54 120q0 55 32.5 99.5t91.5 69.5t134 25q113 0 183.5 -54t81.5 -149l-105 -16q-8 66 -50 102.5t-113 36.5q-69 0 -110.5 -31.5
t-41.5 -77.5q0 -44 30 -64t101 -36l99 -21q106 -23 159.5 -64.5t53.5 -122.5q0 -67 -38.5 -115.5t-101.5 -74t-136 -25.5q-122 0 -202.5 59zM363 756h-96l90 126h128z" />
    <glyph glyph-name="Scaron" unicode="&#x160;" horiz-adv-x="642" 
d="M126.5 47q-80.5 59 -93.5 180l105 16q10 -88 60 -131.5t133 -43.5q75 0 122.5 34t47.5 90q0 46 -30.5 69t-103.5 39l-99 22q-101 22 -155 64t-54 120q0 55 32.5 99.5t91.5 69.5t134 25q113 0 183.5 -54t81.5 -149l-105 -16q-8 66 -50 102.5t-113 36.5q-69 0 -110.5 -31.5
t-41.5 -77.5q0 -44 30 -64t101 -36l99 -21q106 -23 159.5 -64.5t53.5 -122.5q0 -67 -38.5 -115.5t-101.5 -74t-136 -25.5q-122 0 -202.5 59zM323 799l72 83h85l-96 -125h-122l-95 125h85z" />
    <glyph glyph-name="Scedilla" unicode="&#x15e;" horiz-adv-x="642" 
d="M570.5 93q-34.5 -47 -92 -73.5t-125.5 -30.5l-9 -24q33 -5 55.5 -24t22.5 -52q0 -48 -42 -71.5t-104 -23.5h-11v57h4q31 0 52 9.5t21 28.5q0 29 -47 29h-29l25 71q-107 9 -176.5 68t-81.5 170l105 16q10 -88 60 -131.5t133 -43.5q75 0 122.5 34t47.5 90q0 46 -30.5 69
t-103.5 39l-99 22q-101 22 -155 64t-54 120q0 55 32.5 99.5t91.5 69.5t134 25q113 0 183.5 -54t81.5 -149l-105 -16q-8 66 -50 102.5t-113 36.5q-69 0 -110.5 -31.5t-41.5 -77.5q0 -44 30 -64t101 -36l99 -21q106 -23 159.5 -64.5t53.5 -122.5q0 -63 -34.5 -110z" />
    <glyph glyph-name="Scircumflex" unicode="&#x15c;" horiz-adv-x="642" 
d="M126.5 47q-80.5 59 -93.5 180l105 16q10 -88 60 -131.5t133 -43.5q75 0 122.5 34t47.5 90q0 46 -30.5 69t-103.5 39l-99 22q-101 22 -155 64t-54 120q0 55 32.5 99.5t91.5 69.5t134 25q113 0 183.5 -54t81.5 -149l-105 -16q-8 66 -50 102.5t-113 36.5q-69 0 -110.5 -31.5
t-41.5 -77.5q0 -44 30 -64t101 -36l99 -21q106 -23 159.5 -64.5t53.5 -122.5q0 -67 -38.5 -115.5t-101.5 -74t-136 -25.5q-122 0 -202.5 59zM384 882l96 -125h-85l-72 83l-71 -83h-85l95 125h122z" />
    <glyph glyph-name="uni0218" unicode="&#x218;" horiz-adv-x="642" 
d="M126.5 47q-80.5 59 -93.5 180l105 16q10 -88 60 -131.5t133 -43.5q75 0 122.5 34t47.5 90q0 46 -30.5 69t-103.5 39l-99 22q-101 22 -155 64t-54 120q0 55 32.5 99.5t91.5 69.5t134 25q113 0 183.5 -54t81.5 -149l-105 -16q-8 66 -50 102.5t-113 36.5q-69 0 -110.5 -31.5
t-41.5 -77.5q0 -44 30 -64t101 -36l99 -21q106 -23 159.5 -64.5t53.5 -122.5q0 -67 -38.5 -115.5t-101.5 -74t-136 -25.5q-122 0 -202.5 59zM332 -253h-45l31 106h-38v99h91v-83z" />
    <glyph glyph-name="uni1E9E" unicode="&#x1e9e;" horiz-adv-x="659" 
d="M443 439q75 -15 124 -68.5t49 -145.5q0 -73 -33 -127t-92 -82t-135 -28q-48 0 -83 11v86q37 -10 81 -10q71 0 114.5 40.5t43.5 109.5q0 64 -39.5 99.5t-107.5 35.5q-26 0 -48 -3v71l133 172h-265v-600h-102v688h490v-81l-130 -167v-1z" />
    <glyph glyph-name="uni018F" unicode="&#x18f;" horiz-adv-x="709" 
d="M509.5 658.5q71.5 -41.5 113 -122t41.5 -192.5q0 -108 -42.5 -189t-115.5 -124t-161 -43q-85 0 -153 43t-107 120.5t-39 176.5v36h515q-2 84 -31 141t-76.5 84.5t-105.5 27.5q-79 0 -127.5 -40t-66.5 -114l-104 16q27 95 100.5 158t198.5 63q89 0 160.5 -41.5z
M448.5 97.5q46.5 26.5 75.5 74.5t35 109h-405q3 -58 27.5 -106t67 -76t96.5 -28q57 0 103.5 26.5z" />
    <glyph glyph-name="T" unicode="T" horiz-adv-x="555" 
d="M329 0h-102v600h-212v88h525v-88h-211v-600z" />
    <glyph glyph-name="Tbar" unicode="&#x166;" horiz-adv-x="555" 
d="M540 688v-88h-211v-213h156v-87h-156v-300h-102v300h-158v87h158v213h-212v88h525z" />
    <glyph glyph-name="Tcaron" unicode="&#x164;" horiz-adv-x="555" 
d="M329 0h-102v600h-212v88h525v-88h-211v-600zM277 798l72 83h85l-96 -125h-122l-95 125h85z" />
    <glyph glyph-name="uni0162" unicode="&#x162;" horiz-adv-x="555" 
d="M329 0h-20l-12 -35q32 -5 54.5 -24t22.5 -52q0 -48 -42 -71.5t-104 -23.5h-11v57h5q31 0 52 9.5t21 28.5q0 29 -48 29h-29l29 82h-20v600h-212v88h525v-88h-211v-600z" />
    <glyph glyph-name="uni021A" unicode="&#x21a;" horiz-adv-x="555" 
d="M329 0h-102v600h-212v88h525v-88h-211v-600zM284 -253h-45l31 106h-38v99h91v-83z" />
    <glyph glyph-name="U" unicode="U" horiz-adv-x="685" 
d="M145.5 59q-69.5 71 -69.5 202v427h103v-419q0 -92 40 -142.5t123 -50.5q86 0 125 50t39 143v419h102v-427q0 -132 -69.5 -202.5t-196.5 -70.5t-196.5 71z" />
    <glyph glyph-name="Uacute" unicode="&#xda;" horiz-adv-x="685" 
d="M145.5 59q-69.5 71 -69.5 202v427h103v-419q0 -92 40 -142.5t123 -50.5q86 0 125 50t39 143v419h102v-427q0 -132 -69.5 -202.5t-196.5 -70.5t-196.5 71zM382 756h-96l90 126h128z" />
    <glyph glyph-name="Ubreve" unicode="&#x16c;" horiz-adv-x="685" 
d="M145.5 59q-69.5 71 -69.5 202v427h103v-419q0 -92 40 -142.5t123 -50.5q86 0 125 50t39 143v419h102v-427q0 -132 -69.5 -202.5t-196.5 -70.5t-196.5 71zM247.5 783.5q-36.5 32.5 -43.5 90.5h70q12 -61 69 -61q29 0 46 16.5t22 44.5h70q-7 -58 -43.5 -90.5t-94.5 -32.5
q-59 0 -95.5 32.5z" />
    <glyph glyph-name="Ucircumflex" unicode="&#xdb;" horiz-adv-x="685" 
d="M145.5 59q-69.5 71 -69.5 202v427h103v-419q0 -92 40 -142.5t123 -50.5q86 0 125 50t39 143v419h102v-427q0 -132 -69.5 -202.5t-196.5 -70.5t-196.5 71zM403 882l96 -125h-85l-72 83l-71 -83h-85l95 125h122z" />
    <glyph glyph-name="Udieresis" unicode="&#xdc;" horiz-adv-x="685" 
d="M145.5 59q-69.5 71 -69.5 202v427h103v-419q0 -92 40 -142.5t123 -50.5q86 0 125 50t39 143v419h102v-427q0 -132 -69.5 -202.5t-196.5 -70.5t-196.5 71zM294 763h-98v119h98v-119zM488 763h-98v119h98v-119z" />
    <glyph glyph-name="uni1EE4" unicode="&#x1ee4;" horiz-adv-x="685" 
d="M145.5 59q-69.5 71 -69.5 202v427h103v-419q0 -92 40 -142.5t123 -50.5q86 0 125 50t39 143v419h102v-427q0 -132 -69.5 -202.5t-196.5 -70.5t-196.5 71zM391 -194h-98v119h98v-119z" />
    <glyph glyph-name="Ugrave" unicode="&#xd9;" horiz-adv-x="685" 
d="M145.5 59q-69.5 71 -69.5 202v427h103v-419q0 -92 40 -142.5t123 -50.5q86 0 125 50t39 143v419h102v-427q0 -132 -69.5 -202.5t-196.5 -70.5t-196.5 71zM399 756h-96l-123 126h129z" />
    <glyph glyph-name="uni1EE6" unicode="&#x1ee6;" horiz-adv-x="685" 
d="M320 767q41 22 41 51q0 31 -47 31q-33 0 -66 -13v58q15 7 37 12.5t43 5.5q48 0 78.5 -22t30.5 -65q0 -68 -94 -99zM145.5 59q-69.5 71 -69.5 202v427h103v-419q0 -92 40 -142.5t123 -50.5q86 0 125 50t39 143v419h102v-427q0 -132 -69.5 -202.5t-196.5 -70.5t-196.5 71z
" />
    <glyph glyph-name="Uhorn" unicode="&#x1af;" horiz-adv-x="731" 
d="M650 775h84v-36q0 -55 -32.5 -81.5t-93.5 -29.5v-367q0 -132 -69.5 -202.5t-196.5 -70.5t-196.5 71t-69.5 202v427h103v-419q0 -92 40 -142.5t123 -50.5q86 0 125 50t39 143v419h90q28 0 41 11.5t13 38.5v37z" />
    <glyph glyph-name="uni1EE8" unicode="&#x1ee8;" horiz-adv-x="731" 
d="M650 775h84v-36q0 -55 -32.5 -81.5t-93.5 -29.5v-367q0 -132 -69.5 -202.5t-196.5 -70.5t-196.5 71t-69.5 202v427h103v-419q0 -92 40 -142.5t123 -50.5q86 0 125 50t39 143v419h90q28 0 41 11.5t13 38.5v37zM382 756h-96l90 126h128z" />
    <glyph glyph-name="uni1EF0" unicode="&#x1ef0;" horiz-adv-x="731" 
d="M650 775h84v-36q0 -55 -32.5 -81.5t-93.5 -29.5v-367q0 -132 -69.5 -202.5t-196.5 -70.5t-196.5 71t-69.5 202v427h103v-419q0 -92 40 -142.5t123 -50.5q86 0 125 50t39 143v419h90q28 0 41 11.5t13 38.5v37zM391 -194h-98v119h98v-119z" />
    <glyph glyph-name="uni1EEA" unicode="&#x1eea;" horiz-adv-x="731" 
d="M650 775h84v-36q0 -55 -32.5 -81.5t-93.5 -29.5v-367q0 -132 -69.5 -202.5t-196.5 -70.5t-196.5 71t-69.5 202v427h103v-419q0 -92 40 -142.5t123 -50.5q86 0 125 50t39 143v419h90q28 0 41 11.5t13 38.5v37zM399 756h-96l-123 126h129z" />
    <glyph glyph-name="uni1EEC" unicode="&#x1eec;" horiz-adv-x="731" 
d="M314 849q-33 0 -66 -13v58q15 7 37 12.5t43 5.5q48 0 78.5 -22t30.5 -65q0 -68 -94 -99l-23 41q41 22 41 51q0 31 -47 31zM650 775h84v-36q0 -55 -32.5 -81.5t-93.5 -29.5v-367q0 -132 -69.5 -202.5t-196.5 -70.5t-196.5 71t-69.5 202v427h103v-419q0 -92 40 -142.5
t123 -50.5q86 0 125 50t39 143v419h90q28 0 41 11.5t13 38.5v37z" />
    <glyph glyph-name="uni1EEE" unicode="&#x1eee;" horiz-adv-x="731" 
d="M650 775h84v-36q0 -55 -32.5 -81.5t-93.5 -29.5v-367q0 -132 -69.5 -202.5t-196.5 -70.5t-196.5 71t-69.5 202v427h103v-419q0 -92 40 -142.5t123 -50.5q86 0 125 50t39 143v419h90q28 0 41 11.5t13 38.5v37zM369 763.5q-18 8.5 -41 23.5q-16 11 -26.5 16.5t-22.5 5.5
q-35 0 -45 -53l-63 22q13 48 39.5 75.5t68.5 27.5q23 0 40.5 -8t41.5 -23q16 -11 27 -16.5t22 -5.5q35 0 45 52l63 -21q-28 -104 -108 -104q-23 0 -41 8.5z" />
    <glyph glyph-name="Uhungarumlaut" unicode="&#x170;" horiz-adv-x="685" 
d="M145.5 59q-69.5 71 -69.5 202v427h103v-419q0 -92 40 -142.5t123 -50.5q86 0 125 50t39 143v419h102v-427q0 -132 -69.5 -202.5t-196.5 -70.5t-196.5 71zM283 756h-96l90 126h128zM481 756h-96l90 126h129z" />
    <glyph glyph-name="Umacron" unicode="&#x16a;" horiz-adv-x="685" 
d="M145.5 59q-69.5 71 -69.5 202v427h103v-419q0 -92 40 -142.5t123 -50.5q86 0 125 50t39 143v419h102v-427q0 -132 -69.5 -202.5t-196.5 -70.5t-196.5 71zM493 773h-302v78h302v-78z" />
    <glyph glyph-name="Uogonek" unicode="&#x172;" horiz-adv-x="685" 
d="M506 688h102v-427q0 -110 -49 -177.5t-140 -87.5q-78 -52 -78 -103q0 -22 13 -31.5t32 -9.5q12 0 26 3l18 -69q-33 -12 -70 -12q-46 0 -79.5 26t-33.5 75q0 66 65 114q-113 8 -174.5 78.5t-61.5 193.5v427h103v-419q0 -92 40 -142.5t123 -50.5q86 0 125 50t39 143v419z
" />
    <glyph glyph-name="Uring" unicode="&#x16e;" horiz-adv-x="685" 
d="M145.5 59q-69.5 71 -69.5 202v427h103v-419q0 -92 40 -142.5t123 -50.5q86 0 125 50t39 143v419h102v-427q0 -132 -69.5 -202.5t-196.5 -70.5t-196.5 71zM279 764.5q-26 25.5 -26 63.5q0 37 26 62t64 25q37 0 63.5 -25t26.5 -62q0 -38 -26.5 -63.5t-63.5 -25.5
q-38 0 -64 25.5zM368.5 802q10.5 10 10.5 26q0 15 -10.5 25.5t-25.5 10.5q-16 0 -26 -10.5t-10 -25.5q0 -16 10 -26t26 -10q15 0 25.5 10z" />
    <glyph glyph-name="Utilde" unicode="&#x168;" horiz-adv-x="685" 
d="M145.5 59q-69.5 71 -69.5 202v427h103v-419q0 -92 40 -142.5t123 -50.5q86 0 125 50t39 143v419h102v-427q0 -132 -69.5 -202.5t-196.5 -70.5t-196.5 71zM369 763.5q-18 8.5 -41 23.5q-16 11 -26.5 16.5t-22.5 5.5q-35 0 -45 -53l-63 22q13 48 39.5 75.5t68.5 27.5
q23 0 40.5 -8t41.5 -23q16 -11 27 -16.5t22 -5.5q35 0 45 52l63 -21q-28 -104 -108 -104q-23 0 -41 8.5z" />
    <glyph glyph-name="V" unicode="V" horiz-adv-x="648" 
d="M324 125l199 563h109l-253 -688h-110l-253 688h109z" />
    <glyph glyph-name="W" unicode="W" horiz-adv-x="945" 
d="M674 148l144 540h106l-194 -688h-103l-154 556l-154 -556h-103l-195 688h105l145 -542l150 542h103z" />
    <glyph glyph-name="Wacute" unicode="&#x1e82;" horiz-adv-x="945" 
d="M674 148l144 540h106l-194 -688h-103l-154 556l-154 -556h-103l-195 688h105l145 -542l150 542h103zM513 756h-96l90 126h128z" />
    <glyph glyph-name="Wcircumflex" unicode="&#x174;" horiz-adv-x="945" 
d="M674 148l144 540h106l-194 -688h-103l-154 556l-154 -556h-103l-195 688h105l145 -542l150 542h103zM534 882l96 -125h-85l-72 83l-71 -83h-85l95 125h122z" />
    <glyph glyph-name="Wdieresis" unicode="&#x1e84;" horiz-adv-x="945" 
d="M674 148l144 540h106l-194 -688h-103l-154 556l-154 -556h-103l-195 688h105l145 -542l150 542h103zM426 763h-98v119h98v-119zM620 763h-98v119h98v-119z" />
    <glyph glyph-name="Wgrave" unicode="&#x1e80;" horiz-adv-x="945" 
d="M674 148l144 540h106l-194 -688h-103l-154 556l-154 -556h-103l-195 688h105l145 -542l150 542h103zM531 756h-96l-123 126h129z" />
    <glyph glyph-name="X" unicode="X" horiz-adv-x="630" 
d="M378 357l247 -357h-119l-191 280l-191 -280h-119l247 356l-231 332h120l174 -256l173 256h120z" />
    <glyph glyph-name="Y" unicode="Y" horiz-adv-x="635" 
d="M317 361l182 327h118l-249 -421v-267h-101v267l-249 421h117z" />
    <glyph glyph-name="Yacute" unicode="&#xdd;" horiz-adv-x="635" 
d="M317 361l182 327h118l-249 -421v-267h-101v267l-249 421h117zM357 756h-96l90 126h128z" />
    <glyph glyph-name="Ycircumflex" unicode="&#x176;" horiz-adv-x="635" 
d="M317 361l182 327h118l-249 -421v-267h-101v267l-249 421h117zM378 882l96 -125h-85l-72 83l-71 -83h-85l95 125h122z" />
    <glyph glyph-name="Ydieresis" unicode="&#x178;" horiz-adv-x="635" 
d="M317 361l182 327h118l-249 -421v-267h-101v267l-249 421h117zM270 763h-98v119h98v-119zM464 763h-98v119h98v-119z" />
    <glyph glyph-name="uni1EF4" unicode="&#x1ef4;" horiz-adv-x="635" 
d="M317 361l182 327h118l-249 -421v-267h-101v267l-249 421h117zM367 -194h-98v119h98v-119z" />
    <glyph glyph-name="Ygrave" unicode="&#x1ef2;" horiz-adv-x="635" 
d="M317 361l182 327h118l-249 -421v-267h-101v267l-249 421h117zM375 756h-96l-123 126h129z" />
    <glyph glyph-name="uni1EF6" unicode="&#x1ef6;" horiz-adv-x="635" 
d="M289 849q-31 0 -66 -13v58q16 8 37.5 13t43.5 5q47 0 78 -22t31 -65q0 -68 -95 -99l-23 41q42 22 42 51q0 31 -48 31zM317 361l182 327h118l-249 -421v-267h-101v267l-249 421h117z" />
    <glyph glyph-name="uni0232" unicode="&#x232;" horiz-adv-x="635" 
d="M317 361l182 327h118l-249 -421v-267h-101v267l-249 421h117zM469 773h-302v78h302v-78z" />
    <glyph glyph-name="uni1EF8" unicode="&#x1ef8;" horiz-adv-x="635" 
d="M317 361l182 327h118l-249 -421v-267h-101v267l-249 421h117zM344 763.5q-18 8.5 -41 23.5q-16 11 -26.5 16.5t-22.5 5.5q-35 0 -45 -53l-63 22q13 48 39.5 75.5t68.5 27.5q23 0 40.5 -8t41.5 -23q16 -11 27 -16.5t22 -5.5q35 0 45 52l63 -21q-28 -104 -108 -104
q-23 0 -41 8.5z" />
    <glyph glyph-name="Z" unicode="Z" horiz-adv-x="583" 
d="M549 0h-516v76l379 526h-366v86h492v-78l-378 -524h389v-86z" />
    <glyph glyph-name="Zacute" unicode="&#x179;" horiz-adv-x="583" 
d="M549 0h-516v76l379 526h-366v86h492v-78l-378 -524h389v-86zM333 755h-96l90 126h128z" />
    <glyph glyph-name="Zcaron" unicode="&#x17d;" horiz-adv-x="583" 
d="M549 0h-516v76l379 526h-366v86h492v-78l-378 -524h389v-86zM293 798l72 83h85l-96 -125h-122l-95 125h85z" />
    <glyph glyph-name="Zdotaccent" unicode="&#x17b;" horiz-adv-x="583" 
d="M549 0h-516v76l379 526h-366v86h492v-78l-378 -524h389v-86zM342 762h-98v119h98v-119z" />
    <glyph glyph-name="G.ss07" horiz-adv-x="742" 
d="M209 32.5q-81 44.5 -122.5 124.5t-41.5 187q0 104 42 185t120 126t182 45q120 0 194 -52t101 -135l-105 -31q-18 59 -66 96t-125 37q-74 0 -127.5 -34t-82 -95.5t-28.5 -141.5q0 -129 68 -200t192 -71q90 0 172 35v178h-215v88h317v-317q-132 -69 -281 -69
q-113 0 -194 44.5z" />
    <glyph glyph-name="Gbreve.ss07" horiz-adv-x="742" 
d="M209 32.5q-81 44.5 -122.5 124.5t-41.5 187q0 104 42 185t120 126t182 45q120 0 194 -52t101 -135l-105 -31q-18 59 -66 96t-125 37q-74 0 -127.5 -34t-82 -95.5t-28.5 -141.5q0 -129 68 -200t192 -71q90 0 172 35v178h-215v88h317v-317q-132 -69 -281 -69
q-113 0 -194 44.5zM294.5 783.5q-36.5 32.5 -43.5 90.5h70q12 -61 69 -61q29 0 46 16.5t22 44.5h70q-7 -58 -43.5 -90.5t-94.5 -32.5q-59 0 -95.5 32.5z" />
    <glyph glyph-name="Gcircumflex.ss07" horiz-adv-x="742" 
d="M209 32.5q-81 44.5 -122.5 124.5t-41.5 187q0 104 42 185t120 126t182 45q120 0 194 -52t101 -135l-105 -31q-18 59 -66 96t-125 37q-74 0 -127.5 -34t-82 -95.5t-28.5 -141.5q0 -129 68 -200t192 -71q90 0 172 35v178h-215v88h317v-317q-132 -69 -281 -69
q-113 0 -194 44.5zM450 882l96 -125h-85l-72 83l-71 -83h-85l95 125h122z" />
    <glyph glyph-name="uni0122.ss07" horiz-adv-x="742" 
d="M209 32.5q-81 44.5 -122.5 124.5t-41.5 187q0 104 42 185t120 126t182 45q120 0 194 -52t101 -135l-105 -31q-18 59 -66 96t-125 37q-74 0 -127.5 -34t-82 -95.5t-28.5 -141.5q0 -129 68 -200t192 -71q90 0 172 35v178h-215v88h317v-317q-132 -69 -281 -69
q-113 0 -194 44.5zM399 -253h-44l30 106h-38v99h91v-83z" />
    <glyph glyph-name="Gdotaccent.ss07" horiz-adv-x="742" 
d="M209 32.5q-81 44.5 -122.5 124.5t-41.5 187q0 104 42 185t120 126t182 45q120 0 194 -52t101 -135l-105 -31q-18 59 -66 96t-125 37q-74 0 -127.5 -34t-82 -95.5t-28.5 -141.5q0 -129 68 -200t192 -71q90 0 172 35v178h-215v88h317v-317q-132 -69 -281 -69
q-113 0 -194 44.5zM438 763h-98v119h98v-119z" />
    <glyph glyph-name="G.ss08" horiz-adv-x="755" 
d="M205 33.5q-77 45.5 -119 126.5t-42 184q0 101 42 182t119.5 127.5t179.5 46.5q121 0 198 -59t108 -142l-106 -31q-19 62 -69.5 104.5t-130.5 42.5q-70 0 -123.5 -34t-83 -95.5t-29.5 -141.5q0 -81 29.5 -142.5t83 -95t123.5 -33.5q97 0 155.5 57.5t66.5 155.5h-241v88
h346v-47q0 -105 -40.5 -181.5t-115 -117t-172.5 -40.5q-102 0 -179 45.5z" />
    <glyph glyph-name="Gbreve.ss08" horiz-adv-x="755" 
d="M205 33.5q-77 45.5 -119 126.5t-42 184q0 101 42 182t119.5 127.5t179.5 46.5q121 0 198 -59t108 -142l-106 -31q-19 62 -69.5 104.5t-130.5 42.5q-70 0 -123.5 -34t-83 -95.5t-29.5 -141.5q0 -81 29.5 -142.5t83 -95t123.5 -33.5q97 0 155.5 57.5t66.5 155.5h-241v88
h346v-47q0 -105 -40.5 -181.5t-115 -117t-172.5 -40.5q-102 0 -179 45.5zM293.5 783.5q-36.5 32.5 -43.5 90.5h70q12 -61 69 -61q29 0 46 16.5t22 44.5h70q-7 -58 -43.5 -90.5t-94.5 -32.5q-59 0 -95.5 32.5z" />
    <glyph glyph-name="Gcircumflex.ss08" horiz-adv-x="755" 
d="M205 33.5q-77 45.5 -119 126.5t-42 184q0 101 42 182t119.5 127.5t179.5 46.5q121 0 198 -59t108 -142l-106 -31q-19 62 -69.5 104.5t-130.5 42.5q-70 0 -123.5 -34t-83 -95.5t-29.5 -141.5q0 -81 29.5 -142.5t83 -95t123.5 -33.5q97 0 155.5 57.5t66.5 155.5h-241v88
h346v-47q0 -105 -40.5 -181.5t-115 -117t-172.5 -40.5q-102 0 -179 45.5zM449 882l96 -125h-85l-72 83l-71 -83h-85l95 125h122z" />
    <glyph glyph-name="uni0122.ss08" horiz-adv-x="755" 
d="M205 33.5q-77 45.5 -119 126.5t-42 184q0 101 42 182t119.5 127.5t179.5 46.5q121 0 198 -59t108 -142l-106 -31q-19 62 -69.5 104.5t-130.5 42.5q-70 0 -123.5 -34t-83 -95.5t-29.5 -141.5q0 -81 29.5 -142.5t83 -95t123.5 -33.5q97 0 155.5 57.5t66.5 155.5h-241v88
h346v-47q0 -105 -40.5 -181.5t-115 -117t-172.5 -40.5q-102 0 -179 45.5zM398 -253h-44l30 106h-38v99h91v-83z" />
    <glyph glyph-name="Gdotaccent.ss08" horiz-adv-x="755" 
d="M205 33.5q-77 45.5 -119 126.5t-42 184q0 101 42 182t119.5 127.5t179.5 46.5q121 0 198 -59t108 -142l-106 -31q-19 62 -69.5 104.5t-130.5 42.5q-70 0 -123.5 -34t-83 -95.5t-29.5 -141.5q0 -81 29.5 -142.5t83 -95t123.5 -33.5q97 0 155.5 57.5t66.5 155.5h-241v88
h346v-47q0 -105 -40.5 -181.5t-115 -117t-172.5 -40.5q-102 0 -179 45.5zM437 763h-98v119h98v-119z" />
    <glyph glyph-name="I.ss09" horiz-adv-x="349" 
d="M301 0h-254v83h76v522h-76v83h254v-83h-76v-522h76v-83z" />
    <glyph glyph-name="IJ.ss09" horiz-adv-x="889" 
d="M301 0h-254v83h76v522h-76v83h254v-83h-76v-522h76v-83zM430.5 41.5q-60.5 53.5 -63.5 154.5l103 14q2 -67 32 -102t89 -35q57 0 88 33t31 94v488h102v-491q0 -98 -61.5 -153.5t-160.5 -55.5t-159.5 53.5z" />
    <glyph glyph-name="Iacute.ss09" horiz-adv-x="349" 
d="M301 0h-254v83h76v522h-76v83h254v-83h-76v-522h76v-83zM214 756h-96l90 126h128z" />
    <glyph glyph-name="Ibreve.ss09" horiz-adv-x="349" 
d="M301 0h-254v83h76v522h-76v83h254v-83h-76v-522h76v-83zM79.5 783.5q-36.5 32.5 -43.5 90.5h70q12 -61 69 -61q29 0 46 16.5t22 44.5h70q-7 -58 -43.5 -90.5t-94.5 -32.5q-59 0 -95.5 32.5z" />
    <glyph glyph-name="Icircumflex.ss09" horiz-adv-x="349" 
d="M301 0h-254v83h76v522h-76v83h254v-83h-76v-522h76v-83zM235 882l96 -125h-85l-72 83l-71 -83h-85l95 125h122z" />
    <glyph glyph-name="Idieresis.ss09" horiz-adv-x="349" 
d="M301 0h-254v83h76v522h-76v83h254v-83h-76v-522h76v-83zM127 763h-98v119h98v-119zM321 763h-98v119h98v-119z" />
    <glyph glyph-name="Idotaccent.ss09" horiz-adv-x="349" 
d="M223 763h-97v119h97v-119zM301 0h-254v83h76v522h-76v83h254v-83h-76v-522h76v-83z" />
    <glyph glyph-name="uni1ECA.ss09" horiz-adv-x="349" 
d="M301 0h-254v83h76v522h-76v83h254v-83h-76v-522h76v-83zM224 -194h-98v119h98v-119z" />
    <glyph glyph-name="Igrave.ss09" horiz-adv-x="349" 
d="M301 0h-254v83h76v522h-76v83h254v-83h-76v-522h76v-83zM232 756h-96l-123 126h129z" />
    <glyph glyph-name="uni1EC8.ss09" horiz-adv-x="349" 
d="M152 767q42 22 42 51q0 31 -48 31q-31 0 -66 -13v58q16 8 37.5 13t43.5 5q47 0 78 -22t31 -65q0 -68 -94 -99zM301 0h-254v83h76v522h-76v83h254v-83h-76v-522h76v-83z" />
    <glyph glyph-name="Imacron.ss09" horiz-adv-x="349" 
d="M301 0h-254v83h76v522h-76v83h254v-83h-76v-522h76v-83zM325 773h-302v78h302v-78z" />
    <glyph glyph-name="Iogonek.ss09" horiz-adv-x="349" 
d="M301 605h-76v-522h76v-83h-47q-85 -53 -85 -107q0 -22 13 -31.5t32 -9.5q12 0 26 3l18 -69q-33 -12 -70 -12q-46 0 -79.5 26t-33.5 75q0 38 22 70t59 55h-109v83h76v522h-76v83h254v-83z" />
    <glyph glyph-name="Itilde.ss09" horiz-adv-x="349" 
d="M301 0h-254v83h76v522h-76v83h254v-83h-76v-522h76v-83zM201 763.5q-18 8.5 -41 23.5q-16 11 -26.5 16.5t-22.5 5.5q-35 0 -45 -53l-63 22q13 48 39.5 75.5t68.5 27.5q23 0 40.5 -8t41.5 -23q16 -11 27 -16.5t22 -5.5q35 0 45 52l63 -21q-28 -104 -108 -104
q-23 0 -41 8.5z" />
    <glyph glyph-name="IJ.ss10" horiz-adv-x="706" 
d="M185 0h-102v688h102v-688zM375 -9.5q-32 2.5 -45 5.5v97q13 -5 41 -9.5t57 -4.5q50 0 73 30t23 82v408h-194v89h296v-499q0 -99 -51.5 -150t-147.5 -51q-20 0 -52 2.5z" />
    <glyph glyph-name="J.ss10" horiz-adv-x="415" 
d="M85 -9.5q-32 2.5 -45 5.5v97q13 -5 41 -9.5t57 -4.5q50 0 73 30t23 82v408h-194v89h296v-499q0 -99 -51.5 -150t-147.5 -51q-20 0 -52 2.5z" />
    <glyph glyph-name="Jcircumflex.ss10" horiz-adv-x="415" 
d="M85 -9.5q-32 2.5 -45 5.5v97q13 -5 41 -9.5t57 -4.5q50 0 73 30t23 82v408h-194v89h296v-499q0 -99 -51.5 -150t-147.5 -51q-20 0 -52 2.5zM252 882l96 -125h-85l-72 83l-71 -83h-85l95 125h122z" />
    <glyph glyph-name="IJ.ss09.ss10" horiz-adv-x="789" 
d="M301 0h-254v83h76v522h-76v83h254v-83h-76v-522h76v-83zM459 -9.5q-32 2.5 -45 5.5v97q13 -5 41 -9.5t57 -4.5q50 0 73 30t23 82v408h-194v89h296v-499q0 -99 -51.5 -150t-147.5 -51q-20 0 -52 2.5z" />
    <glyph glyph-name="R.ss11" horiz-adv-x="641" 
d="M608 0h-104l-45 176q-16 65 -52 90t-111 25h-111v-291h-102v688h268q98 0 160 -49.5t62 -139.5q0 -71 -39.5 -112t-89.5 -53v-1q38 -10 66.5 -35t42.5 -77zM341 379q60 0 95.5 31t35.5 85q0 48 -31 76.5t-90 28.5h-166v-221h156z" />
    <glyph glyph-name="Racute.ss11" horiz-adv-x="641" 
d="M608 0h-104l-45 176q-16 65 -52 90t-111 25h-111v-291h-102v688h268q98 0 160 -49.5t62 -139.5q0 -71 -39.5 -112t-89.5 -53v-1q38 -10 66.5 -35t42.5 -77zM341 379q60 0 95.5 31t35.5 85q0 48 -31 76.5t-90 28.5h-166v-221h156zM347 756h-96l90 126h128z" />
    <glyph glyph-name="Rcaron.ss11" horiz-adv-x="641" 
d="M608 0h-104l-45 176q-16 65 -52 90t-111 25h-111v-291h-102v688h268q98 0 160 -49.5t62 -139.5q0 -71 -39.5 -112t-89.5 -53v-1q38 -10 66.5 -35t42.5 -77zM341 379q60 0 95.5 31t35.5 85q0 48 -31 76.5t-90 28.5h-166v-221h156zM307 799l72 83h85l-96 -125h-122l-95 125
h85z" />
    <glyph glyph-name="uni0156.ss11" horiz-adv-x="641" 
d="M608 0h-104l-45 176q-16 65 -52 90t-111 25h-111v-291h-102v688h268q98 0 160 -49.5t62 -139.5q0 -71 -39.5 -112t-89.5 -53v-1q38 -10 66.5 -35t42.5 -77zM341 379q60 0 95.5 31t35.5 85q0 48 -31 76.5t-90 28.5h-166v-221h156zM336 -147h-38v99h91v-83l-39 -122h-45z
" />
    <glyph glyph-name="uni1EB6.ss12" horiz-adv-x="689" 
d="M253.5 783.5q-36.5 32.5 -43.5 90.5h70q12 -61 69 -61q29 0 46 16.5t22 44.5h70q-7 -58 -43.5 -90.5t-94.5 -32.5q-59 0 -95.5 32.5zM408 688l268 -688h-104l-68 181h-319l-68 -181h-104l268 688h127zM471 267l-127 335l-127 -335h254zM387 -98q16 -17 16 -41t-16 -41
t-42 -17t-42 17t-16 41t16 41t42 17t42 -17z" />
    <glyph glyph-name="uni1EAC.ss12" horiz-adv-x="689" 
d="M427 757l-72 83l-71 -83h-85l95 125h122l96 -125h-85zM408 688l268 -688h-104l-68 181h-319l-68 -181h-104l268 688h127zM471 267l-127 335l-127 -335h254zM387 -98q16 -17 16 -41t-16 -41t-42 -17t-42 17t-16 41t16 41t42 17t42 -17z" />
    <glyph glyph-name="Adieresis.ss12" horiz-adv-x="689" 
d="M676 0h-104l-68 181h-319l-68 -181h-104l268 688h127zM471 267l-127 335l-127 -335h254zM206 782q-16 17 -16 41t16 41t42 17t42 -17t16 -41t-16 -41t-42 -17t-42 17zM400 782q-16 17 -16 41t16 41t42 17t42 -17t16 -41t-16 -41t-42 -17t-42 17z" />
    <glyph glyph-name="uni0226.ss12" horiz-adv-x="689" 
d="M676 0h-104l-68 181h-319l-68 -181h-104l268 688h127zM471 267l-127 335l-127 -335h254zM303 782q-16 17 -16 41t16 41t42 17t42 -17t16 -41t-16 -41t-42 -17t-42 17z" />
    <glyph glyph-name="uni1EA0.ss12" horiz-adv-x="689" 
d="M408 688l268 -688h-104l-68 181h-319l-68 -181h-104l268 688h127zM471 267l-127 335l-127 -335h254zM387 -98q16 -17 16 -41t-16 -41t-42 -17t-42 17t-16 41t16 41t42 17t42 -17z" />
    <glyph glyph-name="Cdotaccent.ss12" horiz-adv-x="717" 
d="M204 33q-76 45 -117.5 126t-41.5 185q0 102 41.5 183t118 127t176.5 46q83 0 146.5 -31.5t103 -82t54.5 -110.5l-105 -25q-16 69 -67 116.5t-133 47.5q-70 0 -122 -34.5t-80 -96t-28 -140.5q0 -80 28 -141.5t80 -95.5t123 -34q84 0 135 46t69 123l105 -25
q-29 -102 -109 -165.5t-201 -63.5q-100 0 -176 45zM341 782q-16 17 -16 41t16 41t42 17t42 -17t16 -41t-16 -41t-42 -17t-42 17z" />
    <glyph glyph-name="uni1EC6.ss12" horiz-adv-x="584" 
d="M381 757l-71 82l-71 -82h-85l95 125h121l96 -125h-85zM185 317v-229h354v-88h-456v688h442v-88h-340v-196h320v-87h-320zM367 -98q16 -17 16 -41t-16 -41t-42 -17t-42 17t-16 41t16 41t42 17t42 -17z" />
    <glyph glyph-name="Edieresis.ss12" horiz-adv-x="584" 
d="M185 317v-229h354v-88h-456v688h442v-88h-340v-196h320v-87h-320zM171 782q-16 17 -16 41t16 41t42 17t42 -17t16 -41t-16 -41t-42 -17t-42 17zM365 782q-16 17 -16 41t16 41t42 17t42 -17t16 -41t-16 -41t-42 -17t-42 17z" />
    <glyph glyph-name="Edotaccent.ss12" horiz-adv-x="584" 
d="M185 317v-229h354v-88h-456v688h442v-88h-340v-196h320v-87h-320zM268 782q-16 17 -16 41t16 41t42 17t42 -17t16 -41t-16 -41t-42 -17t-42 17z" />
    <glyph glyph-name="uni1EB8.ss12" horiz-adv-x="584" 
d="M185 317v-229h354v-88h-456v688h442v-88h-340v-196h320v-87h-320zM367 -98q16 -17 16 -41t-16 -41t-42 -17t-42 17t-16 41t16 41t42 17t42 -17z" />
    <glyph glyph-name="uni0122.ss12" horiz-adv-x="763" 
d="M202.5 33q-74.5 45 -116 126t-41.5 185t42.5 185t119.5 126t178 45q83 0 146 -29t102.5 -75t57.5 -97l-105 -31q-18 62 -69.5 104.5t-132.5 42.5q-69 0 -122.5 -34t-83 -95.5t-29.5 -141.5q0 -81 29 -142.5t82 -95t123 -33.5q99 0 155.5 56.5t60.5 156.5h-231v88h330
v-374h-96v102h-1q-28 -49 -86.5 -81.5t-143.5 -32.5q-94 0 -168.5 45zM356 -204q40 23 52 59q-4 -1 -11 -1q-21 0 -34.5 13.5t-13.5 36.5q0 22 14 37t37 15q24 0 38.5 -16.5t14.5 -46.5q0 -47 -26.5 -82t-70.5 -57v42z" />
    <glyph glyph-name="Gdotaccent.ss12" horiz-adv-x="763" 
d="M202.5 33q-74.5 45 -116 126t-41.5 185t42.5 185t119.5 126t178 45q83 0 146 -29t102.5 -75t57.5 -97l-105 -31q-18 62 -69.5 104.5t-132.5 42.5q-69 0 -122.5 -34t-83 -95.5t-29.5 -141.5q0 -81 29 -142.5t82 -95t123 -33.5q99 0 155.5 56.5t60.5 156.5h-231v88h330
v-374h-96v102h-1q-28 -49 -86.5 -81.5t-143.5 -32.5q-94 0 -168.5 45zM347 782q-16 17 -16 41t16 41t42 17t42 -17t16 -41t-16 -41t-42 -17t-42 17z" />
    <glyph glyph-name="Idieresis.ss12" horiz-adv-x="268" 
d="M185 0h-102v688h102v-688zM-5 782q-16 17 -16 41t16 41t42 17t42 -17t16 -41t-16 -41t-42 -17t-42 17zM189 782q-16 17 -16 41t16 41t42 17t42 -17t16 -41t-16 -41t-42 -17t-42 17z" />
    <glyph glyph-name="Idotaccent.ss12" horiz-adv-x="268" 
d="M90 779.5q-17 17.5 -17 44.5q0 26 17 43t44 17q28 0 45 -17t17 -43q0 -27 -17 -44.5t-45 -17.5q-27 0 -44 17.5zM185 0h-102v688h102v-688z" />
    <glyph glyph-name="uni1ECA.ss12" horiz-adv-x="268" 
d="M185 0h-102v688h102v-688zM92 -180q-16 17 -16 41t16 41t42 17t42 -17t16 -41t-16 -41t-42 -17t-42 17z" />
    <glyph glyph-name="uni0136.ss12" horiz-adv-x="655" 
d="M623 688l-314 -310l362 -378h-135l-351 367v-367h-102v688h102v-315l308 315h130zM374.5 -60.5q14.5 -16.5 14.5 -46.5q0 -47 -26.5 -82t-70.5 -57v42q40 23 52 59q-4 -1 -11 -1q-21 0 -34.5 13.5t-13.5 36.5q0 22 14 37t37 15q24 0 38.5 -16.5z" />
    <glyph glyph-name="uni013B.ss12" horiz-adv-x="548" 
d="M533 0h-450v688h102v-600h348v-88zM267 -204q40 23 52 59q-4 -1 -11 -1q-21 0 -34.5 13.5t-13.5 36.5q0 22 14 37t37 15q24 0 38.5 -16.5t14.5 -46.5q0 -47 -26.5 -82t-70.5 -57v42z" />
    <glyph glyph-name="Ldot.ss12" horiz-adv-x="550" 
d="M533 0h-450v688h102v-600h348v-88zM361.5 297q-17.5 19 -17.5 47t17.5 46.5t46.5 18.5t46.5 -18.5t17.5 -46.5t-17.5 -47t-46.5 -19t-46.5 19z" />
    <glyph glyph-name="uni0145.ss12" horiz-adv-x="755" 
d="M572 92v596h100v-688h-154l-335 598v-598h-100v688h155zM414.5 -60.5q14.5 -16.5 14.5 -46.5q0 -47 -26.5 -82t-70.5 -57v42q40 23 52 59q-4 -1 -11 -1q-21 0 -34.5 13.5t-13.5 36.5q0 22 14 37t37 15q24 0 38.5 -16.5z" />
    <glyph glyph-name="uni1ED8.ss12" horiz-adv-x="760" 
d="M451 757l-71 82l-71 -82h-85l95 125h122l96 -125h-86zM556.5 653.5q76.5 -46.5 118 -128t41.5 -181.5t-41.5 -181.5t-118 -128t-176.5 -46.5t-176.5 46.5t-118 128t-41.5 181.5t41.5 181.5t118 128t176.5 46.5t176.5 -46.5zM503 108.5q52 35.5 80 97.5t28 138t-28 138
t-80.5 97.5t-122.5 35.5t-122.5 -35.5t-80.5 -97.5t-28 -138t28 -138t80.5 -97.5t122.5 -35.5q71 0 123 35.5zM422 -98q16 -17 16 -41t-16 -41t-42 -17t-42 17t-16 41t16 41t42 17t42 -17z" />
    <glyph glyph-name="Odieresis.ss12" horiz-adv-x="760" 
d="M203.5 34.5q-76.5 46.5 -118 128t-41.5 181.5t41.5 181.5t118 128t176.5 46.5t176.5 -46.5t118 -128t41.5 -181.5t-41.5 -181.5t-118 -128t-176.5 -46.5t-176.5 46.5zM503 108.5q52 35.5 80 97.5t28 138t-28 138t-80.5 97.5t-122.5 35.5t-122.5 -35.5t-80.5 -97.5
t-28 -138t28 -138t80.5 -97.5t122.5 -35.5q71 0 123 35.5zM241 782q-16 17 -16 41t16 41t42 17t42 -17t16 -41t-16 -41t-42 -17t-42 17zM435 782q-16 17 -16 41t16 41t42 17t42 -17t16 -41t-16 -41t-42 -17t-42 17z" />
    <glyph glyph-name="uni1ECC.ss12" horiz-adv-x="760" 
d="M203.5 34.5q-76.5 46.5 -118 128t-41.5 181.5t41.5 181.5t118 128t176.5 46.5t176.5 -46.5t118 -128t41.5 -181.5t-41.5 -181.5t-118 -128t-176.5 -46.5t-176.5 46.5zM503 108.5q52 35.5 80 97.5t28 138t-28 138t-80.5 97.5t-122.5 35.5t-122.5 -35.5t-80.5 -97.5
t-28 -138t28 -138t80.5 -97.5t122.5 -35.5q71 0 123 35.5zM338 -180q-16 17 -16 41t16 41t42 17t42 -17t16 -41t-16 -41t-42 -17t-42 17z" />
    <glyph glyph-name="uni1EE2.ss12" horiz-adv-x="760" 
d="M683.5 507q32.5 -74 32.5 -163q0 -100 -41.5 -181.5t-118 -128t-176.5 -46.5t-176.5 46.5t-118 128t-41.5 181.5t41.5 181.5t118 128t176.5 46.5q42 0 100 -7q13 -1 38.5 -3t41.5 -2q28 0 43 11.5t15 38.5v37h84v-36q0 -52 -28 -78.5t-83 -31.5q60 -48 92.5 -122z
M503 108.5q52 35.5 80 97.5t28 138t-28 138t-80.5 97.5t-122.5 35.5t-122.5 -35.5t-80.5 -97.5t-28 -138t28 -138t80.5 -97.5t122.5 -35.5q71 0 123 35.5zM422 -98q16 -17 16 -41t-16 -41t-42 -17t-42 17t-16 41t16 41t42 17t42 -17z" />
    <glyph glyph-name="uni0156.ss12" horiz-adv-x="635" 
d="M614 0h-119l-192 294h-118v-294h-102v688h267q102 0 162 -50t60 -146q0 -80 -43.5 -127.5t-115.5 -63.5zM185 600v-219h160q60 0 93 29t33 80q0 52 -30.5 81t-90.5 29h-165zM372.5 -60.5q14.5 -16.5 14.5 -46.5q0 -47 -26.5 -82t-70.5 -57v42q40 23 52 59q-4 -1 -11 -1
q-21 0 -34.5 13.5t-13.5 36.5q0 22 14 37t37 15q24 0 38.5 -16.5z" />
    <glyph glyph-name="uni0218.ss12" horiz-adv-x="642" 
d="M126.5 47q-80.5 59 -93.5 180l105 16q10 -88 60 -131.5t133 -43.5q75 0 122.5 34t47.5 90q0 46 -30.5 69t-103.5 39l-99 22q-101 22 -155 64t-54 120q0 55 32.5 99.5t91.5 69.5t134 25q113 0 183.5 -54t81.5 -149l-105 -16q-8 66 -50 102.5t-113 36.5q-69 0 -110.5 -31.5
t-41.5 -77.5q0 -44 30 -64t101 -36l99 -21q106 -23 159.5 -64.5t53.5 -122.5q0 -67 -38.5 -115.5t-101.5 -74t-136 -25.5q-122 0 -202.5 59zM280 -204q40 23 52 59q-4 -1 -11 -1q-21 0 -34.5 13.5t-13.5 36.5q0 22 14 37t37 15q24 0 38.5 -16.5t14.5 -46.5q0 -47 -26.5 -82
t-70.5 -57v42z" />
    <glyph glyph-name="uni021A.ss12" horiz-adv-x="555" 
d="M329 0h-102v600h-212v88h525v-88h-211v-600zM232 -204q40 23 52 59q-4 -1 -11 -1q-21 0 -34.5 13.5t-13.5 36.5q0 22 14 37t37 15q24 0 38.5 -16.5t14.5 -46.5q0 -47 -26.5 -82t-70.5 -57v42z" />
    <glyph glyph-name="Udieresis.ss12" horiz-adv-x="685" 
d="M145.5 59q-69.5 71 -69.5 202v427h103v-419q0 -92 40 -142.5t123 -50.5q86 0 125 50t39 143v419h102v-427q0 -132 -69.5 -202.5t-196.5 -70.5t-196.5 71zM203 782q-16 17 -16 41t16 41t42 17t42 -17t16 -41t-16 -41t-42 -17t-42 17zM397 782q-16 17 -16 41t16 41t42 17
t42 -17t16 -41t-16 -41t-42 -17t-42 17z" />
    <glyph glyph-name="uni1EE4.ss12" horiz-adv-x="685" 
d="M145.5 59q-69.5 71 -69.5 202v427h103v-419q0 -92 40 -142.5t123 -50.5q86 0 125 50t39 143v419h102v-427q0 -132 -69.5 -202.5t-196.5 -70.5t-196.5 71zM300 -180q-16 17 -16 41t16 41t42 17t42 -17t16 -41t-16 -41t-42 -17t-42 17z" />
    <glyph glyph-name="uni1EF0.ss12" horiz-adv-x="731" 
d="M650 775h84v-36q0 -55 -32.5 -81.5t-93.5 -29.5v-367q0 -132 -69.5 -202.5t-196.5 -70.5t-196.5 71t-69.5 202v427h103v-419q0 -92 40 -142.5t123 -50.5q86 0 125 50t39 143v419h90q28 0 41 11.5t13 38.5v37zM384 -98q16 -17 16 -41t-16 -41t-42 -17t-42 17t-16 41t16 41
t42 17t42 -17z" />
    <glyph glyph-name="Wdieresis.ss12" horiz-adv-x="945" 
d="M674 148l144 540h106l-194 -688h-103l-154 556l-154 -556h-103l-195 688h105l145 -542l150 542h103zM334 782q-16 17 -16 41t16 41t42 17t42 -17t16 -41t-16 -41t-42 -17t-42 17zM528 782q-16 17 -16 41t16 41t42 17t42 -17t16 -41t-16 -41t-42 -17t-42 17z" />
    <glyph glyph-name="Ydieresis.ss12" horiz-adv-x="635" 
d="M317 361l182 327h118l-249 -421v-267h-101v267l-249 421h117zM178 782q-16 17 -16 41t16 41t42 17t42 -17t16 -41t-16 -41t-42 -17t-42 17zM372 782q-16 17 -16 41t16 41t42 17t42 -17t16 -41t-16 -41t-42 -17t-42 17z" />
    <glyph glyph-name="uni1EF4.ss12" horiz-adv-x="635" 
d="M368 0h-101v267l-249 421h117l182 -327l182 327h118l-249 -421v-267zM360 -98q16 -17 16 -41t-16 -41t-42 -17q-27 0 -42.5 17t-15.5 41t15.5 41t42.5 17q26 0 42 -17z" />
    <glyph glyph-name="Zdotaccent.ss12" horiz-adv-x="583" 
d="M549 0h-516v76l379 526h-366v86h492v-78l-378 -524h389v-86zM252 781q-16 17 -16 41t16 41t42 17t42 -17t16 -41t-16 -41t-42 -17t-42 17z" />
    <glyph glyph-name="uni0122.ss07.ss12" horiz-adv-x="742" 
d="M209 32.5q-81 44.5 -122.5 124.5t-41.5 187q0 104 42 185t120 126t182 45q120 0 194 -52t101 -135l-105 -31q-18 59 -66 96t-125 37q-74 0 -127.5 -34t-82 -95.5t-28.5 -141.5q0 -129 68 -200t192 -71q90 0 172 35v178h-215v88h317v-317q-132 -69 -281 -69
q-113 0 -194 44.5zM348 -204q40 23 52 59q-4 -1 -11 -1q-21 0 -34.5 13.5t-13.5 36.5q0 22 14 37t37 15q24 0 38.5 -16.5t14.5 -46.5q0 -47 -26.5 -82t-70.5 -57v42z" />
    <glyph glyph-name="Gdotaccent.ss07.ss12" horiz-adv-x="742" 
d="M209 32.5q-81 44.5 -122.5 124.5t-41.5 187q0 104 42 185t120 126t182 45q120 0 194 -52t101 -135l-105 -31q-18 59 -66 96t-125 37q-74 0 -127.5 -34t-82 -95.5t-28.5 -141.5q0 -129 68 -200t192 -71q90 0 172 35v178h-215v88h317v-317q-132 -69 -281 -69
q-113 0 -194 44.5zM348 782q-16 17 -16 41t16 41t42 17t42 -17t16 -41t-16 -41t-42 -17t-42 17z" />
    <glyph glyph-name="uni0122.ss08.ss12" horiz-adv-x="755" 
d="M205 33.5q-77 45.5 -119 126.5t-42 184q0 101 42 182t119.5 127.5t179.5 46.5q121 0 198 -59t108 -142l-106 -31q-19 62 -69.5 104.5t-130.5 42.5q-70 0 -123.5 -34t-83 -95.5t-29.5 -141.5q0 -81 29.5 -142.5t83 -95t123.5 -33.5q97 0 155.5 57.5t66.5 155.5h-241v88
h346v-47q0 -105 -40.5 -181.5t-115 -117t-172.5 -40.5q-102 0 -179 45.5zM347 -204q40 23 52 59q-4 -1 -11 -1q-21 0 -34.5 13.5t-13.5 36.5q0 22 14 37t37 15q24 0 38.5 -16.5t14.5 -46.5q0 -47 -26.5 -82t-70.5 -57v42z" />
    <glyph glyph-name="Gdotaccent.ss08.ss12" horiz-adv-x="755" 
d="M205 33.5q-77 45.5 -119 126.5t-42 184q0 101 42 182t119.5 127.5t179.5 46.5q121 0 198 -59t108 -142l-106 -31q-19 62 -69.5 104.5t-130.5 42.5q-70 0 -123.5 -34t-83 -95.5t-29.5 -141.5q0 -81 29.5 -142.5t83 -95t123.5 -33.5q97 0 155.5 57.5t66.5 155.5h-241v88
h346v-47q0 -105 -40.5 -181.5t-115 -117t-172.5 -40.5q-102 0 -179 45.5zM347 782q-16 17 -16 41t16 41t42 17t42 -17t16 -41t-16 -41t-42 -17t-42 17z" />
    <glyph glyph-name="Idieresis.ss09.ss12" horiz-adv-x="349" 
d="M301 0h-254v83h76v522h-76v83h254v-83h-76v-522h76v-83zM35 782q-16 17 -16 41t16 41t42 17t42 -17t16 -41t-16 -41t-42 -17t-42 17zM229 782q-16 17 -16 41t16 41t42 17t42 -17t16 -41t-16 -41t-42 -17t-42 17z" />
    <glyph glyph-name="Idotaccent.ss09.ss12" horiz-adv-x="349" 
d="M130 779.5q-17 17.5 -17 44.5q0 26 17 43t45 17q27 0 44 -17t17 -43q0 -27 -17 -44.5t-44 -17.5q-28 0 -45 17.5zM301 0h-254v83h76v522h-76v83h254v-83h-76v-522h76v-83z" />
    <glyph glyph-name="uni1ECA.ss09.ss12" horiz-adv-x="349" 
d="M301 0h-254v83h76v522h-76v83h254v-83h-76v-522h76v-83zM132.5 -180q-15.5 17 -15.5 41t15.5 41t42.5 17q26 0 41.5 -17t15.5 -41t-15.5 -41t-41.5 -17q-27 0 -42.5 17z" />
    <glyph glyph-name="uni0156.ss11.ss12" horiz-adv-x="641" 
d="M608 0h-104l-45 176q-16 65 -52 90t-111 25h-111v-291h-102v688h268q98 0 160 -49.5t62 -139.5q0 -71 -39.5 -112t-89.5 -53v-1q38 -10 66.5 -35t42.5 -77zM341 379q60 0 95.5 31t35.5 85q0 48 -31 76.5t-90 28.5h-166v-221h156zM380.5 -60.5q14.5 -16.5 14.5 -46.5
q0 -47 -26.5 -82t-70.5 -57v42q40 23 52 59q-4 -1 -11 -1q-21 0 -34.5 13.5t-13.5 36.5q0 22 14 37t37 15q24 0 38.5 -16.5z" />
    <glyph glyph-name="a" unicode="a" horiz-adv-x="518" 
d="M127 5.5q-39 17.5 -62.5 50.5t-23.5 78q0 65 42.5 101t126.5 53l70 14q41 9 58 21.5t17 41.5q0 30 -24.5 48.5t-67.5 18.5q-49 0 -79.5 -28.5t-33.5 -76.5l-100 9q5 78 62.5 124t148.5 46q92 0 142.5 -43t50.5 -124v-339h-94v55h-1q-19 -29 -57.5 -48t-90.5 -19
q-45 0 -84 17.5zM324.5 93q34.5 33 34.5 89v65q-68 -11 -108 -21.5t-62 -23.5q-47 -24 -47 -66q0 -34 26 -55t68 -21q54 0 88.5 33z" />
    <glyph glyph-name="aacute" unicode="&#xe1;" horiz-adv-x="518" 
d="M127 5.5q-39 17.5 -62.5 50.5t-23.5 78q0 65 42.5 101t126.5 53l70 14q41 9 58 21.5t17 41.5q0 30 -24.5 48.5t-67.5 18.5q-49 0 -79.5 -28.5t-33.5 -76.5l-100 9q5 78 62.5 124t148.5 46q92 0 142.5 -43t50.5 -124v-339h-94v55h-1q-19 -29 -57.5 -48t-90.5 -19
q-45 0 -84 17.5zM324.5 93q34.5 33 34.5 89v65q-68 -11 -108 -21.5t-62 -23.5q-47 -24 -47 -66q0 -34 26 -55t68 -21q54 0 88.5 33zM300 562h-96l90 126h128z" />
    <glyph glyph-name="abreve" unicode="&#x103;" horiz-adv-x="518" 
d="M127 5.5q-39 17.5 -62.5 50.5t-23.5 78q0 65 42.5 101t126.5 53l70 14q41 9 58 21.5t17 41.5q0 30 -24.5 48.5t-67.5 18.5q-49 0 -79.5 -28.5t-33.5 -76.5l-100 9q5 78 62.5 124t148.5 46q92 0 142.5 -43t50.5 -124v-339h-94v55h-1q-19 -29 -57.5 -48t-90.5 -19
q-45 0 -84 17.5zM324.5 93q34.5 33 34.5 89v65q-68 -11 -108 -21.5t-62 -23.5q-47 -24 -47 -66q0 -34 26 -55t68 -21q54 0 88.5 33zM165.5 589.5q-36.5 32.5 -43.5 90.5h70q12 -61 69 -61q29 0 46 16.5t22 44.5h70q-7 -58 -43.5 -90.5t-94.5 -32.5q-59 0 -95.5 32.5z" />
    <glyph glyph-name="uni1EAF" unicode="&#x1eaf;" horiz-adv-x="518" 
d="M290 694h-74l70 110h99zM165.5 589.5q-36.5 32.5 -43.5 90.5h70q5 -28 22 -44.5t46 -16.5q57 0 69 61h70q-7 -58 -43.5 -90.5t-95.5 -32.5q-58 0 -94.5 32.5zM127 5.5q-39 17.5 -62.5 50.5t-23.5 78q0 65 42.5 101t126.5 53l70 14q41 9 58 21.5t17 41.5q0 30 -24.5 48.5
t-67.5 18.5q-49 0 -79.5 -28.5t-33.5 -76.5l-100 9q5 78 62.5 124t148.5 46q92 0 142.5 -43t50.5 -124v-339h-94v55h-1q-19 -29 -57.5 -48t-90.5 -19q-45 0 -84 17.5zM324.5 93q34.5 33 34.5 89v65q-68 -11 -108 -21.5t-62 -23.5q-47 -24 -47 -66q0 -34 26 -55t68 -21
q54 0 88.5 33z" />
    <glyph glyph-name="uni1EB7" unicode="&#x1eb7;" horiz-adv-x="518" 
d="M127 5.5q-39 17.5 -62.5 50.5t-23.5 78q0 65 42.5 101t126.5 53l70 14q41 9 58 21.5t17 41.5q0 30 -24.5 48.5t-67.5 18.5q-49 0 -79.5 -28.5t-33.5 -76.5l-100 9q5 78 62.5 124t148.5 46q92 0 142.5 -43t50.5 -124v-339h-94v55h-1q-19 -29 -57.5 -48t-90.5 -19
q-45 0 -84 17.5zM324.5 93q34.5 33 34.5 89v65q-68 -11 -108 -21.5t-62 -23.5q-47 -24 -47 -66q0 -34 26 -55t68 -21q54 0 88.5 33zM303 -194h-98v119h98v-119zM182.5 589.5q-36.5 32.5 -43.5 90.5h70q12 -61 69 -61q29 0 46 16.5t22 44.5h70q-7 -58 -43.5 -90.5
t-94.5 -32.5q-59 0 -95.5 32.5z" />
    <glyph glyph-name="uni1EB1" unicode="&#x1eb1;" horiz-adv-x="518" 
d="M305 694h-75l-95 110h100zM165.5 589.5q-36.5 32.5 -43.5 90.5h70q5 -28 22 -44.5t46 -16.5q57 0 69 61h70q-7 -58 -43.5 -90.5t-95.5 -32.5q-58 0 -94.5 32.5zM127 5.5q-39 17.5 -62.5 50.5t-23.5 78q0 65 42.5 101t126.5 53l70 14q41 9 58 21.5t17 41.5
q0 30 -24.5 48.5t-67.5 18.5q-49 0 -79.5 -28.5t-33.5 -76.5l-100 9q5 78 62.5 124t148.5 46q92 0 142.5 -43t50.5 -124v-339h-94v55h-1q-19 -29 -57.5 -48t-90.5 -19q-45 0 -84 17.5zM324.5 93q34.5 33 34.5 89v65q-68 -11 -108 -21.5t-62 -23.5q-47 -24 -47 -66
q0 -34 26 -55t68 -21q54 0 88.5 33z" />
    <glyph glyph-name="uni1EB3" unicode="&#x1eb3;" horiz-adv-x="518" 
d="M238 698q34 18 34 41q0 12 -10.5 18.5t-27.5 6.5q-27 0 -53 -11v46q12 6 29.5 10.5t34.5 4.5q38 0 62.5 -17.5t24.5 -52.5q0 -55 -75 -79zM165.5 589.5q-36.5 32.5 -43.5 90.5h70q5 -28 22 -44.5t46 -16.5q57 0 69 61h70q-7 -58 -43.5 -90.5t-95.5 -32.5
q-58 0 -94.5 32.5zM127 5.5q-39 17.5 -62.5 50.5t-23.5 78q0 65 42.5 101t126.5 53l70 14q41 9 58 21.5t17 41.5q0 30 -24.5 48.5t-67.5 18.5q-49 0 -79.5 -28.5t-33.5 -76.5l-100 9q5 78 62.5 124t148.5 46q92 0 142.5 -43t50.5 -124v-339h-94v55h-1q-19 -29 -57.5 -48
t-90.5 -19q-45 0 -84 17.5zM324.5 93q34.5 33 34.5 89v65q-68 -11 -108 -21.5t-62 -23.5q-47 -24 -47 -66q0 -34 26 -55t68 -21q54 0 88.5 33z" />
    <glyph glyph-name="uni1EB5" unicode="&#x1eb5;" horiz-adv-x="518" 
d="M283.5 718q-13.5 6 -33.5 18q-14 9 -22.5 13t-17.5 4q-28 0 -36 -41l-50 17q10 38 31.5 60t54.5 22q18 0 32.5 -6.5t32.5 -18.5q14 -9 22.5 -13t17.5 -4q27 0 36 42l50 -17q-22 -82 -86 -82q-18 0 -31.5 6zM165.5 589.5q-36.5 32.5 -43.5 90.5h70q5 -28 22 -44.5
t46 -16.5q57 0 69 61h70q-7 -58 -43.5 -90.5t-95.5 -32.5q-58 0 -94.5 32.5zM127 5.5q-39 17.5 -62.5 50.5t-23.5 78q0 65 42.5 101t126.5 53l70 14q41 9 58 21.5t17 41.5q0 30 -24.5 48.5t-67.5 18.5q-49 0 -79.5 -28.5t-33.5 -76.5l-100 9q5 78 62.5 124t148.5 46
q92 0 142.5 -43t50.5 -124v-339h-94v55h-1q-19 -29 -57.5 -48t-90.5 -19q-45 0 -84 17.5zM324.5 93q34.5 33 34.5 89v65q-68 -11 -108 -21.5t-62 -23.5q-47 -24 -47 -66q0 -34 26 -55t68 -21q54 0 88.5 33z" />
    <glyph glyph-name="acircumflex" unicode="&#xe2;" horiz-adv-x="518" 
d="M127 5.5q-39 17.5 -62.5 50.5t-23.5 78q0 65 42.5 101t126.5 53l70 14q41 9 58 21.5t17 41.5q0 30 -24.5 48.5t-67.5 18.5q-49 0 -79.5 -28.5t-33.5 -76.5l-100 9q5 78 62.5 124t148.5 46q92 0 142.5 -43t50.5 -124v-339h-94v55h-1q-19 -29 -57.5 -48t-90.5 -19
q-45 0 -84 17.5zM324.5 93q34.5 33 34.5 89v65q-68 -11 -108 -21.5t-62 -23.5q-47 -24 -47 -66q0 -34 26 -55t68 -21q54 0 88.5 33zM321 688l96 -125h-85l-72 83l-71 -83h-85l95 125h122z" />
    <glyph glyph-name="uni1EA5" unicode="&#x1ea5;" horiz-adv-x="518" 
d="M388 659l70 111h100l-95 -111h-75zM332 563l-72 83l-71 -83h-85l95 125h122l96 -125h-85zM403.5 463q50.5 -43 50.5 -124v-339h-94v55h-1q-19 -29 -57.5 -48t-90.5 -19q-45 0 -84 17.5t-62.5 50.5t-23.5 78q0 65 42.5 101t126.5 53l70 14q41 9 58 21.5t17 41.5
q0 30 -24.5 48.5t-67.5 18.5q-49 0 -79.5 -28.5t-33.5 -76.5l-100 9q5 78 62.5 124t148.5 46q92 0 142.5 -43zM359 247q-68 -11 -108 -21.5t-62 -23.5q-47 -24 -47 -66q0 -34 26 -55t68 -21q54 0 88.5 33t34.5 89v65z" />
    <glyph glyph-name="uni1EAD" unicode="&#x1ead;" horiz-adv-x="518" 
d="M127 5.5q-39 17.5 -62.5 50.5t-23.5 78q0 65 42.5 101t126.5 53l70 14q41 9 58 21.5t17 41.5q0 30 -24.5 48.5t-67.5 18.5q-49 0 -79.5 -28.5t-33.5 -76.5l-100 9q5 78 62.5 124t148.5 46q92 0 142.5 -43t50.5 -124v-339h-94v55h-1q-19 -29 -57.5 -48t-90.5 -19
q-45 0 -84 17.5zM324.5 93q34.5 33 34.5 89v65q-68 -11 -108 -21.5t-62 -23.5q-47 -24 -47 -66q0 -34 26 -55t68 -21q54 0 88.5 33zM303 -194h-98v119h98v-119zM345 688l96 -125h-85l-72 83l-71 -83h-85l95 125h122z" />
    <glyph glyph-name="uni1EA7" unicode="&#x1ea7;" horiz-adv-x="518" 
d="M407 770l70 -111h-75l-95 111h100zM332 563l-72 83l-71 -83h-85l95 125h122l96 -125h-85zM403.5 463q50.5 -43 50.5 -124v-339h-94v55h-1q-19 -29 -57.5 -48t-90.5 -19q-45 0 -84 17.5t-62.5 50.5t-23.5 78q0 65 42.5 101t126.5 53l70 14q41 9 58 21.5t17 41.5
q0 30 -24.5 48.5t-67.5 18.5q-49 0 -79.5 -28.5t-33.5 -76.5l-100 9q5 78 62.5 124t148.5 46q92 0 142.5 -43zM359 247q-68 -11 -108 -21.5t-62 -23.5q-47 -24 -47 -66q0 -34 26 -55t68 -21q54 0 88.5 33t34.5 89v65z" />
    <glyph glyph-name="uni1EA9" unicode="&#x1ea9;" horiz-adv-x="518" 
d="M453 761q23 -16 23 -49q0 -52 -71 -74l-17 31q31 16 31 38q0 23 -36 23q-12 0 -26 -3t-23 -7v44q26 13 60 13q36 0 59 -16zM332 563l-72 83l-71 -83h-85l95 125h122l96 -125h-85zM403.5 463q50.5 -43 50.5 -124v-339h-94v55h-1q-19 -29 -57.5 -48t-90.5 -19
q-45 0 -84 17.5t-62.5 50.5t-23.5 78q0 65 42.5 101t126.5 53l70 14q41 9 58 21.5t17 41.5q0 30 -24.5 48.5t-67.5 18.5q-49 0 -79.5 -28.5t-33.5 -76.5l-100 9q5 78 62.5 124t148.5 46q92 0 142.5 -43zM359 247q-68 -11 -108 -21.5t-62 -23.5q-47 -24 -47 -66q0 -34 26 -55
t68 -21q54 0 88.5 33t34.5 89v65z" />
    <glyph glyph-name="uni1EAB" unicode="&#x1eab;" horiz-adv-x="518" 
d="M173 718l-50 17q10 38 31.5 60t54.5 22q18 0 32.5 -6.5t32.5 -18.5q14 -9 22.5 -13t17.5 -4q27 0 36 42l50 -18q-22 -81 -86 -81q-18 0 -31.5 6t-33.5 18q-14 9 -22.5 13t-17.5 4q-28 0 -36 -41zM332 563l-72 83l-71 -83h-85l95 125h122l96 -125h-85zM403.5 463
q50.5 -43 50.5 -124v-339h-94v55h-1q-19 -29 -57.5 -48t-90.5 -19q-45 0 -84 17.5t-62.5 50.5t-23.5 78q0 65 42.5 101t126.5 53l70 14q41 9 58 21.5t17 41.5q0 30 -24.5 48.5t-67.5 18.5q-49 0 -79.5 -28.5t-33.5 -76.5l-100 9q5 78 62.5 124t148.5 46q92 0 142.5 -43z
M359 247q-68 -11 -108 -21.5t-62 -23.5q-47 -24 -47 -66q0 -34 26 -55t68 -21q54 0 88.5 33t34.5 89v65z" />
    <glyph glyph-name="adieresis" unicode="&#xe4;" horiz-adv-x="518" 
d="M127 5.5q-39 17.5 -62.5 50.5t-23.5 78q0 65 42.5 101t126.5 53l70 14q41 9 58 21.5t17 41.5q0 30 -24.5 48.5t-67.5 18.5q-49 0 -79.5 -28.5t-33.5 -76.5l-100 9q5 78 62.5 124t148.5 46q92 0 142.5 -43t50.5 -124v-339h-94v55h-1q-19 -29 -57.5 -48t-90.5 -19
q-45 0 -84 17.5zM324.5 93q34.5 33 34.5 89v65q-68 -11 -108 -21.5t-62 -23.5q-47 -24 -47 -66q0 -34 26 -55t68 -21q54 0 88.5 33zM213 569h-98v119h98v-119zM407 569h-98v119h98v-119z" />
    <glyph glyph-name="uni0227" unicode="&#x227;" horiz-adv-x="518" 
d="M127 5.5q-39 17.5 -62.5 50.5t-23.5 78q0 65 42.5 101t126.5 53l70 14q41 9 58 21.5t17 41.5q0 30 -24.5 48.5t-67.5 18.5q-49 0 -79.5 -28.5t-33.5 -76.5l-100 9q5 78 62.5 124t148.5 46q92 0 142.5 -43t50.5 -124v-339h-94v55h-1q-19 -29 -57.5 -48t-90.5 -19
q-45 0 -84 17.5zM324.5 93q34.5 33 34.5 89v65q-68 -11 -108 -21.5t-62 -23.5q-47 -24 -47 -66q0 -34 26 -55t68 -21q54 0 88.5 33zM310 569h-98v119h98v-119z" />
    <glyph glyph-name="uni1EA1" unicode="&#x1ea1;" horiz-adv-x="518" 
d="M127 5.5q-39 17.5 -62.5 50.5t-23.5 78q0 65 42.5 101t126.5 53l70 14q41 9 58 21.5t17 41.5q0 30 -24.5 48.5t-67.5 18.5q-49 0 -79.5 -28.5t-33.5 -76.5l-100 9q5 78 62.5 124t148.5 46q92 0 142.5 -43t50.5 -124v-339h-94v55h-1q-19 -29 -57.5 -48t-90.5 -19
q-45 0 -84 17.5zM324.5 93q34.5 33 34.5 89v65q-68 -11 -108 -21.5t-62 -23.5q-47 -24 -47 -66q0 -34 26 -55t68 -21q54 0 88.5 33zM303 -194h-98v119h98v-119z" />
    <glyph glyph-name="agrave" unicode="&#xe0;" horiz-adv-x="518" 
d="M127 5.5q-39 17.5 -62.5 50.5t-23.5 78q0 65 42.5 101t126.5 53l70 14q41 9 58 21.5t17 41.5q0 30 -24.5 48.5t-67.5 18.5q-49 0 -79.5 -28.5t-33.5 -76.5l-100 9q5 78 62.5 124t148.5 46q92 0 142.5 -43t50.5 -124v-339h-94v55h-1q-19 -29 -57.5 -48t-90.5 -19
q-45 0 -84 17.5zM324.5 93q34.5 33 34.5 89v65q-68 -11 -108 -21.5t-62 -23.5q-47 -24 -47 -66q0 -34 26 -55t68 -21q54 0 88.5 33zM317 562h-96l-123 126h129z" />
    <glyph glyph-name="uni1EA3" unicode="&#x1ea3;" horiz-adv-x="518" 
d="M238 573q42 22 42 51q0 31 -48 31q-16 0 -34.5 -4t-31.5 -9v58q15 7 37 12.5t43 5.5q48 0 79 -22t31 -65q0 -67 -95 -99zM127 5.5q-39 17.5 -62.5 50.5t-23.5 78q0 65 42.5 101t126.5 53l70 14q41 9 58 21.5t17 41.5q0 30 -24.5 48.5t-67.5 18.5q-49 0 -79.5 -28.5
t-33.5 -76.5l-100 9q5 78 62.5 124t148.5 46q92 0 142.5 -43t50.5 -124v-339h-94v55h-1q-19 -29 -57.5 -48t-90.5 -19q-45 0 -84 17.5zM324.5 93q34.5 33 34.5 89v65q-68 -11 -108 -21.5t-62 -23.5q-47 -24 -47 -66q0 -34 26 -55t68 -21q54 0 88.5 33z" />
    <glyph glyph-name="amacron" unicode="&#x101;" horiz-adv-x="518" 
d="M127 5.5q-39 17.5 -62.5 50.5t-23.5 78q0 65 42.5 101t126.5 53l70 14q41 9 58 21.5t17 41.5q0 30 -24.5 48.5t-67.5 18.5q-49 0 -79.5 -28.5t-33.5 -76.5l-100 9q5 78 62.5 124t148.5 46q92 0 142.5 -43t50.5 -124v-339h-94v55h-1q-19 -29 -57.5 -48t-90.5 -19
q-45 0 -84 17.5zM324.5 93q34.5 33 34.5 89v65q-68 -11 -108 -21.5t-62 -23.5q-47 -24 -47 -66q0 -34 26 -55t68 -21q54 0 88.5 33zM411 579h-302v78h302v-78z" />
    <glyph glyph-name="aogonek" unicode="&#x105;" horiz-adv-x="518" 
d="M459 -214q-33 -12 -71 -12q-46 0 -79 26t-33 75q0 74 84 127v53h-1q-19 -29 -57.5 -48t-90.5 -19q-45 0 -84 17.5t-62.5 50.5t-23.5 78q0 65 42.5 101t126.5 53l70 14q41 9 58 21.5t17 41.5q0 30 -24.5 48.5t-67.5 18.5q-49 0 -79.5 -28.5t-33.5 -76.5l-100 9
q5 78 62.5 124t148.5 46q92 0 142.5 -43t50.5 -124v-339q-85 -54 -85 -107q0 -22 13 -31.5t32 -9.5q13 0 26 3zM359 247q-68 -11 -108 -21.5t-62 -23.5q-47 -24 -47 -66q0 -34 26 -55t68 -21q54 0 88.5 33t34.5 89v65z" />
    <glyph glyph-name="aring" unicode="&#xe5;" horiz-adv-x="518" 
d="M127 5.5q-39 17.5 -62.5 50.5t-23.5 78q0 65 42.5 101t126.5 53l70 14q41 9 58 21.5t17 41.5q0 30 -24.5 48.5t-67.5 18.5q-49 0 -79.5 -28.5t-33.5 -76.5l-100 9q5 78 62.5 124t148.5 46q92 0 142.5 -43t50.5 -124v-339h-94v55h-1q-19 -29 -57.5 -48t-90.5 -19
q-45 0 -84 17.5zM324.5 93q34.5 33 34.5 89v65q-68 -11 -108 -21.5t-62 -23.5q-47 -24 -47 -66q0 -34 26 -55t68 -21q54 0 88.5 33zM197 570.5q-26 25.5 -26 63.5q0 37 26 62t64 25q37 0 63.5 -25t26.5 -62q0 -38 -26.5 -63.5t-63.5 -25.5q-38 0 -64 25.5zM286.5 608
q10.5 10 10.5 26q0 15 -10.5 25.5t-25.5 10.5q-16 0 -26 -10.5t-10 -25.5q0 -16 10 -26t26 -10q15 0 25.5 10z" />
    <glyph glyph-name="aringacute" unicode="&#x1fb;" horiz-adv-x="518" 
d="M303 719h-86l81 113h116zM197 552.5q-26 25.5 -26 62.5t26 62.5t63 25.5q38 0 64.5 -25.5t26.5 -62.5t-26.5 -62.5t-64.5 -25.5q-37 0 -63 25.5zM286 589.5q11 10.5 11 25.5q0 16 -11 26.5t-26 10.5t-25 -10.5t-10 -26.5q0 -15 10 -25.5t25 -10.5t26 10.5zM127 5.5
q-39 17.5 -62.5 50.5t-23.5 78q0 65 42.5 101t126.5 53l70 14q41 9 58 21.5t17 41.5q0 30 -24.5 48.5t-67.5 18.5q-49 0 -79.5 -28.5t-33.5 -76.5l-100 9q5 78 62.5 124t148.5 46q92 0 142.5 -43t50.5 -124v-339h-94v55h-1q-19 -29 -57.5 -48t-90.5 -19q-45 0 -84 17.5z
M324.5 93q34.5 33 34.5 89v65q-68 -11 -108 -21.5t-62 -23.5q-47 -24 -47 -66q0 -34 26 -55t68 -21q54 0 88.5 33z" />
    <glyph glyph-name="atilde" unicode="&#xe3;" horiz-adv-x="518" 
d="M127 5.5q-39 17.5 -62.5 50.5t-23.5 78q0 65 42.5 101t126.5 53l70 14q41 9 58 21.5t17 41.5q0 30 -24.5 48.5t-67.5 18.5q-49 0 -79.5 -28.5t-33.5 -76.5l-100 9q5 78 62.5 124t148.5 46q92 0 142.5 -43t50.5 -124v-339h-94v55h-1q-19 -29 -57.5 -48t-90.5 -19
q-45 0 -84 17.5zM324.5 93q34.5 33 34.5 89v65q-68 -11 -108 -21.5t-62 -23.5q-47 -24 -47 -66q0 -34 26 -55t68 -21q54 0 88.5 33zM287 569.5q-18 8.5 -41 23.5q-16 11 -26.5 16.5t-22.5 5.5q-35 0 -45 -53l-63 22q13 48 39.5 75.5t68.5 27.5q23 0 40.5 -8t41.5 -23
q16 -11 27 -16.5t22 -5.5q35 0 45 52l63 -21q-28 -104 -108 -104q-23 0 -41 8.5z" />
    <glyph glyph-name="ae" unicode="&#xe6;" horiz-adv-x="858" 
d="M820 225h-364q3 -76 41 -117t97 -41q49 0 81 25.5t43 71.5l99 -13q-20 -70 -75 -116.5t-149 -46.5q-58 0 -105.5 22t-78.5 64q-30 -40 -77 -63t-105 -23q-79 0 -132.5 40t-53.5 107q0 64 42 100.5t127 52.5l67 13q42 9 59 22t17 41q0 31 -24.5 49.5t-67.5 18.5
q-48 0 -78 -29t-32 -78l-101 10q4 80 62.5 125.5t147.5 45.5q57 0 100 -18t67 -53q31 34 74.5 52.5t93.5 18.5q64 0 115.5 -31.5t80.5 -88.5t29 -129v-32zM718 299q-3 54 -36.5 91.5t-86.5 37.5q-56 0 -93.5 -36t-44.5 -93h261zM358 247q-127 -21 -170 -44q-46 -25 -46 -65
q0 -33 26.5 -52t67.5 -19q52 0 87 31.5t35 87.5v61z" />
    <glyph glyph-name="aeacute" unicode="&#x1fd;" horiz-adv-x="859" 
d="M820 225h-364q3 -76 41 -117t97 -41q49 0 81 25.5t43 71.5l99 -13q-20 -70 -75 -116.5t-149 -46.5q-58 0 -105.5 22t-78.5 64q-30 -40 -77 -63t-105 -23q-79 0 -132.5 40t-53.5 107q0 64 42 100.5t127 52.5l67 13q42 9 59 22t17 41q0 31 -24.5 49.5t-67.5 18.5
q-48 0 -78 -29t-32 -78l-101 10q4 80 62.5 125.5t147.5 45.5q57 0 100 -18t67 -53q31 34 74.5 52.5t93.5 18.5q64 0 115.5 -31.5t80.5 -88.5t29 -129v-32zM718 299q-3 54 -36.5 91.5t-86.5 37.5q-56 0 -93.5 -36t-44.5 -93h261zM358 247q-127 -21 -170 -44q-46 -25 -46 -65
q0 -33 26.5 -52t67.5 -19q52 0 87 31.5t35 87.5v61zM464 562h-96l90 126h128z" />
    <glyph glyph-name="uni01E3" unicode="&#x1e3;" horiz-adv-x="859" 
d="M820 225h-364q3 -76 41 -117t97 -41q49 0 81 25.5t43 71.5l99 -13q-20 -70 -75 -116.5t-149 -46.5q-58 0 -105.5 22t-78.5 64q-30 -40 -77 -63t-105 -23q-79 0 -132.5 40t-53.5 107q0 64 42 100.5t127 52.5l67 13q42 9 59 22t17 41q0 31 -24.5 49.5t-67.5 18.5
q-48 0 -78 -29t-32 -78l-101 10q4 80 62.5 125.5t147.5 45.5q57 0 100 -18t67 -53q31 34 74.5 52.5t93.5 18.5q64 0 115.5 -31.5t80.5 -88.5t29 -129v-32zM718 299q-3 54 -36.5 91.5t-86.5 37.5q-56 0 -93.5 -36t-44.5 -93h261zM358 247q-127 -21 -170 -44q-46 -25 -46 -65
q0 -33 26.5 -52t67.5 -19q52 0 87 31.5t35 87.5v61zM576 579h-302v78h302v-78z" />
    <glyph glyph-name="b" unicode="b" horiz-adv-x="586" 
d="M227.5 13.5q-40.5 25.5 -62.5 61.5v-75h-97v688h98v-267q23 35 63 60t98 25q66 0 116.5 -32.5t78 -91.5t27.5 -135t-27.5 -135t-78 -91.5t-116.5 -32.5q-59 0 -99.5 25.5zM411.5 117.5q36.5 49.5 36.5 129.5t-36.5 129.5t-104.5 49.5q-67 0 -106 -50t-39 -129t39 -129
t106 -50q68 0 104.5 49.5z" />
    <glyph glyph-name="c" unicode="c" horiz-adv-x="531" 
d="M152 20.5q-55 32.5 -85 91.5t-30 135t30.5 135t85 91.5t125.5 32.5q89 0 146 -46.5t78 -122.5l-101 -25q-10 51 -41 82.5t-83 31.5q-62 0 -100.5 -47.5t-38.5 -130.5q0 -86 38.5 -133t102.5 -47q50 0 82.5 29.5t43.5 84.5l100 -25q-24 -76 -80 -122.5t-146 -46.5
q-72 0 -127 32.5z" />
    <glyph glyph-name="cacute" unicode="&#x107;" horiz-adv-x="531" 
d="M152 20.5q-55 32.5 -85 91.5t-30 135t30.5 135t85 91.5t125.5 32.5q89 0 146 -46.5t78 -122.5l-101 -25q-10 51 -41 82.5t-83 31.5q-62 0 -100.5 -47.5t-38.5 -130.5q0 -86 38.5 -133t102.5 -47q50 0 82.5 29.5t43.5 84.5l100 -25q-24 -76 -80 -122.5t-146 -46.5
q-72 0 -127 32.5zM317 562h-96l90 126h128z" />
    <glyph glyph-name="ccaron" unicode="&#x10d;" horiz-adv-x="531" 
d="M152 20.5q-55 32.5 -85 91.5t-30 135t30.5 135t85 91.5t125.5 32.5q89 0 146 -46.5t78 -122.5l-101 -25q-10 51 -41 82.5t-83 31.5q-62 0 -100.5 -47.5t-38.5 -130.5q0 -86 38.5 -133t102.5 -47q50 0 82.5 29.5t43.5 84.5l100 -25q-24 -76 -80 -122.5t-146 -46.5
q-72 0 -127 32.5zM278 605l72 83h85l-96 -125h-122l-95 125h85z" />
    <glyph glyph-name="ccedilla" unicode="&#xe7;" horiz-adv-x="531" 
d="M505 157q-22 -70 -71 -115t-127 -53l-8 -24q33 -5 55.5 -24t22.5 -52q0 -48 -42 -71.5t-104 -23.5h-11v57h4q31 0 52 9.5t21 28.5q0 29 -48 29h-28l25 72q-95 11 -152 81t-57 176q0 76 30.5 135t85 91.5t125.5 32.5q89 0 146 -46.5t78 -122.5l-101 -25q-10 51 -41 82.5
t-83 31.5q-62 0 -100.5 -47.5t-38.5 -130.5q0 -86 38.5 -133t102.5 -47q50 0 82.5 29.5t43.5 84.5z" />
    <glyph glyph-name="ccircumflex" unicode="&#x109;" horiz-adv-x="531" 
d="M152 20.5q-55 32.5 -85 91.5t-30 135t30.5 135t85 91.5t125.5 32.5q89 0 146 -46.5t78 -122.5l-101 -25q-10 51 -41 82.5t-83 31.5q-62 0 -100.5 -47.5t-38.5 -130.5q0 -86 38.5 -133t102.5 -47q50 0 82.5 29.5t43.5 84.5l100 -25q-24 -76 -80 -122.5t-146 -46.5
q-72 0 -127 32.5zM339 688l96 -125h-85l-72 83l-71 -83h-85l95 125h122z" />
    <glyph glyph-name="cdotaccent" unicode="&#x10b;" horiz-adv-x="531" 
d="M152 20.5q-55 32.5 -85 91.5t-30 135t30.5 135t85 91.5t125.5 32.5q89 0 146 -46.5t78 -122.5l-101 -25q-10 51 -41 82.5t-83 31.5q-62 0 -100.5 -47.5t-38.5 -130.5q0 -86 38.5 -133t102.5 -47q50 0 82.5 29.5t43.5 84.5l100 -25q-24 -76 -80 -122.5t-146 -46.5
q-72 0 -127 32.5zM327 569h-98v119h98v-119z" />
    <glyph glyph-name="d" unicode="d" horiz-adv-x="586" 
d="M143 21q-50 33 -78 91.5t-28 134.5t28 134.5t78 91.5t116 33q58 0 99 -25t63 -60v267h97v-688h-97v75q-22 -36 -62.5 -61.5t-99.5 -25.5q-66 0 -116 33zM385 118q39 50 39 129t-39 129t-106 50q-68 0 -104.5 -49.5t-36.5 -129.5t36.5 -129.5t104.5 -49.5q67 0 106 50z
" />
    <glyph glyph-name="eth" unicode="&#xf0;" horiz-adv-x="566" 
d="M334 642q94 -76 143 -161.5t49 -197.5q0 -92 -30.5 -158.5t-86 -101.5t-128.5 -35q-74 0 -129.5 34.5t-85.5 94t-30 131.5t28.5 131t82 93t125.5 34q42 0 78.5 -17.5t60.5 -49.5l2 2q-19 37 -61 80.5t-96 80.5l-126 -66l-42 47l106 55q-37 21 -85 43l60 61
q76 -40 108 -60l110 57l42 -47zM387 119q37 51 37 129q0 76 -37 127t-106 51t-106 -50.5t-37 -127.5q0 -78 37 -129t106 -51t106 51z" />
    <glyph glyph-name="dcaron" unicode="&#x10f;" horiz-adv-x="601" 
d="M143 21q-50 33 -78 91.5t-28 134.5t28 134.5t78 91.5t116 33q58 0 99 -25t63 -60v267h97v-688h-97v75q-22 -36 -62.5 -61.5t-99.5 -25.5q-66 0 -116 33zM614 535h-61l31 153h87zM385 118q39 50 39 129t-39 129t-106 50q-68 0 -104.5 -49.5t-36.5 -129.5t36.5 -129.5
t104.5 -49.5q67 0 106 50z" />
    <glyph glyph-name="dcroat" unicode="&#x111;" horiz-adv-x="586" 
d="M585 630v-71h-67v-559h-97v75q-22 -36 -62.5 -61.5t-99.5 -25.5q-66 0 -116 33t-78 91.5t-28 134.5t28 134.5t78 91.5t116 33q58 0 99 -25t63 -60v138h-153v71h153v58h97v-58h67zM385 118q39 50 39 129t-39 129t-106 50q-68 0 -104.5 -49.5t-36.5 -129.5t36.5 -129.5
t104.5 -49.5q67 0 106 50z" />
    <glyph glyph-name="e" unicode="e" horiz-adv-x="535" 
d="M498 225h-365q3 -76 41 -117t97 -41q50 0 81.5 25.5t43.5 71.5l99 -13q-20 -69 -75.5 -116t-149.5 -47q-68 0 -120.5 30.5t-82.5 89t-30 138.5q0 78 31 137t85 91t120 32q64 0 115.5 -31.5t80.5 -88.5t29 -129v-32zM396 299q-3 54 -37 91.5t-86 37.5q-56 0 -94 -36
t-44 -93h261z" />
    <glyph glyph-name="eacute" unicode="&#xe9;" horiz-adv-x="535" 
d="M498 225h-365q3 -76 41 -117t97 -41q50 0 81.5 25.5t43.5 71.5l99 -13q-20 -69 -75.5 -116t-149.5 -47q-68 0 -120.5 30.5t-82.5 89t-30 138.5q0 78 31 137t85 91t120 32q64 0 115.5 -31.5t80.5 -88.5t29 -129v-32zM396 299q-3 54 -37 91.5t-86 37.5q-56 0 -94 -36
t-44 -93h261zM311 562h-96l90 126h128z" />
    <glyph glyph-name="ebreve" unicode="&#x115;" horiz-adv-x="535" 
d="M498 225h-365q3 -76 41 -117t97 -41q50 0 81.5 25.5t43.5 71.5l99 -13q-20 -69 -75.5 -116t-149.5 -47q-68 0 -120.5 30.5t-82.5 89t-30 138.5q0 78 31 137t85 91t120 32q64 0 115.5 -31.5t80.5 -88.5t29 -129v-32zM396 299q-3 54 -37 91.5t-86 37.5q-56 0 -94 -36
t-44 -93h261zM176.5 589.5q-36.5 32.5 -43.5 90.5h70q12 -61 69 -61q29 0 46 16.5t22 44.5h70q-7 -58 -43.5 -90.5t-94.5 -32.5q-59 0 -95.5 32.5z" />
    <glyph glyph-name="ecaron" unicode="&#x11b;" horiz-adv-x="535" 
d="M498 225h-365q3 -76 41 -117t97 -41q50 0 81.5 25.5t43.5 71.5l99 -13q-20 -69 -75.5 -116t-149.5 -47q-68 0 -120.5 30.5t-82.5 89t-30 138.5q0 78 31 137t85 91t120 32q64 0 115.5 -31.5t80.5 -88.5t29 -129v-32zM396 299q-3 54 -37 91.5t-86 37.5q-56 0 -94 -36
t-44 -93h261zM271 605l72 83h85l-96 -125h-122l-95 125h85z" />
    <glyph glyph-name="ecircumflex" unicode="&#xea;" horiz-adv-x="535" 
d="M498 225h-365q3 -76 41 -117t97 -41q50 0 81.5 25.5t43.5 71.5l99 -13q-20 -69 -75.5 -116t-149.5 -47q-68 0 -120.5 30.5t-82.5 89t-30 138.5q0 78 31 137t85 91t120 32q64 0 115.5 -31.5t80.5 -88.5t29 -129v-32zM396 299q-3 54 -37 91.5t-86 37.5q-56 0 -94 -36
t-44 -93h261zM332 688l96 -125h-85l-72 83l-71 -83h-85l95 125h122z" />
    <glyph glyph-name="uni1EBF" unicode="&#x1ebf;" horiz-adv-x="535" 
d="M469 770h100l-95 -111h-75zM343 563l-72 83l-71 -83h-85l95 125h122l96 -125h-85zM388.5 474.5q51.5 -31.5 80.5 -88.5t29 -129v-32h-365q3 -76 41 -117t97 -41q50 0 81.5 25.5t43.5 71.5l99 -13q-20 -69 -75.5 -116t-149.5 -47q-68 0 -120.5 30.5t-82.5 89t-30 138.5
q0 78 31 137t85 91t120 32q64 0 115.5 -31.5zM396 299q-3 54 -37 91.5t-86 37.5q-56 0 -94 -36t-44 -93h261z" />
    <glyph glyph-name="uni1EC7" unicode="&#x1ec7;" horiz-adv-x="535" 
d="M498 225h-365q3 -76 41 -117t97 -41q50 0 81.5 25.5t43.5 71.5l99 -13q-20 -69 -75.5 -116t-149.5 -47q-68 0 -120.5 30.5t-82.5 89t-30 138.5q0 78 31 137t85 91t120 32q64 0 115.5 -31.5t80.5 -88.5t29 -129v-32zM396 299q-3 54 -37 91.5t-86 37.5q-56 0 -94 -36
t-44 -93h261zM317 -194h-98v119h98v-119zM332 688l96 -125h-85l-72 83l-71 -83h-85l95 125h122z" />
    <glyph glyph-name="uni1EC1" unicode="&#x1ec1;" horiz-adv-x="535" 
d="M418 770l70 -111h-75l-95 111h100zM343 563l-72 83l-71 -83h-85l95 125h122l96 -125h-85zM498 225h-365q3 -76 41 -117t97 -41q50 0 81.5 25.5t43.5 71.5l99 -13q-20 -69 -75.5 -116t-149.5 -47q-68 0 -120.5 30.5t-82.5 89t-30 138.5q0 78 31 137t85 91t120 32
q64 0 115.5 -31.5t80.5 -88.5t29 -129v-32zM396 299q-3 54 -37 91.5t-86 37.5q-56 0 -94 -36t-44 -93h261z" />
    <glyph glyph-name="uni1EC3" unicode="&#x1ec3;" horiz-adv-x="535" 
d="M394 730q-12 0 -26 -3t-23 -7v44q26 13 60 13q36 0 59 -16t23 -49q0 -52 -71 -74l-17 31q31 16 31 38q0 23 -36 23zM343 563l-72 83l-71 -83h-85l95 125h122l96 -125h-85zM498 225h-365q3 -76 41 -117t97 -41q50 0 81.5 25.5t43.5 71.5l99 -13q-20 -69 -75.5 -116
t-149.5 -47q-68 0 -120.5 30.5t-82.5 89t-30 138.5q0 78 31 137t85 91t120 32q64 0 115.5 -31.5t80.5 -88.5t29 -129v-32zM396 299q-3 54 -37 91.5t-86 37.5q-56 0 -94 -36t-44 -93h261z" />
    <glyph glyph-name="uni1EC5" unicode="&#x1ec5;" horiz-adv-x="535" 
d="M184 718l-50 17q10 38 31.5 60t54.5 22q18 0 32.5 -6.5t32.5 -18.5q14 -9 22.5 -13t17.5 -4q27 0 36 42l50 -18q-22 -81 -86 -81q-18 0 -31.5 6t-33.5 18q-14 9 -22.5 13t-17.5 4q-28 0 -36 -41zM343 563l-72 83l-71 -83h-85l95 125h122l96 -125h-85zM498 225h-365
q3 -76 41 -117t97 -41q50 0 81.5 25.5t43.5 71.5l99 -13q-20 -69 -75.5 -116t-149.5 -47q-68 0 -120.5 30.5t-82.5 89t-30 138.5q0 78 31 137t85 91t120 32q64 0 115.5 -31.5t80.5 -88.5t29 -129v-32zM396 299q-3 54 -37 91.5t-86 37.5q-56 0 -94 -36t-44 -93h261z" />
    <glyph glyph-name="edieresis" unicode="&#xeb;" horiz-adv-x="535" 
d="M498 225h-365q3 -76 41 -117t97 -41q50 0 81.5 25.5t43.5 71.5l99 -13q-20 -69 -75.5 -116t-149.5 -47q-68 0 -120.5 30.5t-82.5 89t-30 138.5q0 78 31 137t85 91t120 32q64 0 115.5 -31.5t80.5 -88.5t29 -129v-32zM396 299q-3 54 -37 91.5t-86 37.5q-56 0 -94 -36
t-44 -93h261zM224 569h-98v119h98v-119zM418 569h-98v119h98v-119z" />
    <glyph glyph-name="edotaccent" unicode="&#x117;" horiz-adv-x="535" 
d="M498 225h-365q3 -76 41 -117t97 -41q50 0 81.5 25.5t43.5 71.5l99 -13q-20 -69 -75.5 -116t-149.5 -47q-68 0 -120.5 30.5t-82.5 89t-30 138.5q0 78 31 137t85 91t120 32q64 0 115.5 -31.5t80.5 -88.5t29 -129v-32zM396 299q-3 54 -37 91.5t-86 37.5q-56 0 -94 -36
t-44 -93h261zM321 569h-98v119h98v-119z" />
    <glyph glyph-name="uni1EB9" unicode="&#x1eb9;" horiz-adv-x="535" 
d="M498 225h-365q3 -76 41 -117t97 -41q50 0 81.5 25.5t43.5 71.5l99 -13q-20 -69 -75.5 -116t-149.5 -47q-68 0 -120.5 30.5t-82.5 89t-30 138.5q0 78 31 137t85 91t120 32q64 0 115.5 -31.5t80.5 -88.5t29 -129v-32zM396 299q-3 54 -37 91.5t-86 37.5q-56 0 -94 -36
t-44 -93h261zM317 -194h-98v119h98v-119z" />
    <glyph glyph-name="egrave" unicode="&#xe8;" horiz-adv-x="535" 
d="M498 225h-365q3 -76 41 -117t97 -41q50 0 81.5 25.5t43.5 71.5l99 -13q-20 -69 -75.5 -116t-149.5 -47q-68 0 -120.5 30.5t-82.5 89t-30 138.5q0 78 31 137t85 91t120 32q64 0 115.5 -31.5t80.5 -88.5t29 -129v-32zM396 299q-3 54 -37 91.5t-86 37.5q-56 0 -94 -36
t-44 -93h261zM328 562h-96l-123 126h129z" />
    <glyph glyph-name="uni1EBB" unicode="&#x1ebb;" horiz-adv-x="535" 
d="M243 655q-16 0 -34.5 -4t-31.5 -9v58q15 7 37 12.5t43 5.5q48 0 79 -22t31 -65q0 -67 -95 -99l-23 41q42 22 42 51q0 31 -48 31zM498 225h-365q3 -76 41 -117t97 -41q50 0 81.5 25.5t43.5 71.5l99 -13q-20 -69 -75.5 -116t-149.5 -47q-68 0 -120.5 30.5t-82.5 89
t-30 138.5q0 78 31 137t85 91t120 32q64 0 115.5 -31.5t80.5 -88.5t29 -129v-32zM396 299q-3 54 -37 91.5t-86 37.5q-56 0 -94 -36t-44 -93h261z" />
    <glyph glyph-name="emacron" unicode="&#x113;" horiz-adv-x="535" 
d="M498 225h-365q3 -76 41 -117t97 -41q50 0 81.5 25.5t43.5 71.5l99 -13q-20 -69 -75.5 -116t-149.5 -47q-68 0 -120.5 30.5t-82.5 89t-30 138.5q0 78 31 137t85 91t120 32q64 0 115.5 -31.5t80.5 -88.5t29 -129v-32zM396 299q-3 54 -37 91.5t-86 37.5q-56 0 -94 -36
t-44 -93h261zM422 579h-302v78h302v-78z" />
    <glyph glyph-name="eogonek" unicode="&#x119;" horiz-adv-x="535" 
d="M498 225h-365q3 -76 41 -117t97 -41q50 0 81.5 25.5t43.5 71.5l99 -13q-13 -46 -42 -83.5t-76 -58.5q-83 -54 -83 -105q0 -22 13.5 -32t32.5 -10q6 0 26 4l18 -69q-33 -12 -70 -12q-47 0 -80 26t-33 75q0 57 51 103q-97 6 -156 74t-59 183q0 78 31 137t85 91t120 32
q64 0 115.5 -31.5t80.5 -88.5t29 -129v-32zM396 299q-3 54 -37 91.5t-86 37.5q-56 0 -94 -36t-44 -93h261z" />
    <glyph glyph-name="uni1EBD" unicode="&#x1ebd;" horiz-adv-x="535" 
d="M498 225h-365q3 -76 41 -117t97 -41q50 0 81.5 25.5t43.5 71.5l99 -13q-20 -69 -75.5 -116t-149.5 -47q-68 0 -120.5 30.5t-82.5 89t-30 138.5q0 78 31 137t85 91t120 32q64 0 115.5 -31.5t80.5 -88.5t29 -129v-32zM396 299q-3 54 -37 91.5t-86 37.5q-56 0 -94 -36
t-44 -93h261zM298 569.5q-18 8.5 -41 23.5q-16 11 -26.5 16.5t-22.5 5.5q-35 0 -45 -53l-63 22q13 48 39.5 75.5t68.5 27.5q23 0 40.5 -8t41.5 -23q16 -11 27 -16.5t22 -5.5q35 0 45 52l63 -21q-28 -104 -108 -104q-23 0 -41 8.5z" />
    <glyph glyph-name="uni0259" unicode="&#x259;" horiz-adv-x="535" 
d="M386 475.5q53 -30.5 83 -89t30 -138.5q0 -78 -31.5 -137t-85.5 -91t-120 -32q-64 0 -115 31.5t-80.5 88.5t-29.5 129v32h365q-3 76 -41 117t-97 41q-49 0 -81.5 -25.5t-43.5 -71.5l-98 13q20 70 75 116.5t149 46.5q68 0 121 -30.5zM356.5 102q37.5 36 44.5 93h-261
q2 -54 36 -91.5t87 -37.5q56 0 93.5 36z" />
    <glyph glyph-name="f" unicode="f" horiz-adv-x="315" 
d="M105 0v414h-89v80h89v85q0 60 34 90.5t96 30.5q28 0 62 -6v-78q-21 3 -36 3q-29 0 -43.5 -12.5t-14.5 -41.5v-71h99v-80h-99v-414h-98z" />
    <glyph glyph-name="g" unicode="g" horiz-adv-x="566" 
d="M123.5 -152q-59.5 45 -67.5 124l101 12q13 -105 123 -105q56 0 89 32t33 96v97q-23 -35 -61 -57.5t-91 -22.5q-60 0 -108 30t-75.5 84.5t-27.5 126.5t27.5 126.5t75.5 84.5t108 30q53 0 91 -22.5t61 -57.5v68h98v-485q0 -102 -62.5 -154t-161.5 -52q-93 0 -152.5 45z
M368 149.5q36 46.5 36 115.5t-35.5 115.5t-96.5 46.5q-62 0 -97 -45t-35 -117t35 -117t97 -45q60 0 96 46.5z" />
    <glyph glyph-name="gbreve" unicode="&#x11f;" horiz-adv-x="566" 
d="M123.5 -152q-59.5 45 -67.5 124l101 12q13 -105 123 -105q56 0 89 32t33 96v97q-23 -35 -61 -57.5t-91 -22.5q-60 0 -108 30t-75.5 84.5t-27.5 126.5t27.5 126.5t75.5 84.5t108 30q53 0 91 -22.5t61 -57.5v68h98v-485q0 -102 -62.5 -154t-161.5 -52q-93 0 -152.5 45z
M368 149.5q36 46.5 36 115.5t-35.5 115.5t-96.5 46.5q-62 0 -97 -45t-35 -117t35 -117t97 -45q60 0 96 46.5zM182.5 589.5q-36.5 32.5 -43.5 90.5h70q12 -61 69 -61q29 0 46 16.5t22 44.5h70q-7 -58 -43.5 -90.5t-94.5 -32.5q-59 0 -95.5 32.5z" />
    <glyph glyph-name="gcircumflex" unicode="&#x11d;" horiz-adv-x="566" 
d="M123.5 -152q-59.5 45 -67.5 124l101 12q13 -105 123 -105q56 0 89 32t33 96v97q-23 -35 -61 -57.5t-91 -22.5q-60 0 -108 30t-75.5 84.5t-27.5 126.5t27.5 126.5t75.5 84.5t108 30q53 0 91 -22.5t61 -57.5v68h98v-485q0 -102 -62.5 -154t-161.5 -52q-93 0 -152.5 45z
M368 149.5q36 46.5 36 115.5t-35.5 115.5t-96.5 46.5q-62 0 -97 -45t-35 -117t35 -117t97 -45q60 0 96 46.5zM338 688l96 -125h-85l-72 83l-71 -83h-85l95 125h122z" />
    <glyph glyph-name="uni0123" unicode="&#x123;" horiz-adv-x="566" 
d="M323 562h-92v83l40 122h44l-30 -106h38v-99zM123.5 -152q-59.5 45 -67.5 124l101 12q13 -105 123 -105q56 0 89 32t33 96v97q-23 -35 -61 -57.5t-91 -22.5q-60 0 -108 30t-75.5 84.5t-27.5 126.5t27.5 126.5t75.5 84.5t108 30q53 0 91 -22.5t61 -57.5v68h98v-485
q0 -102 -62.5 -154t-161.5 -52q-93 0 -152.5 45zM368 149.5q36 46.5 36 115.5t-35.5 115.5t-96.5 46.5q-62 0 -97 -45t-35 -117t35 -117t97 -45q60 0 96 46.5z" />
    <glyph glyph-name="gdotaccent" unicode="&#x121;" horiz-adv-x="566" 
d="M123.5 -152q-59.5 45 -67.5 124l101 12q13 -105 123 -105q56 0 89 32t33 96v97q-23 -35 -61 -57.5t-91 -22.5q-60 0 -108 30t-75.5 84.5t-27.5 126.5t27.5 126.5t75.5 84.5t108 30q53 0 91 -22.5t61 -57.5v68h98v-485q0 -102 -62.5 -154t-161.5 -52q-93 0 -152.5 45z
M368 149.5q36 46.5 36 115.5t-35.5 115.5t-96.5 46.5q-62 0 -97 -45t-35 -117t35 -117t97 -45q60 0 96 46.5zM327 569h-98v119h98v-119z" />
    <glyph glyph-name="h" unicode="h" horiz-adv-x="557" 
d="M68 0v688h98v-261h1q23 35 62.5 57t91.5 22q79 0 125.5 -48t46.5 -133v-325h-97v280q0 74 -21.5 108.5t-80.5 34.5q-57 0 -92.5 -42t-35.5 -103v-278h-98z" />
    <glyph glyph-name="hbar" unicode="&#x127;" horiz-adv-x="557" 
d="M446.5 458q46.5 -48 46.5 -133v-325h-97v280q0 74 -21.5 108.5t-80.5 34.5q-57 0 -92.5 -42t-35.5 -103v-278h-98v555h-66v71h66v62h98v-62h143v-71h-143v-128h1q23 35 62.5 57t91.5 22q79 0 125.5 -48z" />
    <glyph glyph-name="hcircumflex" unicode="&#x125;" horiz-adv-x="557" 
d="M68 0v688h98v-261h1q23 35 62.5 57t91.5 22q79 0 125.5 -48t46.5 -133v-325h-97v280q0 74 -21.5 108.5t-80.5 34.5q-57 0 -92.5 -42t-35.5 -103v-278h-98zM354 882l96 -125h-85l-72 83l-71 -83h-85l95 125h122z" />
    <glyph glyph-name="i" unicode="i" horiz-adv-x="233" 
d="M166 569h-98v119h98v-119zM166 0h-98v494h98v-494z" />
    <glyph glyph-name="dotlessi" unicode="&#x131;" horiz-adv-x="233" 
d="M166 0h-98v494h98v-494z" />
    <glyph glyph-name="iacute" unicode="&#xed;" horiz-adv-x="233" 
d="M166 0h-98v494h98v-494zM156 562h-96l90 126h128z" />
    <glyph glyph-name="ibreve" unicode="&#x12d;" horiz-adv-x="233" 
d="M166 0h-98v494h98v-494zM21.5 589.5q-36.5 32.5 -43.5 90.5h70q12 -61 69 -61q29 0 46 16.5t22 44.5h70q-7 -58 -43.5 -90.5t-94.5 -32.5q-59 0 -95.5 32.5z" />
    <glyph glyph-name="icircumflex" unicode="&#xee;" horiz-adv-x="233" 
d="M166 0h-98v494h98v-494zM177 688l96 -125h-85l-72 83l-71 -83h-85l95 125h122z" />
    <glyph glyph-name="idieresis" unicode="&#xef;" horiz-adv-x="233" 
d="M166 0h-98v494h98v-494zM69 569h-98v119h98v-119zM263 569h-98v119h98v-119z" />
    <glyph glyph-name="i.loclTRK" horiz-adv-x="233" 
d="M166 569h-98v119h98v-119zM166 0h-98v494h98v-494z" />
    <glyph glyph-name="uni1ECB" unicode="&#x1ecb;" horiz-adv-x="233" 
d="M166 569h-98v119h98v-119zM166 0h-98v494h98v-494zM166 -194h-98v119h98v-119z" />
    <glyph glyph-name="igrave" unicode="&#xec;" horiz-adv-x="233" 
d="M166 0h-98v494h98v-494zM174 562h-96l-123 126h129z" />
    <glyph glyph-name="uni1EC9" unicode="&#x1ec9;" horiz-adv-x="233" 
d="M94 573q42 22 42 51q0 31 -48 31q-31 0 -66 -13v58q16 8 37.5 13t43.5 5q47 0 78 -22t31 -65q0 -68 -94 -99zM166 0h-98v494h98v-494z" />
    <glyph glyph-name="ij" unicode="&#x133;" horiz-adv-x="462" 
d="M166 569h-98v119h98v-119zM166 0h-98v494h98v-494zM394 569h-98v119h98v-119zM199 -190v77q17 -4 38 -4q28 0 43.5 12.5t15.5 46.5v552h98v-550q0 -40 -8 -65q-10 -35 -43 -55.5t-83 -20.5q-36 0 -61 7z" />
    <glyph glyph-name="imacron" unicode="&#x12b;" horiz-adv-x="233" 
d="M166 0h-98v494h98v-494zM268 579h-302v78h302v-78z" />
    <glyph glyph-name="iogonek" unicode="&#x12f;" horiz-adv-x="234" 
d="M68 688h98v-119h-98v119zM170 -214q-33 -12 -70 -12q-46 0 -79.5 26t-33.5 75q0 38 22 70t59 55v494h98v-494q-85 -54 -85 -107q0 -22 13 -31.5t32 -9.5q12 0 26 3z" />
    <glyph glyph-name="itilde" unicode="&#x129;" horiz-adv-x="233" 
d="M166 0h-98v494h98v-494zM143 569.5q-18 8.5 -41 23.5q-16 11 -26.5 16.5t-22.5 5.5q-35 0 -45 -53l-63 22q13 48 39.5 75.5t68.5 27.5q23 0 40.5 -8t41.5 -23q16 -11 27 -16.5t22 -5.5q35 0 45 52l63 -21q-28 -104 -108 -104q-23 0 -41 8.5z" />
    <glyph glyph-name="j" unicode="j" horiz-adv-x="233" 
d="M166 569h-98v119h98v-119zM-29 -190v77q17 -4 38 -4q28 0 43.5 12.5t15.5 46.5v552h98v-550q0 -40 -8 -65q-10 -35 -43 -55.5t-83 -20.5q-36 0 -61 7z" />
    <glyph glyph-name="uni0237" unicode="&#x237;" horiz-adv-x="233" 
d="M-29 -190v77q17 -4 38 -4q28 0 43.5 12.5t15.5 46.5v552h98v-550q0 -40 -8 -65q-10 -35 -43 -55.5t-83 -20.5q-36 0 -61 7z" />
    <glyph glyph-name="jcircumflex" unicode="&#x135;" horiz-adv-x="233" 
d="M-29 -190v77q17 -4 38 -4q28 0 43.5 12.5t15.5 46.5v552h98v-550q0 -40 -8 -65q-10 -35 -43 -55.5t-83 -20.5q-36 0 -61 7zM177 688l96 -125h-85l-72 83l-71 -83h-85l95 125h122z" />
    <glyph glyph-name="k" unicode="k" horiz-adv-x="519" 
d="M281 266l249 -266h-128l-236 256v-256h-98v688h98v-424l212 230h124z" />
    <glyph glyph-name="uni0137" unicode="&#x137;" horiz-adv-x="519" 
d="M502 494l-221 -228l249 -266h-128l-236 256v-256h-98v688h98v-424l212 230h124zM263 -147h-39v99h92v-83l-39 -122h-45z" />
    <glyph glyph-name="kgreenlandic" unicode="&#x138;" horiz-adv-x="519" 
d="M280 266l250 -266h-128l-236 256v-256h-98v494h98v-230l212 230h122z" />
    <glyph glyph-name="l" unicode="l" horiz-adv-x="233" 
d="M166 0h-98v688h98v-688z" />
    <glyph glyph-name="lacute" unicode="&#x13a;" horiz-adv-x="233" 
d="M166 0h-98v688h98v-688zM156 756h-96l90 126h128z" />
    <glyph glyph-name="lcaron" unicode="&#x13e;" horiz-adv-x="248" 
d="M166 0h-98v688h98v-688zM261 535h-61l31 153h87z" />
    <glyph glyph-name="uni013C" unicode="&#x13c;" horiz-adv-x="233" 
d="M166 0h-98v688h98v-688zM123 -253h-44l30 106h-38v99h92v-83z" />
    <glyph glyph-name="ldot" unicode="&#x140;" horiz-adv-x="462" 
d="M166 0h-98v688h98v-688zM405 217h-114v124h114v-124z" />
    <glyph glyph-name="lslash" unicode="&#x142;" horiz-adv-x="314" 
d="M207 424l75 47v-98l-75 -47v-326h-98v265l-76 -48v97l76 48v326h98v-264z" />
    <glyph glyph-name="m" unicode="m" horiz-adv-x="847" 
d="M68 0v494h97v-69h1q19 33 56.5 57t87.5 24q54 0 90.5 -25t53.5 -68q63 93 162 93q81 0 124.5 -50t43.5 -136v-320h-98v283q0 71 -20 105.5t-75 34.5q-50 0 -83 -40t-33 -106v-277h-97v281q0 73 -19.5 107.5t-75.5 34.5q-50 0 -83.5 -40t-33.5 -106v-277h-98z" />
    <glyph glyph-name="n" unicode="n" horiz-adv-x="557" 
d="M68 0v494h97v-68h1q23 34 63.5 57t91.5 23q79 0 125.5 -48t46.5 -133v-325h-97v280q0 74 -21.5 108.5t-80.5 34.5q-57 0 -92.5 -42t-35.5 -103v-278h-98z" />
    <glyph glyph-name="nacute" unicode="&#x144;" horiz-adv-x="557" 
d="M68 0v494h97v-68h1q23 34 63.5 57t91.5 23q79 0 125.5 -48t46.5 -133v-325h-97v280q0 74 -21.5 108.5t-80.5 34.5q-57 0 -92.5 -42t-35.5 -103v-278h-98zM330 562h-96l90 126h128z" />
    <glyph glyph-name="napostrophe" unicode="&#x149;" horiz-adv-x="621" 
d="M68 483h-44l30 106h-38v99h91v-83zM132 0v494h97v-68h1q23 34 63.5 57t92.5 23q78 0 124.5 -48t46.5 -133v-325h-97v280q0 74 -21.5 108.5t-80.5 34.5q-57 0 -92.5 -42t-35.5 -103v-278h-98z" />
    <glyph glyph-name="ncaron" unicode="&#x148;" horiz-adv-x="557" 
d="M68 0v494h97v-68h1q23 34 63.5 57t91.5 23q79 0 125.5 -48t46.5 -133v-325h-97v280q0 74 -21.5 108.5t-80.5 34.5q-57 0 -92.5 -42t-35.5 -103v-278h-98zM290 605l72 83h85l-96 -125h-122l-95 125h85z" />
    <glyph glyph-name="uni0146" unicode="&#x146;" horiz-adv-x="557" 
d="M68 0v494h97v-68h1q23 34 63.5 57t91.5 23q79 0 125.5 -48t46.5 -133v-325h-97v280q0 74 -21.5 108.5t-80.5 34.5q-57 0 -92.5 -42t-35.5 -103v-278h-98zM287 -253h-45l31 106h-38v99h91v-83z" />
    <glyph glyph-name="eng" unicode="&#x14b;" horiz-adv-x="557" 
d="M305 -193v78q16 -2 32 -2q30 0 44.5 12.5t14.5 43.5v341q0 74 -21.5 108.5t-80.5 34.5q-57 0 -92.5 -42t-35.5 -103v-278h-98v494h97v-68h1q23 34 63.5 57t91.5 23q79 0 125.5 -48t46.5 -133v-387q0 -59 -15 -86q-29 -49 -109 -49q-30 0 -64 4z" />
    <glyph glyph-name="ntilde" unicode="&#xf1;" horiz-adv-x="557" 
d="M68 0v494h97v-68h1q23 34 63.5 57t91.5 23q79 0 125.5 -48t46.5 -133v-325h-97v280q0 74 -21.5 108.5t-80.5 34.5q-57 0 -92.5 -42t-35.5 -103v-278h-98zM318 569.5q-18 8.5 -41 23.5q-16 11 -26.5 16.5t-22.5 5.5q-35 0 -45 -53l-63 22q13 48 39.5 75.5t68.5 27.5
q23 0 40.5 -8t41.5 -23q16 -11 27 -16.5t22 -5.5q35 0 45 52l63 -21q-28 -104 -108 -104q-23 0 -41 8.5z" />
    <glyph glyph-name="o" unicode="o" horiz-adv-x="555" 
d="M150 22q-55 34 -84.5 93t-29.5 132t29.5 132t84.5 93t128 34t127.5 -34t84 -93t29.5 -132t-29.5 -132t-84 -93t-127.5 -34t-128 34zM382.5 118.5q35.5 50.5 35.5 128.5t-35.5 128.5t-104.5 50.5t-105 -50.5t-36 -128.5t36 -128.5t105 -50.5t104.5 50.5z" />
    <glyph glyph-name="oacute" unicode="&#xf3;" horiz-adv-x="555" 
d="M150 22q-55 34 -84.5 93t-29.5 132t29.5 132t84.5 93t128 34t127.5 -34t84 -93t29.5 -132t-29.5 -132t-84 -93t-127.5 -34t-128 34zM382.5 118.5q35.5 50.5 35.5 128.5t-35.5 128.5t-104.5 50.5t-105 -50.5t-36 -128.5t36 -128.5t105 -50.5t104.5 50.5zM317 562h-96
l90 126h128z" />
    <glyph glyph-name="obreve" unicode="&#x14f;" horiz-adv-x="555" 
d="M150 22q-55 34 -84.5 93t-29.5 132t29.5 132t84.5 93t128 34t127.5 -34t84 -93t29.5 -132t-29.5 -132t-84 -93t-127.5 -34t-128 34zM382.5 118.5q35.5 50.5 35.5 128.5t-35.5 128.5t-104.5 50.5t-105 -50.5t-36 -128.5t36 -128.5t105 -50.5t104.5 50.5zM182.5 589.5
q-36.5 32.5 -43.5 90.5h70q12 -61 69 -61q29 0 46 16.5t22 44.5h70q-7 -58 -43.5 -90.5t-94.5 -32.5q-59 0 -95.5 32.5z" />
    <glyph glyph-name="ocircumflex" unicode="&#xf4;" horiz-adv-x="555" 
d="M150 22q-55 34 -84.5 93t-29.5 132t29.5 132t84.5 93t128 34t127.5 -34t84 -93t29.5 -132t-29.5 -132t-84 -93t-127.5 -34t-128 34zM382.5 118.5q35.5 50.5 35.5 128.5t-35.5 128.5t-104.5 50.5t-105 -50.5t-36 -128.5t36 -128.5t105 -50.5t104.5 50.5zM338 688l96 -125
h-85l-72 83l-71 -83h-85l95 125h122z" />
    <glyph glyph-name="uni1ED1" unicode="&#x1ed1;" horiz-adv-x="555" 
d="M475 770h100l-95 -111h-75zM349 563l-71 82l-72 -82h-85l96 125h121l96 -125h-85zM405.5 472q54.5 -34 84 -93t29.5 -132t-29.5 -132t-84 -93t-127.5 -34t-128 34t-84.5 93t-29.5 132t29.5 132t84.5 93t128 34t127.5 -34zM382.5 118.5q35.5 50.5 35.5 128.5t-35.5 128.5
t-104.5 50.5t-105 -50.5t-36 -128.5t36 -128.5t105 -50.5t104.5 50.5z" />
    <glyph glyph-name="uni1ED9" unicode="&#x1ed9;" horiz-adv-x="555" 
d="M150 22q-55 34 -84.5 93t-29.5 132t29.5 132t84.5 93t128 34t127.5 -34t84 -93t29.5 -132t-29.5 -132t-84 -93t-127.5 -34t-128 34zM382.5 118.5q35.5 50.5 35.5 128.5t-35.5 128.5t-104.5 50.5t-105 -50.5t-36 -128.5t36 -128.5t105 -50.5t104.5 50.5zM327 -194h-98v119
h98v-119zM338 688l96 -125h-85l-72 83l-71 -83h-85l95 125h122z" />
    <glyph glyph-name="uni1ED3" unicode="&#x1ed3;" horiz-adv-x="555" 
d="M424 770l70 -111h-74l-96 111h100zM349 563l-71 82l-72 -82h-85l96 125h121l96 -125h-85zM405.5 472q54.5 -34 84 -93t29.5 -132t-29.5 -132t-84 -93t-127.5 -34t-128 34t-84.5 93t-29.5 132t29.5 132t84.5 93t128 34t127.5 -34zM382.5 118.5q35.5 50.5 35.5 128.5
t-35.5 128.5t-104.5 50.5t-105 -50.5t-36 -128.5t36 -128.5t105 -50.5t104.5 50.5z" />
    <glyph glyph-name="uni1ED5" unicode="&#x1ed5;" horiz-adv-x="555" 
d="M401 730q-26 0 -50 -10v44q26 13 60 13q36 0 59 -16t23 -49q0 -52 -71 -74l-17 31q31 16 31 38q0 23 -35 23zM349 563l-71 82l-72 -82h-85l96 125h121l96 -125h-85zM405.5 472q54.5 -34 84 -93t29.5 -132t-29.5 -132t-84 -93t-127.5 -34t-128 34t-84.5 93t-29.5 132
t29.5 132t84.5 93t128 34t127.5 -34zM382.5 118.5q35.5 50.5 35.5 128.5t-35.5 128.5t-104.5 50.5t-105 -50.5t-36 -128.5t36 -128.5t105 -50.5t104.5 50.5z" />
    <glyph glyph-name="uni1ED7" unicode="&#x1ed7;" horiz-adv-x="555" 
d="M190 718l-50 17q10 38 31.5 60t54.5 22q19 0 33.5 -6.5t32.5 -18.5q10 -7 20 -12t19 -5q27 0 37 42l50 -18q-24 -81 -87 -81q-18 0 -31.5 6t-33.5 18q-14 9 -22.5 13t-17.5 4q-28 0 -36 -41zM349 563l-71 82l-72 -82h-85l96 125h121l96 -125h-85zM405.5 472
q54.5 -34 84 -93t29.5 -132t-29.5 -132t-84 -93t-127.5 -34t-128 34t-84.5 93t-29.5 132t29.5 132t84.5 93t128 34t127.5 -34zM382.5 118.5q35.5 50.5 35.5 128.5t-35.5 128.5t-104.5 50.5t-105 -50.5t-36 -128.5t36 -128.5t105 -50.5t104.5 50.5z" />
    <glyph glyph-name="odieresis" unicode="&#xf6;" horiz-adv-x="555" 
d="M150 22q-55 34 -84.5 93t-29.5 132t29.5 132t84.5 93t128 34t127.5 -34t84 -93t29.5 -132t-29.5 -132t-84 -93t-127.5 -34t-128 34zM382.5 118.5q35.5 50.5 35.5 128.5t-35.5 128.5t-104.5 50.5t-105 -50.5t-36 -128.5t36 -128.5t105 -50.5t104.5 50.5zM230 569h-98v119
h98v-119zM424 569h-98v119h98v-119z" />
    <glyph glyph-name="uni1ECD" unicode="&#x1ecd;" horiz-adv-x="555" 
d="M150 22q-55 34 -84.5 93t-29.5 132t29.5 132t84.5 93t128 34t127.5 -34t84 -93t29.5 -132t-29.5 -132t-84 -93t-127.5 -34t-128 34zM382.5 118.5q35.5 50.5 35.5 128.5t-35.5 128.5t-104.5 50.5t-105 -50.5t-36 -128.5t36 -128.5t105 -50.5t104.5 50.5zM327 -194h-98v119
h98v-119z" />
    <glyph glyph-name="ograve" unicode="&#xf2;" horiz-adv-x="555" 
d="M150 22q-55 34 -84.5 93t-29.5 132t29.5 132t84.5 93t128 34t127.5 -34t84 -93t29.5 -132t-29.5 -132t-84 -93t-127.5 -34t-128 34zM382.5 118.5q35.5 50.5 35.5 128.5t-35.5 128.5t-104.5 50.5t-105 -50.5t-36 -128.5t36 -128.5t105 -50.5t104.5 50.5zM335 562h-96
l-123 126h129z" />
    <glyph glyph-name="uni1ECF" unicode="&#x1ecf;" horiz-adv-x="555" 
d="M255 573q42 22 42 51q0 31 -48 31q-31 0 -66 -13v58q16 8 37.5 13t43.5 5q47 0 78 -22t31 -65q0 -68 -95 -99zM150 22q-55 34 -84.5 93t-29.5 132t29.5 132t84.5 93t128 34t127.5 -34t84 -93t29.5 -132t-29.5 -132t-84 -93t-127.5 -34t-128 34zM382.5 118.5
q35.5 50.5 35.5 128.5t-35.5 128.5t-104.5 50.5t-105 -50.5t-36 -128.5t36 -128.5t105 -50.5t104.5 50.5z" />
    <glyph glyph-name="ohorn" unicode="&#x1a1;" horiz-adv-x="562" 
d="M536 545q0 -89 -89 -106q35 -35 53.5 -84.5t18.5 -107.5q0 -73 -29.5 -132t-84 -93t-127.5 -34t-128 34t-84.5 93t-29.5 132t29.5 132t84.5 93t128 34h1q25 0 76 -7q28 -5 45 -5q27 0 39.5 11.5t12.5 38.5v37h84v-36zM382.5 118.5q35.5 50.5 35.5 128.5t-35.5 128.5
t-104.5 50.5t-105 -50.5t-36 -128.5t36 -128.5t105 -50.5t104.5 50.5z" />
    <glyph glyph-name="uni1EDB" unicode="&#x1edb;" horiz-adv-x="562" 
d="M536 545q0 -89 -89 -106q35 -35 53.5 -84.5t18.5 -107.5q0 -73 -29.5 -132t-84 -93t-127.5 -34t-128 34t-84.5 93t-29.5 132t29.5 132t84.5 93t128 34h1q25 0 76 -7q28 -5 45 -5q27 0 39.5 11.5t12.5 38.5v37h84v-36zM382.5 118.5q35.5 50.5 35.5 128.5t-35.5 128.5
t-104.5 50.5t-105 -50.5t-36 -128.5t36 -128.5t105 -50.5t104.5 50.5zM317 562h-96l90 126h128z" />
    <glyph glyph-name="uni1EE3" unicode="&#x1ee3;" horiz-adv-x="562" 
d="M536 545q0 -89 -89 -106q35 -35 53.5 -84.5t18.5 -107.5q0 -73 -29.5 -132t-84 -93t-127.5 -34t-128 34t-84.5 93t-29.5 132t29.5 132t84.5 93t128 34h1q25 0 76 -7q28 -5 45 -5q27 0 39.5 11.5t12.5 38.5v37h84v-36zM382.5 118.5q35.5 50.5 35.5 128.5t-35.5 128.5
t-104.5 50.5t-105 -50.5t-36 -128.5t36 -128.5t105 -50.5t104.5 50.5zM327 -194h-98v119h98v-119z" />
    <glyph glyph-name="uni1EDD" unicode="&#x1edd;" horiz-adv-x="562" 
d="M536 545q0 -89 -89 -106q35 -35 53.5 -84.5t18.5 -107.5q0 -73 -29.5 -132t-84 -93t-127.5 -34t-128 34t-84.5 93t-29.5 132t29.5 132t84.5 93t128 34h1q25 0 76 -7q28 -5 45 -5q27 0 39.5 11.5t12.5 38.5v37h84v-36zM382.5 118.5q35.5 50.5 35.5 128.5t-35.5 128.5
t-104.5 50.5t-105 -50.5t-36 -128.5t36 -128.5t105 -50.5t104.5 50.5zM335 562h-96l-123 126h129z" />
    <glyph glyph-name="uni1EDF" unicode="&#x1edf;" horiz-adv-x="562" 
d="M249 655q-31 0 -66 -13v58q16 8 37.5 13t43.5 5q47 0 78 -22t31 -65q0 -68 -95 -99l-23 41q42 22 42 51q0 31 -48 31zM536 545q0 -89 -89 -106q35 -35 53.5 -84.5t18.5 -107.5q0 -73 -29.5 -132t-84 -93t-127.5 -34t-128 34t-84.5 93t-29.5 132t29.5 132t84.5 93t128 34
h1q25 0 76 -7q28 -5 45 -5q27 0 39.5 11.5t12.5 38.5v37h84v-36zM382.5 118.5q35.5 50.5 35.5 128.5t-35.5 128.5t-104.5 50.5t-105 -50.5t-36 -128.5t36 -128.5t105 -50.5t104.5 50.5z" />
    <glyph glyph-name="uni1EE1" unicode="&#x1ee1;" horiz-adv-x="562" 
d="M180 562l-57 22q12 48 36 75.5t61 27.5q20 0 36 -8t38 -23q28 -22 45 -22q32 0 40 52l57 -21q-12 -48 -36 -76t-61 -28q-21 0 -37.5 8.5t-36.5 23.5q-15 11 -25 16.5t-20 5.5q-32 0 -40 -53zM536 545q0 -89 -89 -106q35 -35 53.5 -84.5t18.5 -107.5q0 -73 -29.5 -132
t-84 -93t-127.5 -34t-128 34t-84.5 93t-29.5 132t29.5 132t84.5 93t128 34h1q25 0 76 -7q28 -5 45 -5q27 0 39.5 11.5t12.5 38.5v37h84v-36zM382.5 118.5q35.5 50.5 35.5 128.5t-35.5 128.5t-104.5 50.5t-105 -50.5t-36 -128.5t36 -128.5t105 -50.5t104.5 50.5z" />
    <glyph glyph-name="ohungarumlaut" unicode="&#x151;" horiz-adv-x="555" 
d="M150 22q-55 34 -84.5 93t-29.5 132t29.5 132t84.5 93t128 34t127.5 -34t84 -93t29.5 -132t-29.5 -132t-84 -93t-127.5 -34t-128 34zM382.5 118.5q35.5 50.5 35.5 128.5t-35.5 128.5t-104.5 50.5t-105 -50.5t-36 -128.5t36 -128.5t105 -50.5t104.5 50.5zM218 562h-96
l90 126h128zM416 562h-96l90 126h129z" />
    <glyph glyph-name="omacron" unicode="&#x14d;" horiz-adv-x="555" 
d="M150 22q-55 34 -84.5 93t-29.5 132t29.5 132t84.5 93t128 34t127.5 -34t84 -93t29.5 -132t-29.5 -132t-84 -93t-127.5 -34t-128 34zM382.5 118.5q35.5 50.5 35.5 128.5t-35.5 128.5t-104.5 50.5t-105 -50.5t-36 -128.5t36 -128.5t105 -50.5t104.5 50.5zM429 579h-302v78
h302v-78z" />
    <glyph glyph-name="oslash" unicode="&#xf8;" horiz-adv-x="564" 
d="M524 495l-57 -73q28 -35 42.5 -79.5t14.5 -95.5q0 -73 -29.5 -132t-84.5 -93t-128 -34q-71 0 -126 33l-52 -68l-63 46l57 73q-28 35 -42.5 79.5t-14.5 95.5q0 73 29.5 132t84 93t127.5 34q72 0 127 -33l53 68zM159 151l197 254q-32 21 -74 21q-69 0 -104.5 -50.5
t-35.5 -128.5q0 -53 17 -96zM406 342l-197 -254q31 -20 73 -20q69 0 105 50.5t36 128.5q0 52 -17 95z" />
    <glyph glyph-name="oslashacute" unicode="&#x1ff;" horiz-adv-x="564" 
d="M524 495l-57 -73q28 -35 42.5 -79.5t14.5 -95.5q0 -73 -29.5 -132t-84.5 -93t-128 -34q-71 0 -126 33l-52 -68l-63 46l57 73q-28 35 -42.5 79.5t-14.5 95.5q0 73 29.5 132t84 93t127.5 34q72 0 127 -33l53 68zM159 151l197 254q-32 21 -74 21q-69 0 -104.5 -50.5
t-35.5 -128.5q0 -53 17 -96zM406 342l-197 -254q31 -20 73 -20q69 0 105 50.5t36 128.5q0 52 -17 95zM321 562h-96l90 126h128z" />
    <glyph glyph-name="otilde" unicode="&#xf5;" horiz-adv-x="555" 
d="M150 22q-55 34 -84.5 93t-29.5 132t29.5 132t84.5 93t128 34t127.5 -34t84 -93t29.5 -132t-29.5 -132t-84 -93t-127.5 -34t-128 34zM382.5 118.5q35.5 50.5 35.5 128.5t-35.5 128.5t-104.5 50.5t-105 -50.5t-36 -128.5t36 -128.5t105 -50.5t104.5 50.5zM304 569.5
q-18 8.5 -41 23.5q-16 11 -26.5 16.5t-22.5 5.5q-35 0 -45 -53l-63 22q13 48 39.5 75.5t68.5 27.5q23 0 40.5 -8t41.5 -23q16 -11 27 -16.5t22 -5.5q35 0 45 52l63 -21q-28 -104 -108 -104q-23 0 -41 8.5z" />
    <glyph glyph-name="oe" unicode="&#x153;" horiz-adv-x="921" 
d="M884 225h-365q3 -76 41 -117t97 -41q49 0 81.5 25.5t43.5 71.5l98 -13q-20 -70 -75 -116.5t-149 -46.5q-60 0 -108.5 23.5t-79.5 68.5q-31 -44 -80 -68t-110 -24q-73 0 -128 34t-84.5 93t-29.5 132t29.5 132t84.5 93t128 34q62 0 111 -25t81 -70q32 46 81.5 70.5
t107.5 24.5q64 0 115 -31.5t80.5 -88.5t29.5 -129v-32zM781 299q-2 54 -36 91.5t-87 37.5q-56 0 -93.5 -36t-44.5 -93h261zM382.5 118.5q35.5 50.5 35.5 128.5t-35.5 128.5t-104.5 50.5t-105 -50.5t-36 -128.5t36 -128.5t105 -50.5t104.5 50.5z" />
    <glyph glyph-name="p" unicode="p" horiz-adv-x="586" 
d="M68 -185v679h97v-75q22 36 62.5 61.5t99.5 25.5q66 0 116.5 -32.5t78 -91.5t27.5 -135t-27.5 -135t-78 -91.5t-116.5 -32.5q-58 0 -98 25t-63 60v-258h-98zM411.5 117.5q36.5 49.5 36.5 129.5t-36.5 129.5t-104.5 49.5q-67 0 -106 -50t-39 -129t39 -129t106 -50
q68 0 104.5 49.5z" />
    <glyph glyph-name="thorn" unicode="&#xfe;" horiz-adv-x="586" 
d="M68 -185v873h98v-267q23 35 63 60t98 25q66 0 116.5 -32.5t78 -91.5t27.5 -135t-27.5 -135t-78 -91.5t-116.5 -32.5q-58 0 -98 25t-63 60v-258h-98zM411.5 117.5q36.5 49.5 36.5 129.5t-36.5 129.5t-104.5 49.5q-67 0 -106 -50t-39 -129t39 -129t106 -50q68 0 104.5 49.5
z" />
    <glyph glyph-name="q" unicode="q" horiz-adv-x="585" 
d="M421 73q-22 -35 -63 -60t-99 -25q-66 0 -116 33t-78 91.5t-28 134.5t28 134.5t78 91.5t116 33q59 0 99.5 -25.5t62.5 -61.5v75h97v-679h-97v258zM385 118q39 50 39 129t-39 129t-106 50q-68 0 -104.5 -49.5t-36.5 -129.5t36.5 -129.5t104.5 -49.5q67 0 106 50z" />
    <glyph glyph-name="r" unicode="r" horiz-adv-x="347" 
d="M335 504v-93q-9 1 -28 1q-66 0 -103.5 -37.5t-37.5 -107.5v-267h-98v494h96v-89q16 43 53.5 72t90.5 29q11 0 27 -2z" />
    <glyph glyph-name="racute" unicode="&#x155;" horiz-adv-x="347" 
d="M335 504v-93q-9 1 -28 1q-66 0 -103.5 -37.5t-37.5 -107.5v-267h-98v494h96v-89q16 43 53.5 72t90.5 29q11 0 27 -2zM244 561h-96l90 126h128z" />
    <glyph glyph-name="rcaron" unicode="&#x159;" horiz-adv-x="347" 
d="M335 504v-93q-9 1 -28 1q-66 0 -103.5 -37.5t-37.5 -107.5v-267h-98v494h96v-89q16 43 53.5 72t90.5 29q11 0 27 -2zM204 604l72 83h85l-96 -125h-122l-95 125h85z" />
    <glyph glyph-name="uni0157" unicode="&#x157;" horiz-adv-x="347" 
d="M335 504v-93q-9 1 -28 1q-66 0 -103.5 -37.5t-37.5 -107.5v-267h-98v494h96v-89q16 43 53.5 72t90.5 29q11 0 27 -2zM109 -147h-38v99h91v-83l-39 -122h-45z" />
    <glyph glyph-name="s" unicode="s" horiz-adv-x="493" 
d="M95 33q-60 45 -68 130l97 15q5 -57 40 -86t89 -29q50 0 79.5 20.5t29.5 56.5q0 30 -23 44.5t-80 27.5l-74 17q-66 15 -102 46t-36 86q0 41 26 74.5t71.5 52t101.5 18.5q82 0 136 -39.5t63 -108.5l-97 -17q-5 42 -32.5 66t-72.5 24q-44 0 -70 -18.5t-26 -47.5
q0 -26 20 -38.5t67 -23.5l74 -17q79 -18 116 -48t37 -89q0 -48 -28 -84.5t-76.5 -56.5t-107.5 -20q-94 0 -154 45z" />
    <glyph glyph-name="sacute" unicode="&#x15b;" horiz-adv-x="493" 
d="M95 33q-60 45 -68 130l97 15q5 -57 40 -86t89 -29q50 0 79.5 20.5t29.5 56.5q0 30 -23 44.5t-80 27.5l-74 17q-66 15 -102 46t-36 86q0 41 26 74.5t71.5 52t101.5 18.5q82 0 136 -39.5t63 -108.5l-97 -17q-5 42 -32.5 66t-72.5 24q-44 0 -70 -18.5t-26 -47.5
q0 -26 20 -38.5t67 -23.5l74 -17q79 -18 116 -48t37 -89q0 -48 -28 -84.5t-76.5 -56.5t-107.5 -20q-94 0 -154 45zM281 562h-96l90 126h128z" />
    <glyph glyph-name="scaron" unicode="&#x161;" horiz-adv-x="493" 
d="M95 33q-60 45 -68 130l97 15q5 -57 40 -86t89 -29q50 0 79.5 20.5t29.5 56.5q0 30 -23 44.5t-80 27.5l-74 17q-66 15 -102 46t-36 86q0 41 26 74.5t71.5 52t101.5 18.5q82 0 136 -39.5t63 -108.5l-97 -17q-5 42 -32.5 66t-72.5 24q-44 0 -70 -18.5t-26 -47.5
q0 -26 20 -38.5t67 -23.5l74 -17q79 -18 116 -48t37 -89q0 -48 -28 -84.5t-76.5 -56.5t-107.5 -20q-94 0 -154 45zM242 605l72 83h85l-96 -125h-122l-95 125h85z" />
    <glyph glyph-name="scedilla" unicode="&#x15f;" horiz-adv-x="493" 
d="M411 41q-50 -43 -128 -51l-9 -25q33 -5 55.5 -24t22.5 -52q0 -48 -42 -71.5t-104 -23.5h-11v57h5q31 0 52 9.5t21 28.5q0 29 -48 29h-29l25 71q-83 7 -135 51.5t-59 122.5l97 15q5 -57 40 -86t89 -29q50 0 79.5 20.5t29.5 56.5q0 30 -23 44.5t-80 27.5l-74 17
q-66 15 -102 46t-36 86q0 41 26 74.5t71.5 52t101.5 18.5q82 0 136 -39.5t63 -108.5l-97 -17q-5 42 -32.5 66t-72.5 24q-44 0 -70 -18.5t-26 -47.5q0 -26 20 -38.5t67 -23.5l74 -17q79 -18 116 -48t37 -89q0 -65 -50 -108z" />
    <glyph glyph-name="scircumflex" unicode="&#x15d;" horiz-adv-x="493" 
d="M95 33q-60 45 -68 130l97 15q5 -57 40 -86t89 -29q50 0 79.5 20.5t29.5 56.5q0 30 -23 44.5t-80 27.5l-74 17q-66 15 -102 46t-36 86q0 41 26 74.5t71.5 52t101.5 18.5q82 0 136 -39.5t63 -108.5l-97 -17q-5 42 -32.5 66t-72.5 24q-44 0 -70 -18.5t-26 -47.5
q0 -26 20 -38.5t67 -23.5l74 -17q79 -18 116 -48t37 -89q0 -48 -28 -84.5t-76.5 -56.5t-107.5 -20q-94 0 -154 45zM303 688l96 -125h-85l-72 83l-71 -83h-85l95 125h122z" />
    <glyph glyph-name="uni0219" unicode="&#x219;" horiz-adv-x="493" 
d="M95 33q-60 45 -68 130l97 15q5 -57 40 -86t89 -29q50 0 79.5 20.5t29.5 56.5q0 30 -23 44.5t-80 27.5l-74 17q-66 15 -102 46t-36 86q0 41 26 74.5t71.5 52t101.5 18.5q82 0 136 -39.5t63 -108.5l-97 -17q-5 42 -32.5 66t-72.5 24q-44 0 -70 -18.5t-26 -47.5
q0 -26 20 -38.5t67 -23.5l74 -17q79 -18 116 -48t37 -89q0 -48 -28 -84.5t-76.5 -56.5t-107.5 -20q-94 0 -154 45zM262 -253h-45l31 106h-38v99h91v-83z" />
    <glyph glyph-name="germandbls" unicode="&#xdf;" horiz-adv-x="542" 
d="M246 -10q-17 2 -24 3v80q6 0 20.5 -2t29.5 -2q64 0 99.5 38.5t35.5 106.5q0 62 -39 99t-100 37q-29 0 -47 -2v88q26 -3 38 -3q44 0 71 25.5t27 71.5q0 40 -25 65t-67 25q-46 0 -72.5 -30.5t-26.5 -88.5v-501h-98v500q0 94 54.5 147t141.5 53q59 0 103 -21t67 -58t23 -83
q0 -54 -25.5 -88t-60.5 -50v-1q57 -16 96.5 -64.5t39.5 -121.5q0 -102 -60 -163.5t-163 -61.5q-21 0 -38 2z" />
    <glyph glyph-name="t" unicode="t" horiz-adv-x="335" 
d="M109 67q-6 19 -6 56v291h-89v80h89v156h97v-156h101v-80h-101v-281q0 -30 15 -43t46 -13q21 0 45 3v-78q-36 -7 -74 -7q-100 0 -123 72z" />
    <glyph glyph-name="tbar" unicode="&#x167;" horiz-adv-x="335" 
d="M306 80v-78q-36 -7 -74 -7q-100 0 -123 72q-6 19 -6 56v109h-89v78h89v104h-89v80h89v156h97v-156h101v-80h-101v-104h101v-78h-101v-99q0 -30 15 -43t46 -13q21 0 45 3z" />
    <glyph glyph-name="tcaron" unicode="&#x165;" horiz-adv-x="335" 
d="M296 535h-61l31 153h87zM109 67q-6 19 -6 56v291h-89v80h89v156h97v-156h101v-80h-101v-281q0 -30 15 -43t46 -13q21 0 45 3v-78q-36 -7 -74 -7q-100 0 -123 72z" />
    <glyph glyph-name="uni0163" unicode="&#x163;" horiz-adv-x="335" 
d="M229 -35q33 -5 55.5 -24t22.5 -52q0 -48 -42 -71.5t-104 -23.5h-11v57h4q31 0 52 9.5t21 28.5q0 29 -47 29h-29l30 83q-56 16 -72 66q-6 19 -6 56v291h-89v80h89v156h97v-156h101v-80h-101v-281q0 -30 15 -43t46 -13q21 0 45 3v-78q-40 -7 -66 -7z" />
    <glyph glyph-name="uni021B" unicode="&#x21b;" horiz-adv-x="335" 
d="M109 67q-6 19 -6 56v291h-89v80h89v156h97v-156h101v-80h-101v-281q0 -30 15 -43t46 -13q21 0 45 3v-78q-36 -7 -74 -7q-100 0 -123 72zM217 -253h-45l31 106h-38v99h91v-83z" />
    <glyph glyph-name="u" unicode="u" horiz-adv-x="549" 
d="M107.5 36.5q-45.5 48.5 -45.5 136.5v321h98v-284q0 -71 21 -105t78 -34q54 0 89.5 42t35.5 102v279h97v-494h-96v68h-1q-25 -35 -64 -57.5t-88 -22.5q-79 0 -124.5 48.5z" />
    <glyph glyph-name="uacute" unicode="&#xfa;" horiz-adv-x="549" 
d="M107.5 36.5q-45.5 48.5 -45.5 136.5v321h98v-284q0 -71 21 -105t78 -34q54 0 89.5 42t35.5 102v279h97v-494h-96v68h-1q-25 -35 -64 -57.5t-88 -22.5q-79 0 -124.5 48.5zM311 562h-96l90 126h128z" />
    <glyph glyph-name="ubreve" unicode="&#x16d;" horiz-adv-x="549" 
d="M107.5 36.5q-45.5 48.5 -45.5 136.5v321h98v-284q0 -71 21 -105t78 -34q54 0 89.5 42t35.5 102v279h97v-494h-96v68h-1q-25 -35 -64 -57.5t-88 -22.5q-79 0 -124.5 48.5zM176.5 589.5q-36.5 32.5 -43.5 90.5h70q12 -61 69 -61q29 0 46 16.5t22 44.5h70
q-7 -58 -43.5 -90.5t-94.5 -32.5q-59 0 -95.5 32.5z" />
    <glyph glyph-name="ucircumflex" unicode="&#xfb;" horiz-adv-x="549" 
d="M107.5 36.5q-45.5 48.5 -45.5 136.5v321h98v-284q0 -71 21 -105t78 -34q54 0 89.5 42t35.5 102v279h97v-494h-96v68h-1q-25 -35 -64 -57.5t-88 -22.5q-79 0 -124.5 48.5zM332 688l96 -125h-85l-72 83l-71 -83h-85l95 125h122z" />
    <glyph glyph-name="udieresis" unicode="&#xfc;" horiz-adv-x="549" 
d="M107.5 36.5q-45.5 48.5 -45.5 136.5v321h98v-284q0 -71 21 -105t78 -34q54 0 89.5 42t35.5 102v279h97v-494h-96v68h-1q-25 -35 -64 -57.5t-88 -22.5q-79 0 -124.5 48.5zM224 569h-98v119h98v-119zM418 569h-98v119h98v-119z" />
    <glyph glyph-name="uni1EE5" unicode="&#x1ee5;" horiz-adv-x="549" 
d="M107.5 36.5q-45.5 48.5 -45.5 136.5v321h98v-284q0 -71 21 -105t78 -34q54 0 89.5 42t35.5 102v279h97v-494h-96v68h-1q-25 -35 -64 -57.5t-88 -22.5q-79 0 -124.5 48.5zM324 -194h-98v119h98v-119z" />
    <glyph glyph-name="ugrave" unicode="&#xf9;" horiz-adv-x="549" 
d="M107.5 36.5q-45.5 48.5 -45.5 136.5v321h98v-284q0 -71 21 -105t78 -34q54 0 89.5 42t35.5 102v279h97v-494h-96v68h-1q-25 -35 -64 -57.5t-88 -22.5q-79 0 -124.5 48.5zM329 562h-96l-123 126h129z" />
    <glyph glyph-name="uni1EE7" unicode="&#x1ee7;" horiz-adv-x="549" 
d="M249 573q42 22 42 51q0 31 -48 31q-16 0 -34.5 -4t-31.5 -9v58q16 7 37.5 12.5t42.5 5.5q48 0 79 -22t31 -65q0 -68 -95 -99zM107.5 36.5q-45.5 48.5 -45.5 136.5v321h98v-284q0 -71 21 -105t78 -34q54 0 89.5 42t35.5 102v279h97v-494h-96v68h-1q-25 -35 -64 -57.5
t-88 -22.5q-79 0 -124.5 48.5z" />
    <glyph glyph-name="uhorn" unicode="&#x1b0;" horiz-adv-x="568" 
d="M509 581h84v-36q0 -99 -112 -110v-435h-96v68h-1q-25 -35 -64 -57.5t-88 -22.5q-79 0 -124.5 48.5t-45.5 136.5v321h98v-284q0 -71 21 -105t78 -34q54 0 89.5 42t35.5 102v279h70q28 0 41.5 11.5t13.5 38.5v37z" />
    <glyph glyph-name="uni1EE9" unicode="&#x1ee9;" horiz-adv-x="568" 
d="M509 581h84v-36q0 -99 -112 -110v-435h-96v68h-1q-25 -35 -64 -57.5t-88 -22.5q-79 0 -124.5 48.5t-45.5 136.5v321h98v-284q0 -71 21 -105t78 -34q54 0 89.5 42t35.5 102v279h70q28 0 41.5 11.5t13.5 38.5v37zM311 562h-96l90 126h128z" />
    <glyph glyph-name="uni1EF1" unicode="&#x1ef1;" horiz-adv-x="568" 
d="M509 581h84v-36q0 -99 -112 -110v-435h-96v68h-1q-25 -35 -64 -57.5t-88 -22.5q-79 0 -124.5 48.5t-45.5 136.5v321h98v-284q0 -71 21 -105t78 -34q54 0 89.5 42t35.5 102v279h70q28 0 41.5 11.5t13.5 38.5v37zM324 -194h-98v119h98v-119z" />
    <glyph glyph-name="uni1EEB" unicode="&#x1eeb;" horiz-adv-x="568" 
d="M509 581h84v-36q0 -99 -112 -110v-435h-96v68h-1q-25 -35 -64 -57.5t-88 -22.5q-79 0 -124.5 48.5t-45.5 136.5v321h98v-284q0 -71 21 -105t78 -34q54 0 89.5 42t35.5 102v279h70q28 0 41.5 11.5t13.5 38.5v37zM329 562h-96l-123 126h129z" />
    <glyph glyph-name="uni1EED" unicode="&#x1eed;" horiz-adv-x="568" 
d="M243 655q-16 0 -34.5 -4t-31.5 -9v58q16 7 37.5 12.5t42.5 5.5q48 0 79 -22t31 -65q0 -68 -95 -99l-23 41q42 22 42 51q0 31 -48 31zM509 581h84v-36q0 -99 -112 -110v-435h-96v68h-1q-25 -35 -64 -57.5t-88 -22.5q-79 0 -124.5 48.5t-45.5 136.5v321h98v-284
q0 -71 21 -105t78 -34q54 0 89.5 42t35.5 102v279h70q28 0 41.5 11.5t13.5 38.5v37z" />
    <glyph glyph-name="uni1EEF" unicode="&#x1eef;" horiz-adv-x="568" 
d="M509 581h84v-36q0 -99 -112 -110v-435h-96v68h-1q-25 -35 -64 -57.5t-88 -22.5q-79 0 -124.5 48.5t-45.5 136.5v321h98v-284q0 -71 21 -105t78 -34q54 0 89.5 42t35.5 102v279h70q28 0 41.5 11.5t13.5 38.5v37zM298 569.5q-18 8.5 -41 23.5q-16 11 -26.5 16.5t-22.5 5.5
q-35 0 -45 -53l-63 22q13 48 39.5 75.5t68.5 27.5q23 0 40.5 -8t41.5 -23q16 -11 27 -16.5t22 -5.5q35 0 45 52l63 -21q-28 -104 -108 -104q-23 0 -41 8.5z" />
    <glyph glyph-name="uhungarumlaut" unicode="&#x171;" horiz-adv-x="549" 
d="M107.5 36.5q-45.5 48.5 -45.5 136.5v321h98v-284q0 -71 21 -105t78 -34q54 0 89.5 42t35.5 102v279h97v-494h-96v68h-1q-25 -35 -64 -57.5t-88 -22.5q-79 0 -124.5 48.5zM212 562h-96l90 126h128zM410 562h-96l90 126h129z" />
    <glyph glyph-name="umacron" unicode="&#x16b;" horiz-adv-x="549" 
d="M107.5 36.5q-45.5 48.5 -45.5 136.5v321h98v-284q0 -71 21 -105t78 -34q54 0 89.5 42t35.5 102v279h97v-494h-96v68h-1q-25 -35 -64 -57.5t-88 -22.5q-79 0 -124.5 48.5zM422 579h-302v78h302v-78z" />
    <glyph glyph-name="uogonek" unicode="&#x173;" horiz-adv-x="549" 
d="M486 -214q-33 -12 -70 -12q-47 0 -80 26t-33 75q0 74 82 126v67h-1q-25 -35 -64 -57.5t-88 -22.5q-79 0 -124.5 48.5t-45.5 136.5v321h98v-284q0 -71 21 -105t78 -34q54 0 89.5 42t35.5 102v279h97v-494q-85 -54 -85 -107q0 -22 13 -31.5t32 -9.5q13 0 26 3z" />
    <glyph glyph-name="uring" unicode="&#x16f;" horiz-adv-x="549" 
d="M107.5 36.5q-45.5 48.5 -45.5 136.5v321h98v-284q0 -71 21 -105t78 -34q54 0 89.5 42t35.5 102v279h97v-494h-96v68h-1q-25 -35 -64 -57.5t-88 -22.5q-79 0 -124.5 48.5zM208 570.5q-26 25.5 -26 63.5q0 37 26 62t64 25q37 0 63.5 -25t26.5 -62q0 -38 -26.5 -63.5
t-63.5 -25.5q-38 0 -64 25.5zM297.5 608q10.5 10 10.5 26q0 15 -10.5 25.5t-25.5 10.5q-16 0 -26 -10.5t-10 -25.5q0 -16 10 -26t26 -10q15 0 25.5 10z" />
    <glyph glyph-name="utilde" unicode="&#x169;" horiz-adv-x="549" 
d="M107.5 36.5q-45.5 48.5 -45.5 136.5v321h98v-284q0 -71 21 -105t78 -34q54 0 89.5 42t35.5 102v279h97v-494h-96v68h-1q-25 -35 -64 -57.5t-88 -22.5q-79 0 -124.5 48.5zM298 569.5q-18 8.5 -41 23.5q-16 11 -26.5 16.5t-22.5 5.5q-35 0 -45 -53l-63 22q13 48 39.5 75.5
t68.5 27.5q23 0 40.5 -8t41.5 -23q16 -11 27 -16.5t22 -5.5q35 0 45 52l63 -21q-28 -104 -108 -104q-23 0 -41 8.5z" />
    <glyph glyph-name="v" unicode="v" horiz-adv-x="505" 
d="M301 0h-96l-190 494h106l131 -377h1l132 377h105z" />
    <glyph glyph-name="w" unicode="w" horiz-adv-x="780" 
d="M273 0h-103l-154 494h103l104 -380h1l114 380h104l115 -380h1l105 380h101l-154 -494h-103l-116 390h-1z" />
    <glyph glyph-name="wacute" unicode="&#x1e83;" horiz-adv-x="780" 
d="M273 0h-103l-154 494h103l104 -380h1l114 380h104l115 -380h1l105 380h101l-154 -494h-103l-116 390h-1zM430 562h-96l90 126h128z" />
    <glyph glyph-name="wcircumflex" unicode="&#x175;" horiz-adv-x="780" 
d="M273 0h-103l-154 494h103l104 -380h1l114 380h104l115 -380h1l105 380h101l-154 -494h-103l-116 390h-1zM451 688l96 -125h-85l-72 83l-71 -83h-85l95 125h122z" />
    <glyph glyph-name="wdieresis" unicode="&#x1e85;" horiz-adv-x="780" 
d="M273 0h-103l-154 494h103l104 -380h1l114 380h104l115 -380h1l105 380h101l-154 -494h-103l-116 390h-1zM342 569h-98v119h98v-119zM536 569h-98v119h98v-119z" />
    <glyph glyph-name="wgrave" unicode="&#x1e81;" horiz-adv-x="780" 
d="M273 0h-103l-154 494h103l104 -380h1l114 380h104l115 -380h1l105 380h101l-154 -494h-103l-116 390h-1zM447 562h-96l-123 126h129z" />
    <glyph glyph-name="x" unicode="x" horiz-adv-x="486" 
d="M118 0h-112l182 253l-176 241h111l120 -174l120 174h111l-176 -241l182 -253h-112l-125 184z" />
    <glyph glyph-name="y" unicode="y" horiz-adv-x="505" 
d="M383 494h107l-212 -553q-28 -71 -71.5 -101.5t-110.5 -30.5q-20 0 -48 4v83q30 -4 44 -4q36 0 57 16t37 53l17 43l-188 490h107l131 -379z" />
    <glyph glyph-name="yacute" unicode="&#xfd;" horiz-adv-x="505" 
d="M383 494h107l-212 -553q-28 -71 -71.5 -101.5t-110.5 -30.5q-20 0 -48 4v83q30 -4 44 -4q36 0 57 16t37 53l17 43l-188 490h107l131 -379zM292 562h-96l90 126h128z" />
    <glyph glyph-name="ycircumflex" unicode="&#x177;" horiz-adv-x="505" 
d="M383 494h107l-212 -553q-28 -71 -71.5 -101.5t-110.5 -30.5q-20 0 -48 4v83q30 -4 44 -4q36 0 57 16t37 53l17 43l-188 490h107l131 -379zM313 688l96 -125h-85l-72 83l-71 -83h-85l95 125h122z" />
    <glyph glyph-name="ydieresis" unicode="&#xff;" horiz-adv-x="505" 
d="M383 494h107l-212 -553q-28 -71 -71.5 -101.5t-110.5 -30.5q-20 0 -48 4v83q30 -4 44 -4q36 0 57 16t37 53l17 43l-188 490h107l131 -379zM205 569h-98v119h98v-119zM399 569h-98v119h98v-119z" />
    <glyph glyph-name="uni1EF5" unicode="&#x1ef5;" horiz-adv-x="505" 
d="M383 494h107l-212 -553q-28 -71 -71.5 -101.5t-110.5 -30.5q-20 0 -48 4v83q30 -4 44 -4q36 0 57 16t37 53l17 43l-188 490h107l131 -379zM426 -194h-98v119h98v-119z" />
    <glyph glyph-name="ygrave" unicode="&#x1ef3;" horiz-adv-x="505" 
d="M383 494h107l-212 -553q-28 -71 -71.5 -101.5t-110.5 -30.5q-20 0 -48 4v83q30 -4 44 -4q36 0 57 16t37 53l17 43l-188 490h107l131 -379zM310 562h-96l-123 126h129z" />
    <glyph glyph-name="uni1EF7" unicode="&#x1ef7;" horiz-adv-x="505" 
d="M224 655q-31 0 -66 -13v58q16 8 37.5 13t43.5 5q47 0 78 -22t31 -65q0 -68 -95 -99l-23 41q42 22 42 51q0 31 -48 31zM383 494h107l-212 -553q-28 -71 -71.5 -101.5t-110.5 -30.5q-20 0 -48 4v83q30 -4 44 -4q36 0 57 16t37 53l17 43l-188 490h107l131 -379z" />
    <glyph glyph-name="uni0233" unicode="&#x233;" horiz-adv-x="505" 
d="M383 494h107l-212 -553q-28 -71 -71.5 -101.5t-110.5 -30.5q-20 0 -48 4v83q30 -4 44 -4q36 0 57 16t37 53l17 43l-188 490h107l131 -379zM404 579h-302v78h302v-78z" />
    <glyph glyph-name="uni1EF9" unicode="&#x1ef9;" horiz-adv-x="505" 
d="M383 494h107l-212 -553q-28 -71 -71.5 -101.5t-110.5 -30.5q-20 0 -48 4v83q30 -4 44 -4q36 0 57 16t37 53l17 43l-188 490h107l131 -379zM279 569.5q-18 8.5 -41 23.5q-16 11 -26.5 16.5t-22.5 5.5q-35 0 -45 -53l-63 22q13 48 39.5 75.5t68.5 27.5q23 0 40.5 -8
t41.5 -23q16 -11 27 -16.5t22 -5.5q35 0 45 52l63 -21q-28 -104 -108 -104q-23 0 -41 8.5z" />
    <glyph glyph-name="z" unicode="z" horiz-adv-x="472" 
d="M440 0h-407v83l284 332h-275v79h390v-81l-285 -334h293v-79z" />
    <glyph glyph-name="zacute" unicode="&#x17a;" horiz-adv-x="472" 
d="M440 0h-407v83l284 332h-275v79h390v-81l-285 -334h293v-79zM282 562h-96l90 126h128z" />
    <glyph glyph-name="zcaron" unicode="&#x17e;" horiz-adv-x="472" 
d="M440 0h-407v83l284 332h-275v79h390v-81l-285 -334h293v-79zM243 605l72 83h85l-96 -125h-122l-95 125h85z" />
    <glyph glyph-name="zdotaccent" unicode="&#x17c;" horiz-adv-x="472" 
d="M440 0h-407v83l284 332h-275v79h390v-81l-285 -334h293v-79zM292 569h-98v119h98v-119z" />
    <glyph glyph-name="a.ss01" horiz-adv-x="588" 
d="M143.5 20.5q-50.5 32.5 -78.5 91.5t-28 135t28 135t78.5 91.5t116.5 32.5q58 0 99.5 -25t63.5 -60v73h98v-494h-96v76q-22 -36 -63.5 -62t-101.5 -26q-66 0 -116.5 32.5zM388 117.5q39 50.5 39 129.5t-39 129.5t-107 50.5t-106 -50.5t-38 -129.5q0 -80 38 -130t106 -50
t107 50.5z" />
    <glyph glyph-name="aacute.ss01" horiz-adv-x="588" 
d="M143.5 20.5q-50.5 32.5 -78.5 91.5t-28 135t28 135t78.5 91.5t116.5 32.5q58 0 99.5 -25t63.5 -60v73h98v-494h-96v76q-22 -36 -63.5 -62t-101.5 -26q-66 0 -116.5 32.5zM388 117.5q39 50.5 39 129.5t-39 129.5t-107 50.5t-106 -50.5t-38 -129.5q0 -80 38 -130t106 -50
t107 50.5zM325 562h-96l90 126h128z" />
    <glyph glyph-name="abreve.ss01" horiz-adv-x="588" 
d="M143.5 20.5q-50.5 32.5 -78.5 91.5t-28 135t28 135t78.5 91.5t116.5 32.5q58 0 99.5 -25t63.5 -60v73h98v-494h-96v76q-22 -36 -63.5 -62t-101.5 -26q-66 0 -116.5 32.5zM388 117.5q39 50.5 39 129.5t-39 129.5t-107 50.5t-106 -50.5t-38 -129.5q0 -80 38 -130t106 -50
t107 50.5zM190.5 589.5q-36.5 32.5 -43.5 90.5h70q12 -61 69 -61q29 0 46 16.5t22 44.5h70q-7 -58 -43.5 -90.5t-94.5 -32.5q-59 0 -95.5 32.5z" />
    <glyph glyph-name="uni1EAF.ss01" horiz-adv-x="588" 
d="M316 694h-75l70 110h100zM190.5 589.5q-36.5 32.5 -43.5 90.5h70q6 -28 23 -44.5t46 -16.5q58 0 68 61h70q-7 -58 -43.5 -90.5t-94.5 -32.5q-59 0 -95.5 32.5zM143.5 20.5q-50.5 32.5 -78.5 91.5t-28 135t28 135t78.5 91.5t116.5 32.5q58 0 99.5 -25t63.5 -60v73h98v-494
h-96v76q-22 -36 -63.5 -62t-101.5 -26q-66 0 -116.5 32.5zM388 117.5q39 50.5 39 129.5t-39 129.5t-107 50.5t-106 -50.5t-38 -129.5q0 -80 38 -130t106 -50t107 50.5z" />
    <glyph glyph-name="uni1EB7.ss01" horiz-adv-x="588" 
d="M143.5 20.5q-50.5 32.5 -78.5 91.5t-28 135t28 135t78.5 91.5t116.5 32.5q58 0 99.5 -25t63.5 -60v73h98v-494h-96v76q-22 -36 -63.5 -62t-101.5 -26q-66 0 -116.5 32.5zM388 117.5q39 50.5 39 129.5t-39 129.5t-107 50.5t-106 -50.5t-38 -129.5q0 -80 38 -130t106 -50
t107 50.5zM341 -194h-98v119h98v-119zM190.5 589.5q-36.5 32.5 -43.5 90.5h70q12 -61 69 -61q29 0 46 16.5t22 44.5h70q-7 -58 -43.5 -90.5t-94.5 -32.5q-59 0 -95.5 32.5z" />
    <glyph glyph-name="uni1EB1.ss01" horiz-adv-x="588" 
d="M330 694h-75l-95 110h100zM190.5 589.5q-36.5 32.5 -43.5 90.5h70q6 -28 23 -44.5t46 -16.5q58 0 68 61h70q-7 -58 -43.5 -90.5t-94.5 -32.5q-59 0 -95.5 32.5zM143.5 20.5q-50.5 32.5 -78.5 91.5t-28 135t28 135t78.5 91.5t116.5 32.5q58 0 99.5 -25t63.5 -60v73h98
v-494h-96v76q-22 -36 -63.5 -62t-101.5 -26q-66 0 -116.5 32.5zM388 117.5q39 50.5 39 129.5t-39 129.5t-107 50.5t-106 -50.5t-38 -129.5q0 -80 38 -130t106 -50t107 50.5z" />
    <glyph glyph-name="uni1EB3.ss01" horiz-adv-x="588" 
d="M264 698q33 18 33 41q0 25 -38 25q-27 0 -53 -11v46q12 6 29.5 10.5t35.5 4.5q37 0 62 -17.5t25 -52.5q0 -54 -76 -79zM190.5 589.5q-36.5 32.5 -43.5 90.5h70q6 -28 23 -44.5t46 -16.5q58 0 68 61h70q-7 -58 -43.5 -90.5t-94.5 -32.5q-59 0 -95.5 32.5zM143.5 20.5
q-50.5 32.5 -78.5 91.5t-28 135t28 135t78.5 91.5t116.5 32.5q58 0 99.5 -25t63.5 -60v73h98v-494h-96v76q-22 -36 -63.5 -62t-101.5 -26q-66 0 -116.5 32.5zM388 117.5q39 50.5 39 129.5t-39 129.5t-107 50.5t-106 -50.5t-38 -129.5q0 -80 38 -130t106 -50t107 50.5z" />
    <glyph glyph-name="uni1EB5.ss01" horiz-adv-x="588" 
d="M308.5 718q-13.5 6 -33.5 18q-14 9 -22.5 13t-17.5 4q-28 0 -36 -41l-50 17q10 38 31.5 60t54.5 22q19 0 33.5 -6.5t32.5 -18.5q14 -9 22.5 -13t17.5 -4q27 0 36 42l50 -17q-24 -82 -87 -82q-18 0 -31.5 6zM190.5 589.5q-36.5 32.5 -43.5 90.5h70q6 -28 23 -44.5
t46 -16.5q58 0 68 61h70q-7 -58 -43.5 -90.5t-94.5 -32.5q-59 0 -95.5 32.5zM143.5 20.5q-50.5 32.5 -78.5 91.5t-28 135t28 135t78.5 91.5t116.5 32.5q58 0 99.5 -25t63.5 -60v73h98v-494h-96v76q-22 -36 -63.5 -62t-101.5 -26q-66 0 -116.5 32.5zM388 117.5
q39 50.5 39 129.5t-39 129.5t-107 50.5t-106 -50.5t-38 -129.5q0 -80 38 -130t106 -50t107 50.5z" />
    <glyph glyph-name="acircumflex.ss01" horiz-adv-x="588" 
d="M143.5 20.5q-50.5 32.5 -78.5 91.5t-28 135t28 135t78.5 91.5t116.5 32.5q58 0 99.5 -25t63.5 -60v73h98v-494h-96v76q-22 -36 -63.5 -62t-101.5 -26q-66 0 -116.5 32.5zM388 117.5q39 50.5 39 129.5t-39 129.5t-107 50.5t-106 -50.5t-38 -129.5q0 -80 38 -130t106 -50
t107 50.5zM346 688l96 -125h-85l-72 83l-71 -83h-85l95 125h122z" />
    <glyph glyph-name="uni1EA5.ss01" horiz-adv-x="588" 
d="M483 770h100l-95 -111h-75zM357 563l-71 82l-71 -82h-86l96 125h121l96 -125h-85zM423 494h98v-494h-96v76q-22 -36 -63.5 -62t-101.5 -26q-66 0 -116.5 32.5t-78.5 91.5t-28 135t28 135t78.5 91.5t116.5 32.5q58 0 99.5 -25t63.5 -60v73zM388 117.5q39 50.5 39 129.5
t-39 129.5t-107 50.5t-106 -50.5t-38 -129.5q0 -80 38 -130t106 -50t107 50.5z" />
    <glyph glyph-name="uni1EAD.ss01" horiz-adv-x="588" 
d="M143.5 20.5q-50.5 32.5 -78.5 91.5t-28 135t28 135t78.5 91.5t116.5 32.5q58 0 99.5 -25t63.5 -60v73h98v-494h-96v76q-22 -36 -63.5 -62t-101.5 -26q-66 0 -116.5 32.5zM388 117.5q39 50.5 39 129.5t-39 129.5t-107 50.5t-106 -50.5t-38 -129.5q0 -80 38 -130t106 -50
t107 50.5zM341 -194h-98v119h98v-119zM346 688l96 -125h-85l-72 83l-71 -83h-85l95 125h122z" />
    <glyph glyph-name="uni1EA7.ss01" horiz-adv-x="588" 
d="M432 770l70 -111h-74l-95 111h99zM357 563l-71 82l-71 -82h-86l96 125h121l96 -125h-85zM423 494h98v-494h-96v76q-22 -36 -63.5 -62t-101.5 -26q-66 0 -116.5 32.5t-78.5 91.5t-28 135t28 135t78.5 91.5t116.5 32.5q58 0 99.5 -25t63.5 -60v73zM388 117.5
q39 50.5 39 129.5t-39 129.5t-107 50.5t-106 -50.5t-38 -129.5q0 -80 38 -130t106 -50t107 50.5z" />
    <glyph glyph-name="uni1EA9.ss01" horiz-adv-x="588" 
d="M409 730q-26 0 -50 -10v44q11 6 27.5 9.5t33.5 3.5q35 0 58 -16t23 -49q0 -51 -70 -74l-18 31q31 16 31 38q0 23 -35 23zM357 563l-71 82l-71 -82h-86l96 125h121l96 -125h-85zM423 494h98v-494h-96v76q-22 -36 -63.5 -62t-101.5 -26q-66 0 -116.5 32.5t-78.5 91.5
t-28 135t28 135t78.5 91.5t116.5 32.5q58 0 99.5 -25t63.5 -60v73zM388 117.5q39 50.5 39 129.5t-39 129.5t-107 50.5t-106 -50.5t-38 -129.5q0 -80 38 -130t106 -50t107 50.5z" />
    <glyph glyph-name="uni1EAB.ss01" horiz-adv-x="588" 
d="M198 718l-50 17q10 38 31.5 60t54.5 22q19 0 33.5 -6.5t32.5 -18.5q14 -9 22.5 -13t17.5 -4q27 0 36 42l50 -18q-22 -81 -87 -81q-18 0 -31.5 6t-33.5 18q-14 9 -22.5 13t-17.5 4q-28 0 -36 -41zM357 563l-71 82l-71 -82h-86l96 125h121l96 -125h-85zM423 494h98v-494
h-96v76q-22 -36 -63.5 -62t-101.5 -26q-66 0 -116.5 32.5t-78.5 91.5t-28 135t28 135t78.5 91.5t116.5 32.5q58 0 99.5 -25t63.5 -60v73zM388 117.5q39 50.5 39 129.5t-39 129.5t-107 50.5t-106 -50.5t-38 -129.5q0 -80 38 -130t106 -50t107 50.5z" />
    <glyph glyph-name="adieresis.ss01" horiz-adv-x="588" 
d="M143.5 20.5q-50.5 32.5 -78.5 91.5t-28 135t28 135t78.5 91.5t116.5 32.5q58 0 99.5 -25t63.5 -60v73h98v-494h-96v76q-22 -36 -63.5 -62t-101.5 -26q-66 0 -116.5 32.5zM388 117.5q39 50.5 39 129.5t-39 129.5t-107 50.5t-106 -50.5t-38 -129.5q0 -80 38 -130t106 -50
t107 50.5zM238 569h-98v119h98v-119zM432 569h-98v119h98v-119z" />
    <glyph glyph-name="uni0227.ss01" horiz-adv-x="588" 
d="M143.5 20.5q-50.5 32.5 -78.5 91.5t-28 135t28 135t78.5 91.5t116.5 32.5q58 0 99.5 -25t63.5 -60v73h98v-494h-96v76q-22 -36 -63.5 -62t-101.5 -26q-66 0 -116.5 32.5zM388 117.5q39 50.5 39 129.5t-39 129.5t-107 50.5t-106 -50.5t-38 -129.5q0 -80 38 -130t106 -50
t107 50.5zM335 569h-98v119h98v-119z" />
    <glyph glyph-name="uni1EA1.ss01" horiz-adv-x="588" 
d="M143.5 20.5q-50.5 32.5 -78.5 91.5t-28 135t28 135t78.5 91.5t116.5 32.5q58 0 99.5 -25t63.5 -60v73h98v-494h-96v76q-22 -36 -63.5 -62t-101.5 -26q-66 0 -116.5 32.5zM388 117.5q39 50.5 39 129.5t-39 129.5t-107 50.5t-106 -50.5t-38 -129.5q0 -80 38 -130t106 -50
t107 50.5zM341 -194h-98v119h98v-119z" />
    <glyph glyph-name="agrave.ss01" horiz-adv-x="588" 
d="M143.5 20.5q-50.5 32.5 -78.5 91.5t-28 135t28 135t78.5 91.5t116.5 32.5q58 0 99.5 -25t63.5 -60v73h98v-494h-96v76q-22 -36 -63.5 -62t-101.5 -26q-66 0 -116.5 32.5zM388 117.5q39 50.5 39 129.5t-39 129.5t-107 50.5t-106 -50.5t-38 -129.5q0 -80 38 -130t106 -50
t107 50.5zM343 562h-96l-123 126h129z" />
    <glyph glyph-name="uni1EA3.ss01" horiz-adv-x="588" 
d="M263 573q42 22 42 51q0 31 -48 31q-31 0 -66 -13v58q16 8 37.5 13t43.5 5q47 0 78 -22t31 -65q0 -68 -94 -99zM143.5 20.5q-50.5 32.5 -78.5 91.5t-28 135t28 135t78.5 91.5t116.5 32.5q58 0 99.5 -25t63.5 -60v73h98v-494h-96v76q-22 -36 -63.5 -62t-101.5 -26
q-66 0 -116.5 32.5zM388 117.5q39 50.5 39 129.5t-39 129.5t-107 50.5t-106 -50.5t-38 -129.5q0 -80 38 -130t106 -50t107 50.5z" />
    <glyph glyph-name="amacron.ss01" horiz-adv-x="588" 
d="M143.5 20.5q-50.5 32.5 -78.5 91.5t-28 135t28 135t78.5 91.5t116.5 32.5q58 0 99.5 -25t63.5 -60v73h98v-494h-96v76q-22 -36 -63.5 -62t-101.5 -26q-66 0 -116.5 32.5zM388 117.5q39 50.5 39 129.5t-39 129.5t-107 50.5t-106 -50.5t-38 -129.5q0 -80 38 -130t106 -50
t107 50.5zM437 579h-302v78h302v-78z" />
    <glyph glyph-name="aogonek.ss01" horiz-adv-x="588" 
d="M525 -214q-33 -12 -70 -12q-47 0 -80 26t-33 75q0 39 22.5 71t60.5 55v75q-22 -36 -63.5 -62t-101.5 -26q-66 0 -116.5 32.5t-78.5 91.5t-28 135t28 135t78.5 91.5t116.5 32.5q58 0 99.5 -25t63.5 -60v73h98v-494q-86 -53 -86 -107q0 -22 13 -31.5t32 -9.5q13 0 26 3z
M388 117.5q39 50.5 39 129.5t-39 129.5t-107 50.5t-106 -50.5t-38 -129.5q0 -80 38 -130t106 -50t107 50.5z" />
    <glyph glyph-name="aring.ss01" horiz-adv-x="588" 
d="M143.5 20.5q-50.5 32.5 -78.5 91.5t-28 135t28 135t78.5 91.5t116.5 32.5q58 0 99.5 -25t63.5 -60v73h98v-494h-96v76q-22 -36 -63.5 -62t-101.5 -26q-66 0 -116.5 32.5zM388 117.5q39 50.5 39 129.5t-39 129.5t-107 50.5t-106 -50.5t-38 -129.5q0 -80 38 -130t106 -50
t107 50.5zM222 570.5q-26 25.5 -26 63.5q0 37 26 62t64 25q37 0 63.5 -25t26.5 -62q0 -38 -26.5 -63.5t-63.5 -25.5q-38 0 -64 25.5zM311.5 608q10.5 10 10.5 26q0 15 -10.5 25.5t-25.5 10.5q-16 0 -26 -10.5t-10 -25.5q0 -16 10 -26t26 -10q15 0 25.5 10z" />
    <glyph glyph-name="aringacute.ss01" horiz-adv-x="588" 
d="M329 719h-87l81 113h116zM222.5 552.5q-26.5 25.5 -26.5 62.5t26.5 62.5t63.5 25.5t63.5 -25.5t26.5 -62.5t-26.5 -62.5t-63.5 -25.5t-63.5 25.5zM311.5 589.5q10.5 10.5 10.5 25.5q0 16 -10.5 26.5t-25.5 10.5q-16 0 -26 -10.5t-10 -26.5q0 -15 10 -25.5t26 -10.5
q15 0 25.5 10.5zM143.5 20.5q-50.5 32.5 -78.5 91.5t-28 135t28 135t78.5 91.5t116.5 32.5q58 0 99.5 -25t63.5 -60v73h98v-494h-96v76q-22 -36 -63.5 -62t-101.5 -26q-66 0 -116.5 32.5zM388 117.5q39 50.5 39 129.5t-39 129.5t-107 50.5t-106 -50.5t-38 -129.5
q0 -80 38 -130t106 -50t107 50.5z" />
    <glyph glyph-name="atilde.ss01" horiz-adv-x="588" 
d="M143.5 20.5q-50.5 32.5 -78.5 91.5t-28 135t28 135t78.5 91.5t116.5 32.5q58 0 99.5 -25t63.5 -60v73h98v-494h-96v76q-22 -36 -63.5 -62t-101.5 -26q-66 0 -116.5 32.5zM388 117.5q39 50.5 39 129.5t-39 129.5t-107 50.5t-106 -50.5t-38 -129.5q0 -80 38 -130t106 -50
t107 50.5zM312 569.5q-18 8.5 -41 23.5q-16 11 -26.5 16.5t-22.5 5.5q-35 0 -45 -53l-63 22q13 48 39.5 75.5t68.5 27.5q23 0 40.5 -8t41.5 -23q16 -11 27 -16.5t22 -5.5q35 0 45 52l63 -21q-28 -104 -108 -104q-23 0 -41 8.5z" />
    <glyph glyph-name="g.ss02" horiz-adv-x="550" 
d="M531 525v-75q-8 1 -27 1q-48 0 -79 -23q29 -40 29 -89q0 -47 -25.5 -85.5t-72 -60.5t-106.5 -22q-49 0 -84 13q-11 -6 -18 -15.5t-7 -19.5q0 -20 17 -30.5t50 -14.5l132 -14q79 -8 121 -35t42 -86q0 -78 -67.5 -122t-185.5 -44q-73 0 -127 17t-82.5 47.5t-28.5 70.5
q0 42 27 67.5t67 34.5q-54 25 -54 73q0 31 17.5 55.5t46.5 39.5q-33 22 -51 55.5t-18 75.5q0 47 25.5 85t71.5 60t106 22q84 0 137 -39q38 59 121 59q14 0 23 -1zM328 267q30 26 30 72q0 44 -31 71.5t-77 27.5t-76.5 -27.5t-30.5 -71.5q0 -46 30 -72t77 -26q48 0 78 26z
M170 24q-69 -24 -69 -71q0 -35 39 -53.5t109 -18.5q69 0 114 19.5t45 53.5q0 24 -26 36t-75 18z" />
    <glyph glyph-name="gbreve.ss02" horiz-adv-x="550" 
d="M531 525v-75q-8 1 -27 1q-48 0 -79 -23q29 -40 29 -89q0 -47 -25.5 -85.5t-72 -60.5t-106.5 -22q-49 0 -84 13q-11 -6 -18 -15.5t-7 -19.5q0 -20 17 -30.5t50 -14.5l132 -14q79 -8 121 -35t42 -86q0 -78 -67.5 -122t-185.5 -44q-73 0 -127 17t-82.5 47.5t-28.5 70.5
q0 42 27 67.5t67 34.5q-54 25 -54 73q0 31 17.5 55.5t46.5 39.5q-33 22 -51 55.5t-18 75.5q0 47 25.5 85t71.5 60t106 22q84 0 137 -39q38 59 121 59q14 0 23 -1zM328 267q30 26 30 72q0 44 -31 71.5t-77 27.5t-76.5 -27.5t-30.5 -71.5q0 -46 30 -72t77 -26q48 0 78 26z
M170 24q-69 -24 -69 -71q0 -35 39 -53.5t109 -18.5q69 0 114 19.5t45 53.5q0 24 -26 36t-75 18zM160.5 589.5q-36.5 32.5 -43.5 90.5h70q12 -61 69 -61q29 0 46 16.5t22 44.5h70q-7 -58 -43.5 -90.5t-94.5 -32.5q-59 0 -95.5 32.5z" />
    <glyph glyph-name="gcircumflex.ss02" horiz-adv-x="550" 
d="M531 525v-75q-8 1 -27 1q-48 0 -79 -23q29 -40 29 -89q0 -47 -25.5 -85.5t-72 -60.5t-106.5 -22q-49 0 -84 13q-11 -6 -18 -15.5t-7 -19.5q0 -20 17 -30.5t50 -14.5l132 -14q79 -8 121 -35t42 -86q0 -78 -67.5 -122t-185.5 -44q-73 0 -127 17t-82.5 47.5t-28.5 70.5
q0 42 27 67.5t67 34.5q-54 25 -54 73q0 31 17.5 55.5t46.5 39.5q-33 22 -51 55.5t-18 75.5q0 47 25.5 85t71.5 60t106 22q84 0 137 -39q38 59 121 59q14 0 23 -1zM328 267q30 26 30 72q0 44 -31 71.5t-77 27.5t-76.5 -27.5t-30.5 -71.5q0 -46 30 -72t77 -26q48 0 78 26z
M170 24q-69 -24 -69 -71q0 -35 39 -53.5t109 -18.5q69 0 114 19.5t45 53.5q0 24 -26 36t-75 18zM316 688l96 -125h-85l-72 83l-71 -83h-85l95 125h122z" />
    <glyph glyph-name="uni0123.ss02" horiz-adv-x="550" 
d="M262 661h39v-99h-92v83l39 122h45zM531 525v-75q-8 1 -27 1q-48 0 -79 -23q29 -40 29 -89q0 -47 -25.5 -85.5t-72 -60.5t-106.5 -22q-49 0 -84 13q-11 -6 -18 -15.5t-7 -19.5q0 -20 17 -30.5t50 -14.5l132 -14q79 -8 121 -35t42 -86q0 -78 -67.5 -122t-185.5 -44
q-73 0 -127 17t-82.5 47.5t-28.5 70.5q0 42 27 67.5t67 34.5q-54 25 -54 73q0 31 17.5 55.5t46.5 39.5q-33 22 -51 55.5t-18 75.5q0 47 25.5 85t71.5 60t106 22q84 0 137 -39q38 59 121 59q14 0 23 -1zM328 267q30 26 30 72q0 44 -31 71.5t-77 27.5t-76.5 -27.5t-30.5 -71.5
q0 -46 30 -72t77 -26q48 0 78 26zM170 24q-69 -24 -69 -71q0 -35 39 -53.5t109 -18.5q69 0 114 19.5t45 53.5q0 24 -26 36t-75 18z" />
    <glyph glyph-name="gdotaccent.ss02" horiz-adv-x="550" 
d="M531 525v-75q-8 1 -27 1q-48 0 -79 -23q29 -40 29 -89q0 -47 -25.5 -85.5t-72 -60.5t-106.5 -22q-49 0 -84 13q-11 -6 -18 -15.5t-7 -19.5q0 -20 17 -30.5t50 -14.5l132 -14q79 -8 121 -35t42 -86q0 -78 -67.5 -122t-185.5 -44q-73 0 -127 17t-82.5 47.5t-28.5 70.5
q0 42 27 67.5t67 34.5q-54 25 -54 73q0 31 17.5 55.5t46.5 39.5q-33 22 -51 55.5t-18 75.5q0 47 25.5 85t71.5 60t106 22q84 0 137 -39q38 59 121 59q14 0 23 -1zM328 267q30 26 30 72q0 44 -31 71.5t-77 27.5t-76.5 -27.5t-30.5 -71.5q0 -46 30 -72t77 -26q48 0 78 26z
M170 24q-69 -24 -69 -71q0 -35 39 -53.5t109 -18.5q69 0 114 19.5t45 53.5q0 24 -26 36t-75 18zM305 569h-98v119h98v-119z" />
    <glyph glyph-name="l.ss03" horiz-adv-x="260" 
d="M78 45q-8 16 -11 36t-3 55v552h98v-560q0 -26 11.5 -37.5t35.5 -11.5q10 0 32 2v-78q-28 -7 -65 -7q-71 0 -98 49z" />
    <glyph glyph-name="lacute.ss03" horiz-adv-x="260" 
d="M78 45q-8 16 -11 36t-3 55v552h98v-560q0 -26 11.5 -37.5t35.5 -11.5q10 0 32 2v-78q-28 -7 -65 -7q-71 0 -98 49zM153 756h-96l90 126h128z" />
    <glyph glyph-name="lcaron.ss03" horiz-adv-x="264" 
d="M78 45q-8 16 -11 36t-3 55v552h98v-560q0 -26 11.5 -37.5t35.5 -11.5q10 0 32 2v-78q-28 -7 -65 -7q-71 0 -98 49zM258 535h-61l30 153h88z" />
    <glyph glyph-name="uni013C.ss03" horiz-adv-x="260" 
d="M78 45q-8 16 -11 36t-3 55v552h98v-560q0 -26 11.5 -37.5t35.5 -11.5q10 0 32 2v-78q-28 -7 -65 -7q-71 0 -98 49zM162 -253h-44l30 106h-38v99h91v-83z" />
    <glyph glyph-name="ldot.ss03" horiz-adv-x="485" 
d="M78 45q-8 16 -11 36t-3 55v552h98v-560q0 -26 11.5 -37.5t35.5 -11.5q10 0 32 2v-78q-28 -7 -65 -7q-71 0 -98 49zM412 217h-114v124h114v-124z" />
    <glyph glyph-name="lslash.ss03" horiz-adv-x="326" 
d="M284 81v-79q-27 -6 -65 -6q-70 0 -97 49q-8 16 -11 36t-3 55v128l-75 -47v97l75 47v327h98v-265l76 48v-98l-76 -48v-197q0 -26 11.5 -37.5t35.5 -11.5q11 0 31 2z" />
    <glyph glyph-name="t.ss04" horiz-adv-x="314" 
d="M201 0h-98v414h-88v80h88v156h98v-156h100v-80h-100v-414z" />
    <glyph glyph-name="tbar.ss04" horiz-adv-x="314" 
d="M301 494v-80h-100v-104h100v-78h-100v-232h-98v232h-88v78h88v104h-88v80h88v156h98v-156h100z" />
    <glyph glyph-name="tcaron.ss04" horiz-adv-x="314" 
d="M296 535h-60l30 153h88zM201 0h-98v414h-88v80h88v156h98v-156h100v-80h-100v-414z" />
    <glyph glyph-name="uni0163.ss04" horiz-adv-x="314" 
d="M201 0h-17l-13 -35q33 -5 55.5 -24t22.5 -52q0 -48 -42 -71.5t-104 -23.5h-11v57h4q31 0 52 9.5t21 28.5q0 29 -48 29h-28l28 82h-18v414h-88v80h88v156h98v-156h100v-80h-100v-414z" />
    <glyph glyph-name="uni021B.ss04" horiz-adv-x="314" 
d="M201 0h-98v414h-88v80h88v156h98v-156h100v-80h-100v-414zM159 -253h-45l31 106h-39v99h92v-83z" />
    <glyph glyph-name="u.ss05" horiz-adv-x="542" 
d="M116.5 42.5q-54.5 54.5 -54.5 156.5v295h98v-289q0 -66 25.5 -99.5t85.5 -33.5t86 34t26 99v289h98v-295q0 -102 -55 -156.5t-155 -54.5t-154.5 54.5z" />
    <glyph glyph-name="uacute.ss05" horiz-adv-x="542" 
d="M116.5 42.5q-54.5 54.5 -54.5 156.5v295h98v-289q0 -66 25.5 -99.5t85.5 -33.5t86 34t26 99v289h98v-295q0 -102 -55 -156.5t-155 -54.5t-154.5 54.5zM310 562h-96l90 126h128z" />
    <glyph glyph-name="ubreve.ss05" horiz-adv-x="542" 
d="M116.5 42.5q-54.5 54.5 -54.5 156.5v295h98v-289q0 -66 25.5 -99.5t85.5 -33.5t86 34t26 99v289h98v-295q0 -102 -55 -156.5t-155 -54.5t-154.5 54.5zM176.5 589.5q-36.5 32.5 -43.5 90.5h70q12 -61 69 -61q29 0 46 16.5t22 44.5h70q-7 -58 -43.5 -90.5t-94.5 -32.5
q-59 0 -95.5 32.5z" />
    <glyph glyph-name="ucircumflex.ss05" horiz-adv-x="542" 
d="M116.5 42.5q-54.5 54.5 -54.5 156.5v295h98v-289q0 -66 25.5 -99.5t85.5 -33.5t86 34t26 99v289h98v-295q0 -102 -55 -156.5t-155 -54.5t-154.5 54.5zM332 688l96 -125h-85l-72 83l-71 -83h-85l95 125h122z" />
    <glyph glyph-name="udieresis.ss05" horiz-adv-x="542" 
d="M116.5 42.5q-54.5 54.5 -54.5 156.5v295h98v-289q0 -66 25.5 -99.5t85.5 -33.5t86 34t26 99v289h98v-295q0 -102 -55 -156.5t-155 -54.5t-154.5 54.5zM223 569h-98v119h98v-119zM417 569h-98v119h98v-119z" />
    <glyph glyph-name="uni1EE5.ss05" horiz-adv-x="542" 
d="M116.5 42.5q-54.5 54.5 -54.5 156.5v295h98v-289q0 -66 25.5 -99.5t85.5 -33.5t86 34t26 99v289h98v-295q0 -102 -55 -156.5t-155 -54.5t-154.5 54.5zM320 -194h-98v119h98v-119z" />
    <glyph glyph-name="ugrave.ss05" horiz-adv-x="542" 
d="M116.5 42.5q-54.5 54.5 -54.5 156.5v295h98v-289q0 -66 25.5 -99.5t85.5 -33.5t86 34t26 99v289h98v-295q0 -102 -55 -156.5t-155 -54.5t-154.5 54.5zM328 562h-96l-123 126h129z" />
    <glyph glyph-name="uni1EE7.ss05" horiz-adv-x="542" 
d="M249 573q41 23 41 51q0 31 -47 31q-34 0 -66 -13v58q15 7 36.5 12.5t43.5 5.5q47 0 78 -22t31 -65q0 -68 -94 -99zM116.5 42.5q-54.5 54.5 -54.5 156.5v295h98v-289q0 -66 25.5 -99.5t85.5 -33.5t86 34t26 99v289h98v-295q0 -102 -55 -156.5t-155 -54.5t-154.5 54.5z" />
    <glyph glyph-name="uhorn.ss05" horiz-adv-x="567" 
d="M512 581h84v-36q0 -52 -29.5 -78t-85.5 -32v-236q0 -102 -55 -156.5t-155 -54.5t-154.5 54.5t-54.5 156.5v295h98v-289q0 -66 25.5 -99.5t85.5 -33.5t86 34t26 99v289h74q28 0 41.5 11.5t13.5 38.5v37z" />
    <glyph glyph-name="uni1EE9.ss05" horiz-adv-x="567" 
d="M512 581h84v-36q0 -52 -29.5 -78t-85.5 -32v-236q0 -102 -55 -156.5t-155 -54.5t-154.5 54.5t-54.5 156.5v295h98v-289q0 -66 25.5 -99.5t85.5 -33.5t86 34t26 99v289h74q28 0 41.5 11.5t13.5 38.5v37zM310 562h-96l90 126h128z" />
    <glyph glyph-name="uni1EF1.ss05" horiz-adv-x="567" 
d="M512 581h84v-36q0 -52 -29.5 -78t-85.5 -32v-236q0 -102 -55 -156.5t-155 -54.5t-154.5 54.5t-54.5 156.5v295h98v-289q0 -66 25.5 -99.5t85.5 -33.5t86 34t26 99v289h74q28 0 41.5 11.5t13.5 38.5v37zM320 -194h-98v119h98v-119z" />
    <glyph glyph-name="uni1EEB.ss05" horiz-adv-x="567" 
d="M512 581h84v-36q0 -52 -29.5 -78t-85.5 -32v-236q0 -102 -55 -156.5t-155 -54.5t-154.5 54.5t-54.5 156.5v295h98v-289q0 -66 25.5 -99.5t85.5 -33.5t86 34t26 99v289h74q28 0 41.5 11.5t13.5 38.5v37zM328 562h-96l-123 126h129z" />
    <glyph glyph-name="uni1EED.ss05" horiz-adv-x="567" 
d="M243 655q-34 0 -66 -13v58q15 7 36.5 12.5t43.5 5.5q47 0 78 -22t31 -65q0 -68 -94 -99l-23 41q41 23 41 51q0 31 -47 31zM512 581h84v-36q0 -52 -29.5 -78t-85.5 -32v-236q0 -102 -55 -156.5t-155 -54.5t-154.5 54.5t-54.5 156.5v295h98v-289q0 -66 25.5 -99.5
t85.5 -33.5t86 34t26 99v289h74q28 0 41.5 11.5t13.5 38.5v37z" />
    <glyph glyph-name="uni1EEF.ss05" horiz-adv-x="567" 
d="M512 581h84v-36q0 -52 -29.5 -78t-85.5 -32v-236q0 -102 -55 -156.5t-155 -54.5t-154.5 54.5t-54.5 156.5v295h98v-289q0 -66 25.5 -99.5t85.5 -33.5t86 34t26 99v289h74q28 0 41.5 11.5t13.5 38.5v37zM298 569.5q-18 8.5 -41 23.5q-16 11 -26.5 16.5t-22.5 5.5
q-35 0 -45 -53l-63 22q13 48 39.5 75.5t68.5 27.5q23 0 40.5 -8t41.5 -23q16 -11 27 -16.5t22 -5.5q35 0 45 52l63 -21q-28 -104 -108 -104q-23 0 -41 8.5z" />
    <glyph glyph-name="uhungarumlaut.ss05" horiz-adv-x="542" 
d="M211 562h-96l90 126h128zM409 562h-96l90 126h129zM116.5 42.5q-54.5 54.5 -54.5 156.5v295h98v-289q0 -66 25.5 -99.5t85.5 -33.5t86 34t26 99v289h98v-295q0 -102 -55 -156.5t-155 -54.5t-154.5 54.5z" />
    <glyph glyph-name="umacron.ss05" horiz-adv-x="542" 
d="M116.5 42.5q-54.5 54.5 -54.5 156.5v295h98v-289q0 -66 25.5 -99.5t85.5 -33.5t86 34t26 99v289h98v-295q0 -102 -55 -156.5t-155 -54.5t-154.5 54.5zM422 579h-302v78h302v-78z" />
    <glyph glyph-name="uogonek.ss05" horiz-adv-x="542" 
d="M383 494h98v-295q0 -79 -34 -130.5t-97 -70.5q-83 -51 -83 -105q0 -22 13 -31.5t32 -9.5q12 0 26 3l18 -69q-33 -12 -70 -12q-46 0 -79.5 26t-33.5 75q0 66 66 115q-85 8 -131 62t-46 147v295h98v-289q0 -66 25.5 -99.5t85.5 -33.5t86 34t26 99v289z" />
    <glyph glyph-name="uring.ss05" horiz-adv-x="542" 
d="M207.5 570.5q-26.5 25.5 -26.5 63.5q0 37 26.5 62t63.5 25t63.5 -25t26.5 -62q0 -38 -26.5 -63.5t-63.5 -25.5t-63.5 25.5zM296.5 608q10.5 10 10.5 26q0 15 -10.5 25.5t-25.5 10.5q-16 0 -26 -10.5t-10 -25.5q0 -16 10 -26t26 -10q15 0 25.5 10zM116.5 42.5
q-54.5 54.5 -54.5 156.5v295h98v-289q0 -66 25.5 -99.5t85.5 -33.5t86 34t26 99v289h98v-295q0 -102 -55 -156.5t-155 -54.5t-154.5 54.5z" />
    <glyph glyph-name="utilde.ss05" horiz-adv-x="542" 
d="M298 569.5q-18 8.5 -41 23.5q-16 11 -26.5 16.5t-22.5 5.5q-35 0 -45 -53l-63 22q13 48 39.5 75.5t68.5 27.5q23 0 40.5 -8t41.5 -23q16 -11 27 -16.5t22 -5.5q35 0 45 52l63 -21q-28 -104 -108 -104q-23 0 -41 8.5zM116.5 42.5q-54.5 54.5 -54.5 156.5v295h98v-289
q0 -66 25.5 -99.5t85.5 -33.5t86 34t26 99v289h98v-295q0 -102 -55 -156.5t-155 -54.5t-154.5 54.5z" />
    <glyph glyph-name="y.ss06" horiz-adv-x="549" 
d="M125.5 -153.5q-54.5 43.5 -63.5 115.5l100 14q8 -47 35.5 -72t74.5 -25q53 0 83 30t30 91v103h-1q-23 -35 -62 -57.5t-88 -22.5q-79 0 -125 48.5t-46 136.5v286h98v-249q0 -71 21 -105t78 -34q54 0 89.5 42t35.5 102v244h97v-497q0 -100 -59 -147t-157 -47
q-86 0 -140.5 43.5z" />
    <glyph glyph-name="yacute.ss06" horiz-adv-x="549" 
d="M125.5 -153.5q-54.5 43.5 -63.5 115.5l100 14q8 -47 35.5 -72t74.5 -25q53 0 83 30t30 91v103h-1q-23 -35 -62 -57.5t-88 -22.5q-79 0 -125 48.5t-46 136.5v286h98v-249q0 -71 21 -105t78 -34q54 0 89.5 42t35.5 102v244h97v-497q0 -100 -59 -147t-157 -47
q-86 0 -140.5 43.5zM309 562h-96l90 126h128z" />
    <glyph glyph-name="ycircumflex.ss06" horiz-adv-x="549" 
d="M125.5 -153.5q-54.5 43.5 -63.5 115.5l100 14q8 -47 35.5 -72t74.5 -25q53 0 83 30t30 91v103h-1q-23 -35 -62 -57.5t-88 -22.5q-79 0 -125 48.5t-46 136.5v286h98v-249q0 -71 21 -105t78 -34q54 0 89.5 42t35.5 102v244h97v-497q0 -100 -59 -147t-157 -47
q-86 0 -140.5 43.5zM330 688l96 -125h-85l-72 83l-71 -83h-85l95 125h122z" />
    <glyph glyph-name="ydieresis.ss06" horiz-adv-x="549" 
d="M125.5 -153.5q-54.5 43.5 -63.5 115.5l100 14q8 -47 35.5 -72t74.5 -25q53 0 83 30t30 91v103h-1q-23 -35 -62 -57.5t-88 -22.5q-79 0 -125 48.5t-46 136.5v286h98v-249q0 -71 21 -105t78 -34q54 0 89.5 42t35.5 102v244h97v-497q0 -100 -59 -147t-157 -47
q-86 0 -140.5 43.5zM222 569h-98v119h98v-119zM416 569h-98v119h98v-119z" />
    <glyph glyph-name="uni1EF5.ss06" horiz-adv-x="549" 
d="M125.5 -153.5q-54.5 43.5 -63.5 115.5l100 14q8 -47 35.5 -72t74.5 -25q53 0 83 30t30 91v103h-1q-23 -35 -62 -57.5t-88 -22.5q-79 0 -125 48.5t-46 136.5v286h98v-249q0 -71 21 -105t78 -34q54 0 89.5 42t35.5 102v244h97v-497q0 -100 -59 -147t-157 -47
q-86 0 -140.5 43.5zM616 -194h-98v119h98v-119z" />
    <glyph glyph-name="ygrave.ss06" horiz-adv-x="549" 
d="M125.5 -153.5q-54.5 43.5 -63.5 115.5l100 14q8 -47 35.5 -72t74.5 -25q53 0 83 30t30 91v103h-1q-23 -35 -62 -57.5t-88 -22.5q-79 0 -125 48.5t-46 136.5v286h98v-249q0 -71 21 -105t78 -34q54 0 89.5 42t35.5 102v244h97v-497q0 -100 -59 -147t-157 -47
q-86 0 -140.5 43.5zM327 562h-96l-123 126h129z" />
    <glyph glyph-name="uni1EF7.ss06" horiz-adv-x="549" 
d="M247 573q42 22 42 51q0 31 -48 31q-16 0 -34.5 -4t-31.5 -9v58q16 8 37.5 13t43.5 5q47 0 78 -22t31 -65q0 -68 -95 -99zM125.5 -153.5q-54.5 43.5 -63.5 115.5l100 14q8 -47 35.5 -72t74.5 -25q53 0 83 30t30 91v103h-1q-23 -35 -62 -57.5t-88 -22.5q-79 0 -125 48.5
t-46 136.5v286h98v-249q0 -71 21 -105t78 -34q54 0 89.5 42t35.5 102v244h97v-497q0 -100 -59 -147t-157 -47q-86 0 -140.5 43.5z" />
    <glyph glyph-name="uni0233.ss06" horiz-adv-x="549" 
d="M125.5 -153.5q-54.5 43.5 -63.5 115.5l100 14q8 -47 35.5 -72t74.5 -25q53 0 83 30t30 91v103h-1q-23 -35 -62 -57.5t-88 -22.5q-79 0 -125 48.5t-46 136.5v286h98v-249q0 -71 21 -105t78 -34q54 0 89.5 42t35.5 102v244h97v-497q0 -100 -59 -147t-157 -47
q-86 0 -140.5 43.5zM420 579h-302v78h302v-78z" />
    <glyph glyph-name="uni1EF9.ss06" horiz-adv-x="549" 
d="M125.5 -153.5q-54.5 43.5 -63.5 115.5l100 14q8 -47 35.5 -72t74.5 -25q53 0 83 30t30 91v103h-1q-23 -35 -62 -57.5t-88 -22.5q-79 0 -125 48.5t-46 136.5v286h98v-249q0 -71 21 -105t78 -34q54 0 89.5 42t35.5 102v244h97v-497q0 -100 -59 -147t-157 -47
q-86 0 -140.5 43.5zM296 569.5q-18 8.5 -41 23.5q-16 11 -26.5 16.5t-22.5 5.5q-35 0 -45 -53l-63 22q13 48 39.5 75.5t68.5 27.5q23 0 40.5 -8t41.5 -23q16 -11 27 -16.5t22 -5.5q35 0 45 52l63 -21q-28 -104 -108 -104q-23 0 -41 8.5z" />
    <glyph glyph-name="uni1EB7.ss12" horiz-adv-x="518" 
d="M165.5 589.5q-36.5 32.5 -43.5 90.5h70q5 -28 22 -44.5t46 -16.5q57 0 69 61h70q-7 -58 -43.5 -90.5t-95.5 -32.5q-58 0 -94.5 32.5zM127 5.5q-39 17.5 -62.5 50.5t-23.5 78q0 65 42.5 101t126.5 53l70 14q41 9 58 21.5t17 41.5q0 30 -24.5 48.5t-67.5 18.5
q-49 0 -79.5 -28.5t-33.5 -76.5l-100 9q5 78 62.5 124t148.5 46q92 0 142.5 -43t50.5 -124v-339h-94v55h-1q-19 -29 -57.5 -48t-90.5 -19q-45 0 -84 17.5zM324.5 93q34.5 33 34.5 89v65q-68 -11 -108 -21.5t-62 -23.5q-47 -24 -47 -66q0 -34 26 -55t68 -21q54 0 88.5 33z
M211 -180q-16 17 -16 41t16 41t42 17q27 0 42.5 -17t15.5 -41t-15.5 -41t-42.5 -17q-26 0 -42 17z" />
    <glyph glyph-name="uni1EAD.ss12" horiz-adv-x="518" 
d="M332 563l-72 83l-71 -83h-85l95 125h122l96 -125h-85zM403.5 463q50.5 -43 50.5 -124v-339h-94v55h-1q-19 -29 -57.5 -48t-90.5 -19q-45 0 -84 17.5t-62.5 50.5t-23.5 78q0 65 42.5 101t126.5 53l70 14q41 9 58 21.5t17 41.5q0 30 -24.5 48.5t-67.5 18.5
q-49 0 -79.5 -28.5t-33.5 -76.5l-100 9q5 78 62.5 124t148.5 46q92 0 142.5 -43zM359 247q-68 -11 -108 -21.5t-62 -23.5q-47 -24 -47 -66q0 -34 26 -55t68 -21q54 0 88.5 33t34.5 89v65zM295.5 -98q15.5 -17 15.5 -41t-15.5 -41t-42.5 -17q-26 0 -42 17t-16 41t16 41t42 17
q27 0 42.5 -17z" />
    <glyph glyph-name="adieresis.ss12" horiz-adv-x="518" 
d="M127 5.5q-39 17.5 -62.5 50.5t-23.5 78q0 65 42.5 101t126.5 53l70 14q41 9 58 21.5t17 41.5q0 30 -24.5 48.5t-67.5 18.5q-49 0 -79.5 -28.5t-33.5 -76.5l-100 9q5 78 62.5 124t148.5 46q92 0 142.5 -43t50.5 -124v-339h-94v55h-1q-19 -29 -57.5 -48t-90.5 -19
q-45 0 -84 17.5zM324.5 93q34.5 33 34.5 89v65q-68 -11 -108 -21.5t-62 -23.5q-47 -24 -47 -66q0 -34 26 -55t68 -21q54 0 88.5 33zM121 588q-16 17 -16 41t16 41t42 17t42 -17t16 -41t-16 -41t-42 -17t-42 17zM315 588q-16 17 -16 41t16 41t42 17t42 -17t16 -41t-16 -41
t-42 -17t-42 17z" />
    <glyph glyph-name="uni0227.ss12" horiz-adv-x="518" 
d="M127 5.5q-39 17.5 -62.5 50.5t-23.5 78q0 65 42.5 101t126.5 53l70 14q41 9 58 21.5t17 41.5q0 30 -24.5 48.5t-67.5 18.5q-49 0 -79.5 -28.5t-33.5 -76.5l-100 9q5 78 62.5 124t148.5 46q92 0 142.5 -43t50.5 -124v-339h-94v55h-1q-19 -29 -57.5 -48t-90.5 -19
q-45 0 -84 17.5zM324.5 93q34.5 33 34.5 89v65q-68 -11 -108 -21.5t-62 -23.5q-47 -24 -47 -66q0 -34 26 -55t68 -21q54 0 88.5 33zM219 588q-16 17 -16 41t16 41t42 17t42 -17t16 -41t-16 -41t-42 -17t-42 17z" />
    <glyph glyph-name="uni1EA1.ss12" horiz-adv-x="518" 
d="M127 5.5q-39 17.5 -62.5 50.5t-23.5 78q0 65 42.5 101t126.5 53l70 14q41 9 58 21.5t17 41.5q0 30 -24.5 48.5t-67.5 18.5q-49 0 -79.5 -28.5t-33.5 -76.5l-100 9q5 78 62.5 124t148.5 46q92 0 142.5 -43t50.5 -124v-339h-94v55h-1q-19 -29 -57.5 -48t-90.5 -19
q-45 0 -84 17.5zM324.5 93q34.5 33 34.5 89v65q-68 -11 -108 -21.5t-62 -23.5q-47 -24 -47 -66q0 -34 26 -55t68 -21q54 0 88.5 33zM211 -180q-16 17 -16 41t16 41t42 17q27 0 42.5 -17t15.5 -41t-15.5 -41t-42.5 -17q-26 0 -42 17z" />
    <glyph glyph-name="cdotaccent.ss12" horiz-adv-x="531" 
d="M152 20.5q-55 32.5 -85 91.5t-30 135t30.5 135t85 91.5t125.5 32.5q89 0 146 -46.5t78 -122.5l-101 -25q-10 51 -41 82.5t-83 31.5q-62 0 -100.5 -47.5t-38.5 -130.5q0 -86 38.5 -133t102.5 -47q50 0 82.5 29.5t43.5 84.5l100 -25q-24 -76 -80 -122.5t-146 -46.5
q-72 0 -127 32.5zM237 588q-16 17 -16 41t16 41t42 17t42 -17t16 -41t-16 -41t-42 -17t-42 17z" />
    <glyph glyph-name="uni1EC7.ss12" horiz-adv-x="535" 
d="M343 563l-72 83l-71 -83h-85l95 125h122l96 -125h-85zM498 225h-365q3 -76 41 -117t97 -41q50 0 81.5 25.5t43.5 71.5l99 -13q-20 -69 -75.5 -116t-149.5 -47q-68 0 -120.5 30.5t-82.5 89t-30 138.5q0 78 31 137t85 91t120 32q64 0 115.5 -31.5t80.5 -88.5t29 -129v-32z
M396 299q-3 54 -37 91.5t-86 37.5q-56 0 -94 -36t-44 -93h261zM309.5 -98q15.5 -17 15.5 -41t-15.5 -41t-42.5 -17q-26 0 -41.5 17t-15.5 41t15.5 41t41.5 17q27 0 42.5 -17z" />
    <glyph glyph-name="edieresis.ss12" horiz-adv-x="535" 
d="M498 225h-365q3 -76 41 -117t97 -41q50 0 81.5 25.5t43.5 71.5l99 -13q-20 -69 -75.5 -116t-149.5 -47q-68 0 -120.5 30.5t-82.5 89t-30 138.5q0 78 31 137t85 91t120 32q64 0 115.5 -31.5t80.5 -88.5t29 -129v-32zM396 299q-3 54 -37 91.5t-86 37.5q-56 0 -94 -36
t-44 -93h261zM132 588q-16 17 -16 41t16 41t42 17t42 -17t16 -41t-16 -41t-42 -17t-42 17zM326 588q-16 17 -16 41t16 41t42 17t42 -17t16 -41t-16 -41t-42 -17t-42 17z" />
    <glyph glyph-name="edotaccent.ss12" horiz-adv-x="535" 
d="M498 225h-365q3 -76 41 -117t97 -41q50 0 81.5 25.5t43.5 71.5l99 -13q-20 -69 -75.5 -116t-149.5 -47q-68 0 -120.5 30.5t-82.5 89t-30 138.5q0 78 31 137t85 91t120 32q64 0 115.5 -31.5t80.5 -88.5t29 -129v-32zM396 299q-3 54 -37 91.5t-86 37.5q-56 0 -94 -36
t-44 -93h261zM230 588q-16 17 -16 41t16 41t42 17t42 -17t16 -41t-16 -41t-42 -17t-42 17z" />
    <glyph glyph-name="uni1EB9.ss12" horiz-adv-x="535" 
d="M498 225h-365q3 -76 41 -117t97 -41q50 0 81.5 25.5t43.5 71.5l99 -13q-20 -69 -75.5 -116t-149.5 -47q-68 0 -120.5 30.5t-82.5 89t-30 138.5q0 78 31 137t85 91t120 32q64 0 115.5 -31.5t80.5 -88.5t29 -129v-32zM396 299q-3 54 -37 91.5t-86 37.5q-56 0 -94 -36
t-44 -93h261zM309.5 -98q15.5 -17 15.5 -41t-15.5 -41t-42.5 -17q-26 0 -41.5 17t-15.5 41t15.5 41t41.5 17q27 0 42.5 -17z" />
    <glyph glyph-name="uni0123.ss12" horiz-adv-x="566" 
d="M323 718q-41 -24 -53 -59q5 1 11 1q21 0 34.5 -13.5t13.5 -36.5q0 -22 -13.5 -37t-36.5 -15q-24 0 -38.5 16.5t-14.5 46.5q0 47 26.5 82t70.5 57v-42zM123.5 -152q-59.5 45 -67.5 124l101 12q13 -105 123 -105q56 0 89 32t33 96v97q-23 -35 -61 -57.5t-91 -22.5
q-60 0 -108 30t-75.5 84.5t-27.5 126.5t27.5 126.5t75.5 84.5t108 30q53 0 91 -22.5t61 -57.5v68h98v-485q0 -102 -62.5 -154t-161.5 -52q-93 0 -152.5 45zM368 149.5q36 46.5 36 115.5t-35.5 115.5t-96.5 46.5q-62 0 -97 -45t-35 -117t35 -117t97 -45q60 0 96 46.5z" />
    <glyph glyph-name="gdotaccent.ss12" horiz-adv-x="567" 
d="M123.5 -152q-59.5 45 -67.5 124l101 12q13 -105 123 -105q56 0 89 32t33 96v97q-23 -35 -61 -57.5t-91 -22.5q-60 0 -108 30t-75.5 84.5t-27.5 126.5t27.5 126.5t75.5 84.5t108 30q53 0 91 -22.5t61 -57.5v68h98v-485q0 -102 -62.5 -154t-161.5 -52q-93 0 -152.5 45z
M368 149.5q36 46.5 36 115.5t-35.5 115.5t-96.5 46.5q-62 0 -97 -45t-35 -117t35 -117t97 -45q60 0 96 46.5zM236 588q-16 17 -16 41t16 41t42 17t42 -17t16 -41t-16 -41t-42 -17t-42 17z" />
    <glyph glyph-name="i.ss12" horiz-adv-x="233" 
d="M72 585.5q-17 17.5 -17 44.5q0 26 17 43t45 17q27 0 44 -17t17 -43q0 -27 -17 -44.5t-44 -17.5q-28 0 -45 17.5zM166 0h-98v494h98v-494z" />
    <glyph glyph-name="idieresis.ss12" horiz-adv-x="233" 
d="M166 0h-98v494h98v-494zM-22 588q-16 17 -16 41t16 41t42 17t42 -17t16 -41t-16 -41t-42 -17t-42 17zM172 588q-16 17 -16 41t16 41t42 17t42 -17t16 -41t-16 -41t-42 -17t-42 17z" />
    <glyph glyph-name="i.loclTRK.ss12" horiz-adv-x="233" 
d="M72 585.5q-17 17.5 -17 44.5q0 26 17 43t45 17q27 0 44 -17t17 -43q0 -27 -17 -44.5t-44 -17.5q-28 0 -45 17.5zM166 0h-98v494h98v-494z" />
    <glyph glyph-name="uni1ECB.ss12" horiz-adv-x="233" 
d="M72 585.5q-17 17.5 -17 44.5q0 26 17 43t45 17q27 0 44 -17t17 -43q0 -27 -17 -44.5t-44 -17.5q-28 0 -45 17.5zM166 0h-98v494h98v-494zM75 -180q-16 17 -16 41t16 41t42 17t42 -17t16 -41t-16 -41t-42 -17t-42 17z" />
    <glyph glyph-name="ij.ss12" horiz-adv-x="462" 
d="M72 585.5q-17 17.5 -17 44.5q0 26 17 43t45 17q27 0 44 -17t17 -43q0 -27 -17 -44.5t-44 -17.5q-28 0 -45 17.5zM166 0h-98v494h98v-494zM300 585.5q-17 17.5 -17 44.5q0 26 17 43t45 17q27 0 44 -17t17 -43q0 -27 -17 -44.5t-44 -17.5q-28 0 -45 17.5zM199 -190v77
q17 -4 38 -4q28 0 43.5 12.5t15.5 46.5v552h98v-550q0 -40 -8 -65q-10 -35 -43 -55.5t-83 -20.5q-36 0 -61 7z" />
    <glyph glyph-name="iogonek.ss12" horiz-adv-x="234" 
d="M73 585.5q-17 17.5 -17 44.5q0 26 17 43t44 17q28 0 45 -17t17 -43q0 -27 -17 -44.5t-45 -17.5q-27 0 -44 17.5zM152 -145l18 -69q-33 -12 -70 -12q-46 0 -79.5 26t-33.5 75q0 38 22 70t59 55v494h98v-494q-85 -54 -85 -107q0 -22 13 -31.5t32 -9.5q12 0 26 3z" />
    <glyph glyph-name="j.ss12" horiz-adv-x="233" 
d="M72 585.5q-17 17.5 -17 44.5q0 26 17 43t45 17q27 0 44 -17t17 -43q0 -27 -17 -44.5t-44 -17.5q-28 0 -45 17.5zM-29 -190v77q17 -4 38 -4q28 0 43.5 12.5t15.5 46.5v552h98v-550q0 -40 -8 -65q-10 -35 -43 -55.5t-83 -20.5q-36 0 -61 7z" />
    <glyph glyph-name="uni0137.ss12" horiz-adv-x="519" 
d="M502 494l-221 -228l249 -266h-128l-236 256v-256h-98v688h98v-424l212 230h124zM307.5 -60.5q14.5 -16.5 14.5 -46.5q0 -47 -26.5 -82t-70.5 -57v42q40 23 52 59q-4 -1 -11 -1q-21 0 -34.5 13.5t-13.5 36.5q0 22 14 37t37 15q24 0 38.5 -16.5z" />
    <glyph glyph-name="uni013C.ss12" horiz-adv-x="233" 
d="M166 0h-98v688h98v-688zM72 -204q40 23 52 59q-4 -1 -11 -1q-21 0 -34.5 13.5t-13.5 36.5q0 22 14 37t37 15q24 0 38.5 -16.5t14.5 -46.5q0 -47 -26.5 -82t-70.5 -57v42z" />
    <glyph glyph-name="ldot.ss12" horiz-adv-x="444" 
d="M166 0h-98v688h98v-688zM308.5 231q-17.5 19 -17.5 47t17.5 46.5t46.5 18.5t46.5 -18.5t17.5 -46.5t-17.5 -47t-46.5 -19t-46.5 19z" />
    <glyph glyph-name="uni0146.ss12" horiz-adv-x="557" 
d="M68 0v494h97v-68h1q23 34 63.5 57t91.5 23q79 0 125.5 -48t46.5 -133v-325h-97v280q0 74 -21.5 108.5t-80.5 34.5q-57 0 -92.5 -42t-35.5 -103v-278h-98zM235 -204q40 23 52 59q-4 -1 -11 -1q-21 0 -34.5 13.5t-13.5 36.5q0 22 14 37t37 15q24 0 38.5 -16.5t14.5 -46.5
q0 -47 -26.5 -82t-70.5 -57v42z" />
    <glyph glyph-name="uni1ED9.ss12" horiz-adv-x="555" 
d="M349 563l-71 82l-72 -82h-85l96 125h121l96 -125h-85zM405.5 472q54.5 -34 84 -93t29.5 -132t-29.5 -132t-84 -93t-127.5 -34t-128 34t-84.5 93t-29.5 132t29.5 132t84.5 93t128 34t127.5 -34zM382.5 118.5q35.5 50.5 35.5 128.5t-35.5 128.5t-104.5 50.5t-105 -50.5
t-36 -128.5t36 -128.5t105 -50.5t104.5 50.5zM320 -98q16 -17 16 -41t-16 -41t-42 -17q-27 0 -42.5 17t-15.5 41t15.5 41t42.5 17q26 0 42 -17z" />
    <glyph glyph-name="odieresis.ss12" horiz-adv-x="555" 
d="M150 22q-55 34 -84.5 93t-29.5 132t29.5 132t84.5 93t128 34t127.5 -34t84 -93t29.5 -132t-29.5 -132t-84 -93t-127.5 -34t-128 34zM382.5 118.5q35.5 50.5 35.5 128.5t-35.5 128.5t-104.5 50.5t-105 -50.5t-36 -128.5t36 -128.5t105 -50.5t104.5 50.5zM138 588
q-16 17 -16 41t16 41t42 17t42 -17t16 -41t-16 -41t-42 -17t-42 17zM332 588q-16 17 -16 41t16 41t42 17t42 -17t16 -41t-16 -41t-42 -17t-42 17z" />
    <glyph glyph-name="uni1ECD.ss12" horiz-adv-x="555" 
d="M150 22q-55 34 -84.5 93t-29.5 132t29.5 132t84.5 93t128 34t127.5 -34t84 -93t29.5 -132t-29.5 -132t-84 -93t-127.5 -34t-128 34zM382.5 118.5q35.5 50.5 35.5 128.5t-35.5 128.5t-104.5 50.5t-105 -50.5t-36 -128.5t36 -128.5t105 -50.5t104.5 50.5zM235.5 -180
q-15.5 17 -15.5 41t15.5 41t42.5 17q26 0 42 -17t16 -41t-16 -41t-42 -17q-27 0 -42.5 17z" />
    <glyph glyph-name="uni1EE3.ss12" horiz-adv-x="562" 
d="M536 545q0 -89 -89 -106q35 -35 53.5 -84.5t18.5 -107.5q0 -73 -29.5 -132t-84 -93t-127.5 -34t-128 34t-84.5 93t-29.5 132t29.5 132t84.5 93t128 34h1q25 0 76 -7q28 -5 45 -5q27 0 39.5 11.5t12.5 38.5v37h84v-36zM382.5 118.5q35.5 50.5 35.5 128.5t-35.5 128.5
t-104.5 50.5t-105 -50.5t-36 -128.5t36 -128.5t105 -50.5t104.5 50.5zM320 -98q16 -17 16 -41t-16 -41t-42 -17q-27 0 -42.5 17t-15.5 41t15.5 41t42.5 17q26 0 42 -17z" />
    <glyph glyph-name="uni0157.ss12" horiz-adv-x="347" 
d="M335 504v-93q-9 1 -28 1q-66 0 -103.5 -37.5t-37.5 -107.5v-267h-98v494h96v-89q16 43 53.5 72t90.5 29q11 0 27 -2zM153.5 -60.5q14.5 -16.5 14.5 -46.5q0 -47 -26.5 -82t-70.5 -57v42q40 23 52 59q-4 -1 -11 -1q-21 0 -34.5 13.5t-13.5 36.5q0 22 14 37t37 15
q24 0 38.5 -16.5z" />
    <glyph glyph-name="uni0219.ss12" horiz-adv-x="493" 
d="M95 33q-60 45 -68 130l97 15q5 -57 40 -86t89 -29q50 0 79.5 20.5t29.5 56.5q0 30 -23 44.5t-80 27.5l-74 17q-66 15 -102 46t-36 86q0 41 26 74.5t71.5 52t101.5 18.5q82 0 136 -39.5t63 -108.5l-97 -17q-5 42 -32.5 66t-72.5 24q-44 0 -70 -18.5t-26 -47.5
q0 -26 20 -38.5t67 -23.5l74 -17q79 -18 116 -48t37 -89q0 -48 -28 -84.5t-76.5 -56.5t-107.5 -20q-94 0 -154 45zM210 -204q40 23 52 59q-4 -1 -11 -1q-21 0 -34.5 13.5t-13.5 36.5q0 22 14 37t37 15q24 0 38.5 -16.5t14.5 -46.5q0 -47 -26.5 -82t-70.5 -57v42z" />
    <glyph glyph-name="uni1EB7.ss01.ss12" horiz-adv-x="588" 
d="M190.5 589.5q-36.5 32.5 -43.5 90.5h70q6 -28 23 -44.5t46 -16.5q58 0 68 61h70q-7 -58 -43.5 -90.5t-94.5 -32.5q-59 0 -95.5 32.5zM143.5 20.5q-50.5 32.5 -78.5 91.5t-28 135t28 135t78.5 91.5t116.5 32.5q58 0 99.5 -25t63.5 -60v73h98v-494h-96v76
q-22 -36 -63.5 -62t-101.5 -26q-66 0 -116.5 32.5zM388 117.5q39 50.5 39 129.5t-39 129.5t-107 50.5t-106 -50.5t-38 -129.5q0 -80 38 -130t106 -50t107 50.5zM249 -180q-16 17 -16 41t16 41t42 17q27 0 42.5 -17t15.5 -41t-15.5 -41t-42.5 -17q-26 0 -42 17z" />
    <glyph glyph-name="uni1EAD.ss01.ss12" horiz-adv-x="588" 
d="M357 563l-71 82l-71 -82h-86l96 125h121l96 -125h-85zM423 494h98v-494h-96v76q-22 -36 -63.5 -62t-101.5 -26q-66 0 -116.5 32.5t-78.5 91.5t-28 135t28 135t78.5 91.5t116.5 32.5q58 0 99.5 -25t63.5 -60v73zM388 117.5q39 50.5 39 129.5t-39 129.5t-107 50.5
t-106 -50.5t-38 -129.5q0 -80 38 -130t106 -50t107 50.5zM333.5 -98q15.5 -17 15.5 -41t-15.5 -41t-42.5 -17q-26 0 -42 17t-16 41t16 41t42 17q27 0 42.5 -17z" />
    <glyph glyph-name="adieresis.ss01.ss12" horiz-adv-x="588" 
d="M143.5 20.5q-50.5 32.5 -78.5 91.5t-28 135t28 135t78.5 91.5t116.5 32.5q58 0 99.5 -25t63.5 -60v73h98v-494h-96v76q-22 -36 -63.5 -62t-101.5 -26q-66 0 -116.5 32.5zM388 117.5q39 50.5 39 129.5t-39 129.5t-107 50.5t-106 -50.5t-38 -129.5q0 -80 38 -130t106 -50
t107 50.5zM147 588q-16 17 -16 41t16 41t42 17t42 -17t16 -41t-16 -41t-42 -17t-42 17zM341 588q-16 17 -16 41t16 41t42 17t42 -17t16 -41t-16 -41t-42 -17t-42 17z" />
    <glyph glyph-name="uni1EA1.ss01.ss12" horiz-adv-x="588" 
d="M143.5 20.5q-50.5 32.5 -78.5 91.5t-28 135t28 135t78.5 91.5t116.5 32.5q58 0 99.5 -25t63.5 -60v73h98v-494h-96v76q-22 -36 -63.5 -62t-101.5 -26q-66 0 -116.5 32.5zM388 117.5q39 50.5 39 129.5t-39 129.5t-107 50.5t-106 -50.5t-38 -129.5q0 -80 38 -130t106 -50
t107 50.5zM249 -180q-16 17 -16 41t16 41t42 17q27 0 42.5 -17t15.5 -41t-15.5 -41t-42.5 -17q-26 0 -42 17z" />
    <glyph glyph-name="uni0123.ss02.ss12" horiz-adv-x="550" 
d="M218.5 574.5q-14.5 16.5 -14.5 46.5q0 47 26.5 82t70.5 57v-42q-41 -24 -53 -59q5 1 11 1q21 0 34.5 -13.5t13.5 -36.5q0 -22 -13.5 -37t-36.5 -15q-24 0 -38.5 16.5zM531 525v-75q-8 1 -27 1q-48 0 -79 -23q29 -40 29 -89q0 -47 -25.5 -85.5t-72 -60.5t-106.5 -22
q-49 0 -84 13q-11 -6 -18 -15.5t-7 -19.5q0 -20 17 -30.5t50 -14.5l132 -14q79 -8 121 -35t42 -86q0 -78 -67.5 -122t-185.5 -44q-73 0 -127 17t-82.5 47.5t-28.5 70.5q0 42 27 67.5t67 34.5q-54 25 -54 73q0 31 17.5 55.5t46.5 39.5q-33 22 -51 55.5t-18 75.5q0 47 25.5 85
t71.5 60t106 22q84 0 137 -39q38 59 121 59q14 0 23 -1zM328 267q30 26 30 72q0 44 -31 71.5t-77 27.5t-76.5 -27.5t-30.5 -71.5q0 -46 30 -72t77 -26q48 0 78 26zM170 24q-69 -24 -69 -71q0 -35 39 -53.5t109 -18.5q69 0 114 19.5t45 53.5q0 24 -26 36t-75 18z" />
    <glyph glyph-name="gdotaccent.ss02.ss12" horiz-adv-x="550" 
d="M531 525v-75q-8 1 -27 1q-48 0 -79 -23q29 -40 29 -89q0 -47 -25.5 -85.5t-72 -60.5t-106.5 -22q-49 0 -84 13q-11 -6 -18 -15.5t-7 -19.5q0 -20 17 -30.5t50 -14.5l132 -14q79 -8 121 -35t42 -86q0 -78 -67.5 -122t-185.5 -44q-73 0 -127 17t-82.5 47.5t-28.5 70.5
q0 42 27 67.5t67 34.5q-54 25 -54 73q0 31 17.5 55.5t46.5 39.5q-33 22 -51 55.5t-18 75.5q0 47 25.5 85t71.5 60t106 22q84 0 137 -39q38 59 121 59q14 0 23 -1zM328 267q30 26 30 72q0 44 -31 71.5t-77 27.5t-76.5 -27.5t-30.5 -71.5q0 -46 30 -72t77 -26q48 0 78 26z
M170 24q-69 -24 -69 -71q0 -35 39 -53.5t109 -18.5q69 0 114 19.5t45 53.5q0 24 -26 36t-75 18zM214 588q-16 17 -16 41t16 41t42 17t42 -17t16 -41t-16 -41t-42 -17t-42 17z" />
    <glyph glyph-name="uni013C.ss03.ss12" horiz-adv-x="260" 
d="M78 45q-8 16 -11 36t-3 55v552h98v-560q0 -26 11.5 -37.5t35.5 -11.5q10 0 32 2v-78q-28 -7 -65 -7q-71 0 -98 49zM111 -204q40 23 52 59q-4 -1 -11 -1q-21 0 -34.5 13.5t-13.5 36.5q0 22 14 37t37 15q24 0 38.5 -16.5t14.5 -46.5q0 -47 -26.5 -82t-70.5 -57v42z" />
    <glyph glyph-name="ldot.ss03.ss12" horiz-adv-x="450" 
d="M78 45q-8 16 -11 36t-3 55v552h98v-560q0 -26 11.5 -37.5t35.5 -11.5q10 0 32 2v-78q-28 -7 -65 -7q-71 0 -98 49zM308.5 231q-17.5 19 -17.5 47t17.5 46.5t46.5 18.5t46.5 -18.5t17.5 -46.5t-17.5 -47t-46.5 -19t-46.5 19z" />
    <glyph glyph-name="uni021B.ss04.ss12" horiz-adv-x="314" 
d="M201 0h-98v414h-88v80h88v156h98v-156h100v-80h-100v-414zM107 -204q40 23 52 59q-4 -1 -11 -1q-21 0 -34.5 13.5t-13.5 36.5q0 22 14 37t37 15q24 0 38.5 -16.5t14.5 -46.5q0 -47 -26.5 -82t-70.5 -57v42z" />
    <glyph glyph-name="udieresis.ss05.ss12" horiz-adv-x="542" 
d="M116.5 42.5q-54.5 54.5 -54.5 156.5v295h98v-289q0 -66 25.5 -99.5t85.5 -33.5t86 34t26 99v289h98v-295q0 -102 -55 -156.5t-155 -54.5t-154.5 54.5zM132 588q-16 17 -16 41t16 41t42 17t42 -17t16 -41t-16 -41t-42 -17t-42 17zM326 588q-16 17 -16 41t16 41t42 17
t42 -17t16 -41t-16 -41t-42 -17t-42 17z" />
    <glyph glyph-name="uni1EE5.ss05.ss12" horiz-adv-x="542" 
d="M116.5 42.5q-54.5 54.5 -54.5 156.5v295h98v-289q0 -66 25.5 -99.5t85.5 -33.5t86 34t26 99v289h98v-295q0 -102 -55 -156.5t-155 -54.5t-154.5 54.5zM229 -180q-16 17 -16 41t16 41t42 17t42 -17t16 -41t-16 -41t-42 -17t-42 17z" />
    <glyph glyph-name="uni1EF1.ss05.ss12" horiz-adv-x="567" 
d="M512 581h84v-36q0 -52 -29.5 -78t-85.5 -32v-236q0 -102 -55 -156.5t-155 -54.5t-154.5 54.5t-54.5 156.5v295h98v-289q0 -66 25.5 -99.5t85.5 -33.5t86 34t26 99v289h74q28 0 41.5 11.5t13.5 38.5v37zM313 -98q16 -17 16 -41t-16 -41t-42 -17t-42 17t-16 41t16 41t42 17
t42 -17z" />
    <glyph glyph-name="ydieresis.ss06.ss12" horiz-adv-x="550" 
d="M125.5 -153.5q-54.5 43.5 -63.5 115.5l100 14q8 -47 35.5 -72t74.5 -25q53 0 83 30t30 91v103h-1q-23 -35 -62 -57.5t-88 -22.5q-79 0 -125 48.5t-46 136.5v286h98v-249q0 -71 21 -105t78 -34q54 0 89.5 42t35.5 102v244h97v-497q0 -100 -59 -147t-157 -47
q-86 0 -140.5 43.5zM130 588q-16 17 -16 41t16 41t42 17t42 -17t16 -41t-16 -41t-42 -17t-42 17zM324 588q-16 17 -16 41t16 41t42 17t42 -17t16 -41t-16 -41t-42 -17t-42 17z" />
    <glyph glyph-name="uni1EF5.ss06.ss12" horiz-adv-x="550" 
d="M125.5 -153.5q-54.5 43.5 -63.5 115.5l100 14q8 -47 35.5 -72t74.5 -25q53 0 83 30t30 91v103h-1q-23 -35 -62 -57.5t-88 -22.5q-79 0 -125 48.5t-46 136.5v286h98v-249q0 -71 21 -105t78 -34q54 0 89.5 42t35.5 102v244h97v-497q0 -100 -59 -147t-157 -47
q-86 0 -140.5 43.5zM525 -180q-16 17 -16 41t16 41t42 17t42 -17t16 -41t-16 -41t-42 -17t-42 17z" />
    <glyph glyph-name="uni021B.ss12" horiz-adv-x="335" 
d="M109 67q-6 19 -6 56v291h-89v80h89v156h97v-156h101v-80h-101v-281q0 -30 15 -43t46 -13q21 0 45 3v-78q-36 -7 -74 -7q-100 0 -123 72zM165 -204q40 23 52 59q-4 -1 -11 -1q-21 0 -34.5 13.5t-13.5 36.5q0 22 14 37t37 15q24 0 38.5 -16.5t14.5 -46.5q0 -47 -26.5 -82
t-70.5 -57v42z" />
    <glyph glyph-name="udieresis.ss12" horiz-adv-x="549" 
d="M107.5 36.5q-45.5 48.5 -45.5 136.5v321h98v-284q0 -71 21 -105t78 -34q54 0 89.5 42t35.5 102v279h97v-494h-96v68h-1q-25 -35 -64 -57.5t-88 -22.5q-79 0 -124.5 48.5zM132 588q-16 17 -16 41t16 41t42 17t42 -17t16 -41t-16 -41t-42 -17t-42 17zM326 588
q-16 17 -16 41t16 41t42 17t42 -17t16 -41t-16 -41t-42 -17t-42 17z" />
    <glyph glyph-name="uni1EE5.ss12" horiz-adv-x="549" 
d="M107.5 36.5q-45.5 48.5 -45.5 136.5v321h98v-284q0 -71 21 -105t78 -34q54 0 89.5 42t35.5 102v279h97v-494h-96v68h-1q-25 -35 -64 -57.5t-88 -22.5q-79 0 -124.5 48.5zM233 -180q-16 17 -16 41t16 41t42 17t42 -17t16 -41t-16 -41t-42 -17t-42 17z" />
    <glyph glyph-name="uni1EF1.ss12" horiz-adv-x="568" 
d="M509 581h84v-36q0 -99 -112 -110v-435h-96v68h-1q-25 -35 -64 -57.5t-88 -22.5q-79 0 -124.5 48.5t-45.5 136.5v321h98v-284q0 -71 21 -105t78 -34q54 0 89.5 42t35.5 102v279h70q28 0 41.5 11.5t13.5 38.5v37zM317 -98q16 -17 16 -41t-16 -41t-42 -17t-42 17t-16 41
t16 41t42 17t42 -17z" />
    <glyph glyph-name="wdieresis.ss12" horiz-adv-x="780" 
d="M273 0h-103l-154 494h103l104 -380h1l114 380h104l115 -380h1l105 380h101l-154 -494h-103l-116 390h-1zM251 588q-16 17 -16 41t16 41t42 17t42 -17t16 -41t-16 -41t-42 -17t-42 17zM445 588q-16 17 -16 41t16 41t42 17t42 -17t16 -41t-16 -41t-42 -17t-42 17z" />
    <glyph glyph-name="ydieresis.ss12" horiz-adv-x="505" 
d="M383 494h107l-212 -553q-28 -71 -71.5 -101.5t-110.5 -30.5q-20 0 -48 4v83q30 -4 44 -4q36 0 57 16t37 53l17 43l-188 490h107l131 -379zM113 588q-16 17 -16 41t16 41t42 17t42 -17t16 -41t-16 -41t-42 -17t-42 17zM307 588q-16 17 -16 41t16 41t42 17t42 -17t16 -41
t-16 -41t-42 -17t-42 17z" />
    <glyph glyph-name="uni1EF5.ss12" horiz-adv-x="505" 
d="M383 494h107l-212 -553q-28 -71 -71.5 -101.5t-110.5 -30.5q-20 0 -48 4v83q30 -4 44 -4q36 0 57 16t37 53l17 43l-188 490h107l131 -379zM419 -98q16 -17 16 -41t-16 -41t-42 -17t-42 17t-16 41t16 41t42 17t42 -17z" />
    <glyph glyph-name="zdotaccent.ss12" horiz-adv-x="472" 
d="M201 588q-16 17 -16 41t16 41t42 17t42 -17t16 -41t-16 -41t-42 -17t-42 17zM440 0h-407v83l284 332h-275v79h390v-81l-285 -334h293v-79z" />
    <glyph glyph-name="fl.ss03" horiz-adv-x="587" 
d="M105 0v414h-89v80h89v85q0 60 34 90.5t96 30.5q28 0 62 -6v-78q-21 3 -36 3q-29 0 -43.5 -12.5t-14.5 -41.5v-71h99v-80h-99v-414h-98zM405 45q-8 16 -11 36t-3 55v552h98v-560q0 -26 11.5 -37.5t35.5 -11.5q10 0 32 2v-78q-28 -7 -65 -7q-71 0 -98 49z" />
    <glyph glyph-name="fi.ss12" horiz-adv-x="557" 
d="M105 0v414h-89v80h89v85q0 60 34 90.5t96 30.5q28 0 62 -6v-78q-21 3 -36 3q-29 0 -43.5 -12.5t-14.5 -41.5v-71h99v-80h-99v-414h-98zM396 585.5q-17 17.5 -17 44.5q0 26 17 43t45 17q27 0 44 -17t17 -43q0 -27 -17 -44.5t-44 -17.5q-28 0 -45 17.5zM490 0h-98v494h98
v-494z" />
    <glyph glyph-name="a.sc" horiz-adv-x="571" 
d="M556 0h-100l-50 133h-241l-49 -133h-101l208 550h125zM377 214l-92 251l-91 -251h183z" />
    <glyph glyph-name="aacute.sc" horiz-adv-x="571" 
d="M556 0h-100l-50 133h-241l-49 -133h-101l208 550h125zM377 214l-92 251l-91 -251h183zM324 603h-87l73 102h116z" />
    <glyph glyph-name="abreve.sc" horiz-adv-x="571" 
d="M556 0h-100l-50 133h-241l-49 -133h-101l208 550h125zM377 214l-92 251l-91 -251h183zM207 625.5q-31 26.5 -37 74.5h65q10 -43 51 -43q42 0 50 43h66q-5 -47 -36.5 -74t-79.5 -27t-79 26.5z" />
    <glyph glyph-name="uni1EAF.sc" horiz-adv-x="571" 
d="M302 802h93l-79 -89h-72zM207 625.5q-31 26.5 -37 74.5h65q9 -43 51 -43q43 0 51 43h65q-5 -47 -36 -74t-80 -27q-48 0 -79 26.5zM556 0h-100l-50 133h-241l-49 -133h-101l208 550h125zM377 214l-92 251l-91 -251h183z" />
    <glyph glyph-name="uni1EB7.sc" horiz-adv-x="571" 
d="M556 0h-100l-50 133h-241l-49 -133h-101l208 550h125zM377 214l-92 251l-91 -251h183zM335 -194h-98v119h98v-119zM207 625.5q-31 26.5 -37 74.5h65q10 -43 51 -43q42 0 50 43h66q-5 -47 -36.5 -74t-79.5 -27t-79 26.5z" />
    <glyph glyph-name="uni1EB1.sc" horiz-adv-x="571" 
d="M270 802l57 -89h-71l-79 89h93zM207 625.5q-31 26.5 -37 74.5h65q9 -43 51 -43q43 0 51 43h65q-5 -47 -36 -74t-80 -27q-48 0 -79 26.5zM556 0h-100l-50 133h-241l-49 -133h-101l208 550h125zM377 214l-92 251l-91 -251h183z" />
    <glyph glyph-name="uni1EB3.sc" horiz-adv-x="571" 
d="M263 767q-23 0 -45 -10v43q24 13 58 13q31 0 51 -14.5t20 -42.5q0 -27 -18.5 -42t-46.5 -25l-17 30q27 14 27 29q0 19 -29 19zM207 625.5q-31 26.5 -37 74.5h65q9 -43 51 -43q43 0 51 43h65q-5 -47 -36 -74t-80 -27q-48 0 -79 26.5zM556 0h-100l-50 133h-241l-49 -133
h-101l208 550h125zM377 214l-92 251l-91 -251h183z" />
    <glyph glyph-name="uni1EB5.sc" horiz-adv-x="571" 
d="M220 724l-47 12q7 33 24 52.5t46 19.5q16 0 28 -5t26 -14q8 -5 16 -9t15 -4q22 0 27 32l47 -13q-16 -72 -72 -72q-15 0 -26 5t-26 14q-20 13 -31 13q-22 0 -27 -31zM207 625.5q-31 26.5 -37 74.5h65q9 -43 51 -43q43 0 51 43h65q-5 -47 -36 -74t-80 -27q-48 0 -79 26.5z
M556 0h-100l-50 133h-241l-49 -133h-101l208 550h125zM377 214l-92 251l-91 -251h183z" />
    <glyph glyph-name="acircumflex.sc" horiz-adv-x="571" 
d="M556 0h-100l-50 133h-241l-49 -133h-101l208 550h125zM377 214l-92 251l-91 -251h183zM341 705l77 -102h-80l-52 63l-53 -63h-80l77 102h111z" />
    <glyph glyph-name="uni1EA5.sc" horiz-adv-x="571" 
d="M430 772h91l-77 -90h-70zM339 603l-53 63l-53 -63h-80l77 102h111l78 -102h-80zM556 0h-100l-50 133h-241l-49 -133h-101l208 550h125zM377 214l-92 251l-91 -251h183z" />
    <glyph glyph-name="uni1EAD.sc" horiz-adv-x="571" 
d="M339 603l-53 63l-53 -63h-80l77 102h111l78 -102h-80zM348 550l208 -550h-100l-50 133h-241l-49 -133h-101l208 550h125zM377 214l-92 251l-91 -251h183zM335 -194h-98v119h98v-119z" />
    <glyph glyph-name="uni1EA7.sc" horiz-adv-x="571" 
d="M407 772l55 -90h-69l-76 90h90zM339 603l-53 63l-53 -63h-80l77 102h111l78 -102h-80zM556 0h-100l-50 133h-241l-49 -133h-101l208 550h125zM377 214l-92 251l-91 -251h183z" />
    <glyph glyph-name="uni1EA9.sc" horiz-adv-x="571" 
d="M373 748q-19 0 -44 -10v41q10 5 25.5 9t30.5 4q29 0 48 -14t19 -40q0 -25 -17 -39.5t-44 -24.5l-17 28q12 7 19 13t7 15q0 18 -27 18zM339 603l-53 63l-53 -63h-80l77 102h111l78 -102h-80zM556 0h-100l-50 133h-241l-49 -133h-101l208 550h125zM377 214l-92 251
l-91 -251h183z" />
    <glyph glyph-name="uni1EAB.sc" horiz-adv-x="571" 
d="M227.5 752q-5.5 -8 -8.5 -23l-47 12q6 33 23.5 52.5t46.5 19.5q15 0 26 -4.5t27 -13.5q20 -13 32 -13q22 0 27 31l47 -13q-16 -72 -71 -72q-16 0 -28 5t-26 14q-8 5 -16 9t-15 4q-12 0 -17.5 -8zM339 603l-53 63l-53 -63h-80l77 102h111l78 -102h-80zM556 0h-100l-50 133
h-241l-49 -133h-101l208 550h125zM377 214l-92 251l-91 -251h183z" />
    <glyph glyph-name="adieresis.sc" horiz-adv-x="571" 
d="M556 0h-100l-50 133h-241l-49 -133h-101l208 550h125zM377 214l-92 251l-91 -251h183zM251 604h-92v101h92v-101zM412 604h-91v101h91v-101z" />
    <glyph glyph-name="uni0227.sc" horiz-adv-x="571" 
d="M556 0h-100l-50 133h-241l-49 -133h-101l208 550h125zM377 214l-92 251l-91 -251h183zM332 604h-92v101h92v-101z" />
    <glyph glyph-name="uni1EA1.sc" horiz-adv-x="571" 
d="M556 0h-100l-50 133h-241l-49 -133h-101l208 550h125zM377 214l-92 251l-91 -251h183zM335 -194h-98v119h98v-119z" />
    <glyph glyph-name="agrave.sc" horiz-adv-x="571" 
d="M556 0h-100l-50 133h-241l-49 -133h-101l208 550h125zM377 214l-92 251l-91 -251h183zM335 603h-88l-101 102h115z" />
    <glyph glyph-name="uni1EA3.sc" horiz-adv-x="571" 
d="M265 674q-13 0 -29.5 -4t-27.5 -9v53q12 7 31.5 11.5t39.5 4.5q37 0 62 -18t25 -52q0 -32 -22.5 -51t-56.5 -30l-21 36q15 8 24 16t9 20q0 23 -34 23zM556 0h-100l-50 133h-241l-49 -133h-101l208 550h125zM377 214l-92 251l-91 -251h183z" />
    <glyph glyph-name="amacron.sc" horiz-adv-x="571" 
d="M556 0h-100l-50 133h-241l-49 -133h-101l208 550h125zM377 214l-92 251l-91 -251h183zM413 612h-255v75h255v-75z" />
    <glyph glyph-name="aogonek.sc" horiz-adv-x="571" 
d="M559 -173q-25 -10 -59 -10q-40 0 -68.5 21.5t-28.5 62.5q0 57 66 99h-13l-50 133h-241l-49 -133h-101l208 550h125l208 -550q-68 -42 -68 -83q0 -16 10 -24t25 -8q11 0 21 3zM377 214l-92 251l-91 -251h183z" />
    <glyph glyph-name="aring.sc" horiz-adv-x="571" 
d="M556 0h-100l-50 133h-241l-49 -133h-101l208 550h125zM377 214l-92 251l-91 -251h183zM230.5 613q-22.5 22 -22.5 54q0 31 22.5 52.5t54.5 21.5q33 0 55.5 -21.5t22.5 -52.5q0 -32 -22.5 -54t-55.5 -22q-32 0 -54.5 22zM305.5 646.5q8.5 8.5 8.5 20.5q0 11 -8.5 19.5
t-20.5 8.5q-11 0 -19 -8.5t-8 -19.5q0 -12 8 -20.5t19 -8.5q12 0 20.5 8.5z" />
    <glyph glyph-name="aringacute.sc" horiz-adv-x="571" 
d="M320 858h115l-101 -102h-88zM230.5 602q-22.5 22 -22.5 54q0 31 22.5 52.5t54.5 21.5q33 0 55.5 -21.5t22.5 -52.5q0 -32 -22.5 -54t-55.5 -22q-32 0 -54.5 22zM266 675.5q-8 -8.5 -8 -19.5q0 -12 8 -20.5t19 -8.5q12 0 20.5 8.5t8.5 20.5q0 11 -8.5 19.5t-20.5 8.5
q-11 0 -19 -8.5zM556 0h-100l-50 133h-241l-49 -133h-101l208 550h125zM377 214l-92 251l-91 -251h183z" />
    <glyph glyph-name="atilde.sc" horiz-adv-x="571" 
d="M556 0h-100l-50 133h-241l-49 -133h-101l208 550h125zM377 214l-92 251l-91 -251h183zM309.5 607q-13.5 6 -33.5 18q-9 6 -19.5 11t-19.5 5q-28 0 -33 -40l-59 16q8 42 30 66t58 24q19 0 33.5 -6t32.5 -18q2 -1 10.5 -6t16 -7.5t13.5 -2.5q14 0 22 9.5t12 29.5l58 -16
q-19 -89 -89 -89q-19 0 -32.5 6z" />
    <glyph glyph-name="ae.sc" horiz-adv-x="742" 
d="M452 245v-160h245v-85h-343v132h-187l-74 -132h-104l309 550h392v-84h-238v-138h218v-83h-218zM354 468l-142 -254h142v254z" />
    <glyph glyph-name="aeacute.sc" horiz-adv-x="742" 
d="M452 245v-160h245v-85h-343v132h-187l-74 -132h-104l309 550h392v-84h-238v-138h218v-83h-218zM354 468l-142 -254h142v254zM422 603h-87l73 102h116z" />
    <glyph glyph-name="uni01E3.sc" horiz-adv-x="742" 
d="M452 245v-160h245v-85h-343v132h-187l-74 -132h-104l309 550h392v-84h-238v-138h218v-83h-218zM354 468l-142 -254h142v254zM512 612h-255v75h255v-75z" />
    <glyph glyph-name="b.sc" horiz-adv-x="536" 
d="M73 0v550h226q83 0 130.5 -36.5t47.5 -106.5q0 -45 -24.5 -75.5t-54.5 -41.5v-1q35 -9 65 -41.5t30 -88.5q0 -75 -50 -117t-138 -42h-232zM293 322q40 0 63 19t23 57q0 36 -23 52.5t-61 16.5h-122v-145h120zM303 83q44 0 68 21.5t24 61.5q0 39 -24.5 59.5t-69.5 20.5
h-128v-163h130z" />
    <glyph glyph-name="c.sc" horiz-adv-x="590" 
d="M169.5 26q-61.5 36 -95.5 100.5t-34 148.5q0 83 34 147.5t96 101t142 36.5q102 0 165.5 -53t82.5 -129l-103 -23q-11 51 -48.5 87t-97.5 36q-77 0 -122.5 -56t-45.5 -147t45.5 -147t123.5 -56q62 0 99 35t50 91l103 -22q-23 -82 -88.5 -134t-164.5 -52q-80 0 -141.5 36z
" />
    <glyph glyph-name="cacute.sc" horiz-adv-x="590" 
d="M169.5 26q-61.5 36 -95.5 100.5t-34 148.5q0 83 34 147.5t96 101t142 36.5q102 0 165.5 -53t82.5 -129l-103 -23q-11 51 -48.5 87t-97.5 36q-77 0 -122.5 -56t-45.5 -147t45.5 -147t123.5 -56q62 0 99 35t50 91l103 -22q-23 -82 -88.5 -134t-164.5 -52q-80 0 -141.5 36z
M351 603h-87l73 102h116z" />
    <glyph glyph-name="ccaron.sc" horiz-adv-x="590" 
d="M444 705l-77 -102h-111l-77 102h80l53 -62l52 62h80zM564 176q-23 -82 -88.5 -134t-164.5 -52q-80 0 -141.5 36t-95.5 100.5t-34 148.5q0 83 34 147.5t96 101t142 36.5q102 0 165.5 -53t82.5 -129l-103 -23q-11 51 -48.5 87t-97.5 36q-77 0 -122.5 -56t-45.5 -147
t45.5 -147t123.5 -56q62 0 99 35t50 91z" />
    <glyph glyph-name="ccedilla.sc" horiz-adv-x="591" 
d="M564 176q-22 -76 -79 -126.5t-145 -58.5l-10 -26q33 -5 55.5 -24t22.5 -52q0 -48 -42 -71.5t-104 -23.5h-11v57h4q31 0 52 9.5t21 28.5q0 29 -47 29h-29l26 74q-71 7 -124.5 44.5t-83 99t-29.5 139.5q0 83 34 147.5t95.5 101t141.5 36.5q103 0 166 -53t82 -129l-103 -23
q-11 51 -48 87t-98 36q-77 0 -122.5 -56t-45.5 -147t45.5 -147t123.5 -56q63 0 99.5 35t49.5 91z" />
    <glyph glyph-name="ccircumflex.sc" horiz-adv-x="590" 
d="M169.5 26q-61.5 36 -95.5 100.5t-34 148.5q0 83 34 147.5t96 101t142 36.5q102 0 165.5 -53t82.5 -129l-103 -23q-11 51 -48.5 87t-97.5 36q-77 0 -122.5 -56t-45.5 -147t45.5 -147t123.5 -56q62 0 99 35t50 91l103 -22q-23 -82 -88.5 -134t-164.5 -52q-80 0 -141.5 36z
M368 705l77 -102h-80l-52 63l-53 -63h-80l77 102h111z" />
    <glyph glyph-name="cdotaccent.sc" horiz-adv-x="590" 
d="M169.5 26q-61.5 36 -95.5 100.5t-34 148.5q0 83 34 147.5t96 101t142 36.5q102 0 165.5 -53t82.5 -129l-103 -23q-11 51 -48.5 87t-97.5 36q-77 0 -122.5 -56t-45.5 -147t45.5 -147t123.5 -56q62 0 99 35t50 91l103 -22q-23 -82 -88.5 -134t-164.5 -52q-80 0 -141.5 36z
M358 604h-92v101h92v-101z" />
    <glyph glyph-name="d.sc" horiz-adv-x="595" 
d="M73 0v550h212q128 0 198 -73.5t70 -200.5q0 -82 -31.5 -144.5t-91 -97t-141.5 -34.5h-216zM286 84q82 0 123 52t41 140q0 98 -46 144.5t-137 46.5h-93v-383h112z" />
    <glyph glyph-name="eth.sc" horiz-adv-x="608" 
d="M297 550q128 0 198.5 -73t70.5 -201q0 -82 -31.5 -144.5t-91 -97t-141.5 -34.5h-216v234h-65v81h65v235h211zM299 84q82 0 123 52t41 140q0 98 -46 144.5t-137 46.5h-94v-152h132v-81h-132v-150h113z" />
    <glyph glyph-name="dcaron.sc" horiz-adv-x="595" 
d="M418 705l-77 -102h-111l-77 102h80l53 -62l52 62h80zM285 550q128 0 198 -73.5t70 -200.5q0 -82 -31.5 -144.5t-91 -97t-141.5 -34.5h-216v550h212zM286 84q82 0 123 52t41 140q0 98 -46 144.5t-137 46.5h-93v-383h112z" />
    <glyph glyph-name="dcroat.sc" horiz-adv-x="608" 
d="M297 550q128 0 198.5 -73t70.5 -201q0 -82 -31.5 -144.5t-91 -97t-141.5 -34.5h-216v234h-65v81h65v235h211zM299 84q82 0 123 52t41 140q0 98 -46 144.5t-137 46.5h-94v-152h132v-81h-132v-150h113z" />
    <glyph glyph-name="e.sc" horiz-adv-x="489" 
d="M173 247v-163h273v-84h-373v550h361v-83h-261v-138h245v-82h-245z" />
    <glyph glyph-name="eacute.sc" horiz-adv-x="489" 
d="M173 247v-163h273v-84h-373v550h361v-83h-261v-138h245v-82h-245zM297 603h-87l73 102h116z" />
    <glyph glyph-name="ebreve.sc" horiz-adv-x="489" 
d="M173 247v-163h273v-84h-373v550h361v-83h-261v-138h245v-82h-245zM180 625.5q-31 26.5 -37 74.5h65q10 -43 51 -43q42 0 50 43h66q-5 -47 -36.5 -74t-79.5 -27t-79 26.5z" />
    <glyph glyph-name="ecaron.sc" horiz-adv-x="489" 
d="M391 705l-77 -102h-111l-77 102h79l53 -62l53 62h80zM173 247v-163h273v-84h-373v550h361v-83h-261v-138h245v-82h-245z" />
    <glyph glyph-name="ecircumflex.sc" horiz-adv-x="489" 
d="M173 247v-163h273v-84h-373v550h361v-83h-261v-138h245v-82h-245zM315 705l77 -102h-80l-52 63l-53 -63h-80l77 102h111z" />
    <glyph glyph-name="uni1EBF.sc" horiz-adv-x="489" 
d="M403 772h91l-77 -90h-69zM312 603l-53 63l-53 -63h-79l77 102h111l77 -102h-80zM418 247h-245v-163h273v-84h-373v550h361v-83h-261v-138h245v-82z" />
    <glyph glyph-name="uni1EC7.sc" horiz-adv-x="489" 
d="M312 603l-53 63l-53 -63h-79l77 102h111l77 -102h-80zM173 247v-163h273v-84h-373v550h361v-83h-261v-138h245v-82h-245zM307 -194h-97v119h97v-119z" />
    <glyph glyph-name="uni1EC1.sc" horiz-adv-x="489" 
d="M380 772l56 -90h-70l-76 90h90zM312 603l-53 63l-53 -63h-79l77 102h111l77 -102h-80zM173 247v-163h273v-84h-373v550h361v-83h-261v-138h245v-82h-245z" />
    <glyph glyph-name="uni1EC3.sc" horiz-adv-x="489" 
d="M347 748q-22 0 -44 -10v41q9 5 24.5 9t30.5 4q29 0 48 -14t19 -40q0 -25 -17 -39.5t-44 -24.5l-17 28q12 6 19 12.5t7 15.5q0 18 -26 18zM312 603l-53 63l-53 -63h-79l77 102h111l77 -102h-80zM173 247v-163h273v-84h-373v550h361v-83h-261v-138h245v-82h-245z" />
    <glyph glyph-name="uni1EC5.sc" horiz-adv-x="489" 
d="M200.5 752q-5.5 -8 -8.5 -23l-47 12q16 72 71 72q15 0 27 -5t26 -14q8 -5 16 -8.5t15 -3.5q22 0 27 31l47 -13q-16 -72 -71 -72q-15 0 -27 5t-26 14q-20 13 -32 13t-17.5 -8zM312 603l-53 63l-53 -63h-79l77 102h111l77 -102h-80zM173 247v-163h273v-84h-373v550h361v-83
h-261v-138h245v-82h-245z" />
    <glyph glyph-name="edieresis.sc" horiz-adv-x="489" 
d="M173 247v-163h273v-84h-373v550h361v-83h-261v-138h245v-82h-245zM224 604h-92v101h92v-101zM385 604h-91v101h91v-101z" />
    <glyph glyph-name="edotaccent.sc" horiz-adv-x="489" 
d="M173 247v-163h273v-84h-373v550h361v-83h-261v-138h245v-82h-245zM305 604h-92v101h92v-101z" />
    <glyph glyph-name="uni1EB9.sc" horiz-adv-x="489" 
d="M173 247v-163h273v-84h-373v550h361v-83h-261v-138h245v-82h-245zM308 -194h-98v119h98v-119z" />
    <glyph glyph-name="egrave.sc" horiz-adv-x="489" 
d="M173 247v-163h273v-84h-373v550h361v-83h-261v-138h245v-82h-245zM308 603h-88l-101 102h115z" />
    <glyph glyph-name="uni1EBB.sc" horiz-adv-x="489" 
d="M238 674q-13 0 -29 -4t-28 -9v53q12 7 31.5 11.5t39.5 4.5q38 0 62.5 -18t24.5 -52q0 -32 -22.5 -51t-56.5 -30l-20 36q15 8 23.5 16t8.5 20q0 23 -34 23zM173 247v-163h273v-84h-373v550h361v-83h-261v-138h245v-82h-245z" />
    <glyph glyph-name="emacron.sc" horiz-adv-x="489" 
d="M173 247v-163h273v-84h-373v550h361v-83h-261v-138h245v-82h-245zM387 612h-255v75h255v-75z" />
    <glyph glyph-name="eogonek.sc" horiz-adv-x="489" 
d="M449 -173q-25 -10 -59 -10q-40 0 -68.5 21.5t-28.5 62.5q0 57 66 99h-286v550h361v-83h-261v-138h245v-82h-245v-163h273v-84q-68 -42 -68 -83q0 -16 10 -24t25 -8q11 0 21 3z" />
    <glyph glyph-name="uni1EBD.sc" horiz-adv-x="489" 
d="M173 247v-163h273v-84h-373v550h361v-83h-261v-138h245v-82h-245zM282.5 607q-13.5 6 -33.5 18q-9 6 -19.5 11t-19.5 5q-28 0 -33 -40l-59 16q8 42 30 66t58 24q19 0 33.5 -6t32.5 -18q2 -1 10.5 -6t16 -7.5t13.5 -2.5q14 0 22 9.5t12 29.5l58 -16q-19 -89 -89 -89
q-19 0 -32.5 6z" />
    </font>
</defs>
</svg>
